<mxfile host="Electron" modified="2023-10-05T08:47:06.900Z" agent="Mozilla/5.0 (Windows NT 10.0; Win64; x64) AppleWebKit/537.36 (KHTML, like Gecko) draw.io/21.7.5 Chrome/114.0.5735.289 Electron/25.8.1 Safari/537.36" etag="qxuxsxo4hj9CBG_XbsJc" version="21.7.5" type="device">
  <diagram id="C5RBs43oDa-KdzZeNtuy" name="Page-1">
    <mxGraphModel dx="2845" dy="1920" grid="1" gridSize="10" guides="1" tooltips="1" connect="1" arrows="1" fold="1" page="1" pageScale="1" pageWidth="827" pageHeight="1169" math="0" shadow="0">
      <root>
        <mxCell id="WIyWlLk6GJQsqaUBKTNV-0" />
        <mxCell id="WIyWlLk6GJQsqaUBKTNV-1" parent="WIyWlLk6GJQsqaUBKTNV-0" />
        <mxCell id="pApWtMFqq5sFdujX7QiP-33" value="" style="rounded=0;whiteSpace=wrap;html=1;" parent="WIyWlLk6GJQsqaUBKTNV-1" vertex="1">
          <mxGeometry x="310" y="430" width="180" height="60" as="geometry" />
        </mxCell>
        <mxCell id="pApWtMFqq5sFdujX7QiP-27" value="" style="rounded=0;whiteSpace=wrap;html=1;" parent="WIyWlLk6GJQsqaUBKTNV-1" vertex="1">
          <mxGeometry x="310" y="360" width="520" height="60" as="geometry" />
        </mxCell>
        <mxCell id="pApWtMFqq5sFdujX7QiP-0" value="" style="rounded=0;whiteSpace=wrap;html=1;" parent="WIyWlLk6GJQsqaUBKTNV-1" vertex="1">
          <mxGeometry x="50" y="40" width="220" height="390" as="geometry" />
        </mxCell>
        <mxCell id="pApWtMFqq5sFdujX7QiP-1" value="Code" style="rounded=0;whiteSpace=wrap;html=1;" parent="WIyWlLk6GJQsqaUBKTNV-1" vertex="1">
          <mxGeometry x="60" y="50" width="200" height="60" as="geometry" />
        </mxCell>
        <mxCell id="pApWtMFqq5sFdujX7QiP-2" value="BSS" style="rounded=0;whiteSpace=wrap;html=1;" parent="WIyWlLk6GJQsqaUBKTNV-1" vertex="1">
          <mxGeometry x="60" y="120" width="200" height="60" as="geometry" />
        </mxCell>
        <mxCell id="pApWtMFqq5sFdujX7QiP-3" value="Data" style="rounded=0;whiteSpace=wrap;html=1;" parent="WIyWlLk6GJQsqaUBKTNV-1" vertex="1">
          <mxGeometry x="60" y="190" width="200" height="60" as="geometry" />
        </mxCell>
        <mxCell id="pApWtMFqq5sFdujX7QiP-4" value="" style="rounded=0;whiteSpace=wrap;html=1;" parent="WIyWlLk6GJQsqaUBKTNV-1" vertex="1">
          <mxGeometry x="60" y="260" width="200" height="160" as="geometry" />
        </mxCell>
        <mxCell id="pApWtMFqq5sFdujX7QiP-5" value="Heap" style="text;html=1;strokeColor=none;fillColor=none;align=center;verticalAlign=middle;whiteSpace=wrap;rounded=0;" parent="WIyWlLk6GJQsqaUBKTNV-1" vertex="1">
          <mxGeometry x="130" y="270" width="60" height="30" as="geometry" />
        </mxCell>
        <mxCell id="pApWtMFqq5sFdujX7QiP-7" value="Stack" style="text;html=1;strokeColor=none;fillColor=none;align=center;verticalAlign=middle;whiteSpace=wrap;rounded=0;" parent="WIyWlLk6GJQsqaUBKTNV-1" vertex="1">
          <mxGeometry x="130" y="430" width="60" height="30" as="geometry" />
        </mxCell>
        <mxCell id="pApWtMFqq5sFdujX7QiP-8" value="" style="rounded=0;whiteSpace=wrap;html=1;" parent="WIyWlLk6GJQsqaUBKTNV-1" vertex="1">
          <mxGeometry x="110" y="360" width="150" height="60" as="geometry" />
        </mxCell>
        <mxCell id="pApWtMFqq5sFdujX7QiP-9" value="Main()" style="text;html=1;strokeColor=none;fillColor=none;align=center;verticalAlign=middle;whiteSpace=wrap;rounded=0;" parent="WIyWlLk6GJQsqaUBKTNV-1" vertex="1">
          <mxGeometry x="200" y="340" width="40" height="30" as="geometry" />
        </mxCell>
        <mxCell id="pApWtMFqq5sFdujX7QiP-10" value="Coord coord" style="rounded=0;whiteSpace=wrap;html=1;" parent="WIyWlLk6GJQsqaUBKTNV-1" vertex="1">
          <mxGeometry x="120" y="370" width="135" height="25" as="geometry" />
        </mxCell>
        <mxCell id="pApWtMFqq5sFdujX7QiP-11" value="CoordClass coordClass" style="rounded=0;whiteSpace=wrap;html=1;" parent="WIyWlLk6GJQsqaUBKTNV-1" vertex="1">
          <mxGeometry x="120" y="395" width="135" height="25" as="geometry" />
        </mxCell>
        <mxCell id="pApWtMFqq5sFdujX7QiP-12" value="" style="rounded=0;whiteSpace=wrap;html=1;" parent="WIyWlLk6GJQsqaUBKTNV-1" vertex="1">
          <mxGeometry x="320" y="370" width="40" height="40" as="geometry" />
        </mxCell>
        <mxCell id="pApWtMFqq5sFdujX7QiP-13" value="" style="rounded=0;whiteSpace=wrap;html=1;" parent="WIyWlLk6GJQsqaUBKTNV-1" vertex="1">
          <mxGeometry x="360" y="370" width="40" height="40" as="geometry" />
        </mxCell>
        <mxCell id="pApWtMFqq5sFdujX7QiP-14" value="" style="rounded=0;whiteSpace=wrap;html=1;" parent="WIyWlLk6GJQsqaUBKTNV-1" vertex="1">
          <mxGeometry x="400" y="370" width="40" height="40" as="geometry" />
        </mxCell>
        <mxCell id="pApWtMFqq5sFdujX7QiP-15" value="" style="rounded=0;whiteSpace=wrap;html=1;" parent="WIyWlLk6GJQsqaUBKTNV-1" vertex="1">
          <mxGeometry x="440" y="370" width="40" height="40" as="geometry" />
        </mxCell>
        <mxCell id="pApWtMFqq5sFdujX7QiP-16" value="x" style="text;html=1;strokeColor=none;fillColor=none;align=center;verticalAlign=middle;whiteSpace=wrap;rounded=0;" parent="WIyWlLk6GJQsqaUBKTNV-1" vertex="1">
          <mxGeometry x="370" y="340" width="60" height="30" as="geometry" />
        </mxCell>
        <mxCell id="pApWtMFqq5sFdujX7QiP-17" value="" style="rounded=0;whiteSpace=wrap;html=1;" parent="WIyWlLk6GJQsqaUBKTNV-1" vertex="1">
          <mxGeometry x="490" y="370" width="40" height="40" as="geometry" />
        </mxCell>
        <mxCell id="pApWtMFqq5sFdujX7QiP-18" value="" style="rounded=0;whiteSpace=wrap;html=1;" parent="WIyWlLk6GJQsqaUBKTNV-1" vertex="1">
          <mxGeometry x="530" y="370" width="40" height="40" as="geometry" />
        </mxCell>
        <mxCell id="pApWtMFqq5sFdujX7QiP-19" value="" style="rounded=0;whiteSpace=wrap;html=1;" parent="WIyWlLk6GJQsqaUBKTNV-1" vertex="1">
          <mxGeometry x="570" y="370" width="40" height="40" as="geometry" />
        </mxCell>
        <mxCell id="pApWtMFqq5sFdujX7QiP-20" value="" style="rounded=0;whiteSpace=wrap;html=1;" parent="WIyWlLk6GJQsqaUBKTNV-1" vertex="1">
          <mxGeometry x="610" y="370" width="40" height="40" as="geometry" />
        </mxCell>
        <mxCell id="pApWtMFqq5sFdujX7QiP-21" value="y" style="text;html=1;strokeColor=none;fillColor=none;align=center;verticalAlign=middle;whiteSpace=wrap;rounded=0;" parent="WIyWlLk6GJQsqaUBKTNV-1" vertex="1">
          <mxGeometry x="540" y="340" width="60" height="30" as="geometry" />
        </mxCell>
        <mxCell id="pApWtMFqq5sFdujX7QiP-22" value="" style="rounded=0;whiteSpace=wrap;html=1;" parent="WIyWlLk6GJQsqaUBKTNV-1" vertex="1">
          <mxGeometry x="660" y="370" width="40" height="40" as="geometry" />
        </mxCell>
        <mxCell id="pApWtMFqq5sFdujX7QiP-23" value="" style="rounded=0;whiteSpace=wrap;html=1;" parent="WIyWlLk6GJQsqaUBKTNV-1" vertex="1">
          <mxGeometry x="700" y="370" width="40" height="40" as="geometry" />
        </mxCell>
        <mxCell id="pApWtMFqq5sFdujX7QiP-24" value="" style="rounded=0;whiteSpace=wrap;html=1;" parent="WIyWlLk6GJQsqaUBKTNV-1" vertex="1">
          <mxGeometry x="740" y="370" width="40" height="40" as="geometry" />
        </mxCell>
        <mxCell id="pApWtMFqq5sFdujX7QiP-25" value="" style="rounded=0;whiteSpace=wrap;html=1;" parent="WIyWlLk6GJQsqaUBKTNV-1" vertex="1">
          <mxGeometry x="780" y="370" width="40" height="40" as="geometry" />
        </mxCell>
        <mxCell id="pApWtMFqq5sFdujX7QiP-26" value="z" style="text;html=1;strokeColor=none;fillColor=none;align=center;verticalAlign=middle;whiteSpace=wrap;rounded=0;" parent="WIyWlLk6GJQsqaUBKTNV-1" vertex="1">
          <mxGeometry x="710" y="340" width="60" height="30" as="geometry" />
        </mxCell>
        <mxCell id="pApWtMFqq5sFdujX7QiP-29" value="" style="rounded=0;whiteSpace=wrap;html=1;" parent="WIyWlLk6GJQsqaUBKTNV-1" vertex="1">
          <mxGeometry x="320" y="440" width="40" height="40" as="geometry" />
        </mxCell>
        <mxCell id="pApWtMFqq5sFdujX7QiP-30" value="" style="rounded=0;whiteSpace=wrap;html=1;" parent="WIyWlLk6GJQsqaUBKTNV-1" vertex="1">
          <mxGeometry x="360" y="440" width="40" height="40" as="geometry" />
        </mxCell>
        <mxCell id="pApWtMFqq5sFdujX7QiP-31" value="" style="rounded=0;whiteSpace=wrap;html=1;" parent="WIyWlLk6GJQsqaUBKTNV-1" vertex="1">
          <mxGeometry x="400" y="440" width="40" height="40" as="geometry" />
        </mxCell>
        <mxCell id="pApWtMFqq5sFdujX7QiP-32" value="" style="rounded=0;whiteSpace=wrap;html=1;" parent="WIyWlLk6GJQsqaUBKTNV-1" vertex="1">
          <mxGeometry x="440" y="440" width="40" height="40" as="geometry" />
        </mxCell>
        <mxCell id="pApWtMFqq5sFdujX7QiP-35" value="" style="endArrow=classic;html=1;rounded=0;exitX=0;exitY=0.5;exitDx=0;exitDy=0;" parent="WIyWlLk6GJQsqaUBKTNV-1" source="pApWtMFqq5sFdujX7QiP-27" target="pApWtMFqq5sFdujX7QiP-10" edge="1">
          <mxGeometry width="50" height="50" relative="1" as="geometry">
            <mxPoint x="530" y="370" as="sourcePoint" />
            <mxPoint x="580" y="320" as="targetPoint" />
          </mxGeometry>
        </mxCell>
        <mxCell id="pApWtMFqq5sFdujX7QiP-36" value="" style="endArrow=classic;html=1;rounded=0;exitX=-0.005;exitY=0.597;exitDx=0;exitDy=0;exitPerimeter=0;entryX=1;entryY=0.5;entryDx=0;entryDy=0;" parent="WIyWlLk6GJQsqaUBKTNV-1" source="pApWtMFqq5sFdujX7QiP-33" target="pApWtMFqq5sFdujX7QiP-11" edge="1">
          <mxGeometry width="50" height="50" relative="1" as="geometry">
            <mxPoint x="320" y="400" as="sourcePoint" />
            <mxPoint x="265" y="397" as="targetPoint" />
          </mxGeometry>
        </mxCell>
        <mxCell id="pApWtMFqq5sFdujX7QiP-37" value="object&lt;br&gt;CoordClass" style="rounded=0;whiteSpace=wrap;html=1;" parent="WIyWlLk6GJQsqaUBKTNV-1" vertex="1">
          <mxGeometry x="70" y="272.5" width="70" height="25" as="geometry" />
        </mxCell>
        <mxCell id="pApWtMFqq5sFdujX7QiP-38" value="" style="rounded=0;whiteSpace=wrap;html=1;" parent="WIyWlLk6GJQsqaUBKTNV-1" vertex="1">
          <mxGeometry x="-500" y="250" width="520" height="60" as="geometry" />
        </mxCell>
        <mxCell id="pApWtMFqq5sFdujX7QiP-39" value="" style="rounded=0;whiteSpace=wrap;html=1;" parent="WIyWlLk6GJQsqaUBKTNV-1" vertex="1">
          <mxGeometry x="-490" y="260" width="40" height="40" as="geometry" />
        </mxCell>
        <mxCell id="pApWtMFqq5sFdujX7QiP-40" value="" style="rounded=0;whiteSpace=wrap;html=1;" parent="WIyWlLk6GJQsqaUBKTNV-1" vertex="1">
          <mxGeometry x="-450" y="260" width="40" height="40" as="geometry" />
        </mxCell>
        <mxCell id="pApWtMFqq5sFdujX7QiP-41" value="" style="rounded=0;whiteSpace=wrap;html=1;" parent="WIyWlLk6GJQsqaUBKTNV-1" vertex="1">
          <mxGeometry x="-410" y="260" width="40" height="40" as="geometry" />
        </mxCell>
        <mxCell id="pApWtMFqq5sFdujX7QiP-42" value="" style="rounded=0;whiteSpace=wrap;html=1;" parent="WIyWlLk6GJQsqaUBKTNV-1" vertex="1">
          <mxGeometry x="-370" y="260" width="40" height="40" as="geometry" />
        </mxCell>
        <mxCell id="pApWtMFqq5sFdujX7QiP-43" value="x" style="text;html=1;strokeColor=none;fillColor=none;align=center;verticalAlign=middle;whiteSpace=wrap;rounded=0;" parent="WIyWlLk6GJQsqaUBKTNV-1" vertex="1">
          <mxGeometry x="-440" y="230" width="60" height="30" as="geometry" />
        </mxCell>
        <mxCell id="pApWtMFqq5sFdujX7QiP-44" value="" style="rounded=0;whiteSpace=wrap;html=1;" parent="WIyWlLk6GJQsqaUBKTNV-1" vertex="1">
          <mxGeometry x="-320" y="260" width="40" height="40" as="geometry" />
        </mxCell>
        <mxCell id="pApWtMFqq5sFdujX7QiP-45" value="" style="rounded=0;whiteSpace=wrap;html=1;" parent="WIyWlLk6GJQsqaUBKTNV-1" vertex="1">
          <mxGeometry x="-280" y="260" width="40" height="40" as="geometry" />
        </mxCell>
        <mxCell id="pApWtMFqq5sFdujX7QiP-46" value="" style="rounded=0;whiteSpace=wrap;html=1;" parent="WIyWlLk6GJQsqaUBKTNV-1" vertex="1">
          <mxGeometry x="-240" y="260" width="40" height="40" as="geometry" />
        </mxCell>
        <mxCell id="pApWtMFqq5sFdujX7QiP-47" value="" style="rounded=0;whiteSpace=wrap;html=1;" parent="WIyWlLk6GJQsqaUBKTNV-1" vertex="1">
          <mxGeometry x="-200" y="260" width="40" height="40" as="geometry" />
        </mxCell>
        <mxCell id="pApWtMFqq5sFdujX7QiP-48" value="y" style="text;html=1;strokeColor=none;fillColor=none;align=center;verticalAlign=middle;whiteSpace=wrap;rounded=0;" parent="WIyWlLk6GJQsqaUBKTNV-1" vertex="1">
          <mxGeometry x="-270" y="230" width="60" height="30" as="geometry" />
        </mxCell>
        <mxCell id="pApWtMFqq5sFdujX7QiP-49" value="" style="rounded=0;whiteSpace=wrap;html=1;" parent="WIyWlLk6GJQsqaUBKTNV-1" vertex="1">
          <mxGeometry x="-150" y="260" width="40" height="40" as="geometry" />
        </mxCell>
        <mxCell id="pApWtMFqq5sFdujX7QiP-50" value="" style="rounded=0;whiteSpace=wrap;html=1;" parent="WIyWlLk6GJQsqaUBKTNV-1" vertex="1">
          <mxGeometry x="-110" y="260" width="40" height="40" as="geometry" />
        </mxCell>
        <mxCell id="pApWtMFqq5sFdujX7QiP-51" value="" style="rounded=0;whiteSpace=wrap;html=1;" parent="WIyWlLk6GJQsqaUBKTNV-1" vertex="1">
          <mxGeometry x="-70" y="260" width="40" height="40" as="geometry" />
        </mxCell>
        <mxCell id="pApWtMFqq5sFdujX7QiP-52" value="" style="rounded=0;whiteSpace=wrap;html=1;" parent="WIyWlLk6GJQsqaUBKTNV-1" vertex="1">
          <mxGeometry x="-30" y="260" width="40" height="40" as="geometry" />
        </mxCell>
        <mxCell id="pApWtMFqq5sFdujX7QiP-53" value="z" style="text;html=1;strokeColor=none;fillColor=none;align=center;verticalAlign=middle;whiteSpace=wrap;rounded=0;" parent="WIyWlLk6GJQsqaUBKTNV-1" vertex="1">
          <mxGeometry x="-100" y="230" width="60" height="30" as="geometry" />
        </mxCell>
        <mxCell id="pApWtMFqq5sFdujX7QiP-54" value="" style="endArrow=classic;html=1;rounded=0;exitX=1;exitY=0.5;exitDx=0;exitDy=0;" parent="WIyWlLk6GJQsqaUBKTNV-1" source="pApWtMFqq5sFdujX7QiP-38" target="pApWtMFqq5sFdujX7QiP-37" edge="1">
          <mxGeometry width="50" height="50" relative="1" as="geometry">
            <mxPoint x="320" y="400" as="sourcePoint" />
            <mxPoint x="265" y="397" as="targetPoint" />
          </mxGeometry>
        </mxCell>
        <mxCell id="pApWtMFqq5sFdujX7QiP-55" value="0x3C21AB34" style="text;html=1;strokeColor=none;fillColor=none;align=center;verticalAlign=middle;whiteSpace=wrap;rounded=0;" parent="WIyWlLk6GJQsqaUBKTNV-1" vertex="1">
          <mxGeometry x="-583" y="210" width="170" height="40" as="geometry" />
        </mxCell>
        <mxCell id="pApWtMFqq5sFdujX7QiP-56" value="F" style="rounded=0;whiteSpace=wrap;html=1;" parent="WIyWlLk6GJQsqaUBKTNV-1" vertex="1">
          <mxGeometry x="-423" y="50" width="20" height="30" as="geometry" />
        </mxCell>
        <mxCell id="pApWtMFqq5sFdujX7QiP-57" value="15 = 2^3 + 2^2 + 2^1 + 2^0" style="text;html=1;strokeColor=none;fillColor=none;align=center;verticalAlign=middle;whiteSpace=wrap;rounded=0;" parent="WIyWlLk6GJQsqaUBKTNV-1" vertex="1">
          <mxGeometry x="-370" y="60" width="170" height="30" as="geometry" />
        </mxCell>
        <mxCell id="pApWtMFqq5sFdujX7QiP-58" value="1" style="rounded=0;whiteSpace=wrap;html=1;" parent="WIyWlLk6GJQsqaUBKTNV-1" vertex="1">
          <mxGeometry x="-230" y="90" width="20" height="30" as="geometry" />
        </mxCell>
        <mxCell id="pApWtMFqq5sFdujX7QiP-59" value="1" style="rounded=0;whiteSpace=wrap;html=1;" parent="WIyWlLk6GJQsqaUBKTNV-1" vertex="1">
          <mxGeometry x="-250" y="90" width="20" height="30" as="geometry" />
        </mxCell>
        <mxCell id="pApWtMFqq5sFdujX7QiP-60" value="1" style="rounded=0;whiteSpace=wrap;html=1;" parent="WIyWlLk6GJQsqaUBKTNV-1" vertex="1">
          <mxGeometry x="-270" y="90" width="20" height="30" as="geometry" />
        </mxCell>
        <mxCell id="pApWtMFqq5sFdujX7QiP-61" value="1" style="rounded=0;whiteSpace=wrap;html=1;" parent="WIyWlLk6GJQsqaUBKTNV-1" vertex="1">
          <mxGeometry x="-290" y="90" width="20" height="30" as="geometry" />
        </mxCell>
        <mxCell id="pApWtMFqq5sFdujX7QiP-63" value="" style="shape=image;verticalLabelPosition=bottom;labelBackgroundColor=default;verticalAlign=top;aspect=fixed;imageAspect=0;image=data:image/png,iVBORw0KGgoAAAANSUhEUgAAAccAAAAdCAYAAADfLqdPAAAaZElEQVR4Ae1d+VtT19a+f8mBEEaZ5yHMYxKSgCiIA0iVgmDqULU4g0PFgoiUISrzJCoIUSkqKjJIgLb3eq+3tf2e9n95v2efITlTQlLFwnPPD3kynH322XvtdfZ71lrvWvkHRVFQXooMFB1QdEDRAUUHFB1w6MA/FGE4hKHIQpGFogOKDig6oOgA0QEFHBXLWfEcKDqg6ICiA4oOiHRAAUeRQJSnRuWpUdEBRQcUHdhsOuCHXR2zWJlqQLzsnh2Gk/eXMNu1G4Gyxz2fjwKOn0iQys3kufIpMlNkpuiAogPu6IDfri68eTeLlixv5xZu7g28eG/DQFmg8zYe7Peeg6O/BqFt7chbmoRpzQrD6zvQXMyFtwcXdUcYn79NEALrm5C9MEHPy7jUh9SWvfD1cq68gW19MD2/gCAXbT7/PJyP9395LKrEr1DU9gq1wzaYR5ZQ3TEEbZa/i5voLPYN21BW7eWijSLrraZTXlF6RPbcge7tFExrU8h/3ob4I4nw2ur7lyoUgRe+RdbcOIxrVhgX+5HWVg5ftXMd9W++C9NsPbZt+rnn4saL97ANlK1rFe7pXsYv8xbs9Hc+b3d11jNw9Dch7ukEDNOXEabfBooKQuC176Ffm0ROe+GWAciI0SmY7h3ibXpxiBi+B8ObNkTviYA35Qs/8xXkrFihv3fIKUAq4PjxCuiuorrdTtuFL4dfYIfeAWoqQwcODi3h4KWvERFIgQrcAcOtBZhJO5MzgFTA0W2Zb/rNldFTr5QD0Mw+gu7BKQSn+YFSxyOk8y7yV8eQ1pC+RQAyEmEDo8h/cBh+nNxV8QjrHYJhrg0xBxPgTanhW3sRWW+noL9vhr8TgNwq4Oj31Rh+/vAat3JcWI2cLKIv4sn7d5iqi+bt739tn/IIHANbe2FcuI4wssFwg6F8EdTWC+NaN+KMjg3JcZzfdnN8FoOjzzfN0K/cQaxo/OozLdCvPUTyCfkNVAHHzbGeAl2TgGMxtt9eRs31Y1DZdZYCpd6DotvLMFvaEClr+SvgKJArX3Zb8nMkwvqGYXh6BkF8sCDA0j8M43wLIpI3oT5LZC0FR59jjdC+7UZcqQ9vX/aG+sR1aFfHkHI6lve7Y45bAxyjcfHJe/x35ioSJbJwzMWhq0z73162IMWt9nJ9ML+5D47+FUhetCL7ZpZU0Owx7e2d0mMfOUDHpJ1PwtM2QnDMQOyTKeQPHpCxfJljxvEjUMtsoAo4fro18XQNnbYXgaOqYhS1I89QmC59cGOOvUZxkfQYRSng6FTGm/CeXm+sXtqvkbEsDxTMsXFkfJuxBfYvETiq0hA9OQH9SBXU4nVhjxkmj8NffIyisCXAMboB07/8jpctKW6vTXTDNH75/SVaUtbbn7ajc/43/PnnAixZ0rbug+ORRuSv9SO+VG4jiUDU+BRMj47Jgsh6ivu5jwvAMfskMlcnkXpO3joMvjMC09xVhHhLhaeAo1Qmn3stJdcTgWNG4wLMdy2Ik3m4ocK/RcWwDRVH42RuPAUcJbKV2WC3Shu/Kx0wLLYhMltGZwOMiH9mhbZ3r9C7sCnnKwLHrKPIWH6AtPpkGR32Q1B7H0xz1xASKp33VgBHv5MT+M8fNgyUyu/Psvpn/B5zv/2CmauJMjLhy+ETgWNAay9MKy2IkAEJ2QFSFNQ1dUidvg/DmhWmtUfQTzcjqoTEKvkDJJ99EXDhGjJnH9LBZNPKQ+SNX0Botp9M22qkrlqR216IoFYLdIQY5IwUE6JD5GA39MvM9bVsnwJwPNUM41of4nbKgb54nMLv64MjiV0SGdxD/goZgxXGpSGkt5fDL0DYFx2/refJYG0S+W965ElBhBTVctNOHqJlO/spiFEapNaN4+DAEswjDHGl5q4VxQeN0k0jpgaFLc9QM0Ta2XB44Dn2mnfCV7K2FFSZ9Sjt4Mgwy6jtsWLHvkxpnxSF3Bs2GswSjB34om8R5hFh/NChO34I3duF/d2kjQ3mgRfM9QXgWIjtt20wN5+W0SOx/MXf3QDHwB3QXZtGFV9eljHotCGS66nzLvFkQMb7BpUtbUiNFV+XzOsWyiwLOEyvAZHtSxy41oAoX3Hbv/e7f/kMitomEFPQgezW/6C45wNKut+j8Np9xKQES2TgFV6NuFOvUGD5FSU9H1DcZUPuscsI8uPmkYOYi++w81KL3dIJOWJDSfdrJMSzbbTDKOhZQnKWJ4zEcIT2jcD04iKCZPTToVPcOMh7IALONCD9BbsnrY5D+6geYbkye5IqEsFNLchmyTAm2xiyB49jWyLfzcmNvw5Zaw+Q1lCAsJ5e6N9OCeOHvPEJyEOrj6CbJNdPEMQcfY40Qrs6gPi9/LG793l9cFTDt7oOKdPDjv3r7TAyOiuk+xeJ3zbzZLD6CPqXFmgumeDDmxORNZlXhKUDuSyp07Q6Dt2MPDGqxLKI3//9GOdi3JsTs5YnMPH+T/w4VoVg0bXl11q+b7ctx9C+B85BSGYATLzuPtIbTfAhzKGQdIS1dUG/0of4Mr6CsTHLlT4kfZ1Bb5he0UZEDg/BuHATEali0GLB8fEdaAkxqIAQaOQml4+4HyZhfHkdEfkEkAlQNSD7VQtSJhyEHL/vbsO01ooIlVwfrn9bDxzpWOYakUER1PSTmy98dp9E+qIV+v4KwbjpeC5PBgQs/Y+dR+a8lXGZ2C2fCIQPj8G00M6ShyhQ/uEIqm9G3sokctoMkk3JPYXQIPfGAsz9UzAWJDIgF5iIxOOTqBlZRuW5Eke/MWexr9+GmltNiA8jaxmM8P1d+KJ/GZUXhE/fKkMXKoeXUXmFJcOooxB3+D6qhhdQVi192mXAcRoHep+huMKIACeAEHDwPmpGFvDF6UqmDSHZtL7GweZxHiHnKHYP2PDlBd7YZXVFbp3XA0cmlmm+3Y/MzCgG6APzkHn1BczDP6CA78bVdghlQB4cU4+jqJ3I+wFyIhzX5+a1/+vd7Nz94J9/CXu7l2G+3SlvAbucUza+uWvF9PS0y9e9xr0esxZpcOz8EQWdPyGv5jj8/VWgfA2IPrWMnR1PEROjcuhM8FGkNP8XO5oeIDZbAy8qEH75Xcj5/hcUfHMevuxDd8ixVZQ09yGYXncdYuv/jZKeH5G+nYmb+e/7AUWdTxET6ZDZ+vqtQdTEhFMQkp4fiKBmC/Jt/Uiqy4JKTcErwYTI3l7kz99ClJ4HevaYZTtiaTKMN7yz9yBuYgyGmXoEi8epJeD4EDmPe5FLiEHZwfJEoAAtYibHYZhtRuRO0oYh2WS+6ETKhIOQ49IidqkX67tV6VjmyhjSm0vgF07mrIZ6z1Gkzk1BN1TJc+My8VzjPCcDEtOPRlD9NeS8fYTs9p2OB2FuXs+vIdzAzN0rOBkhNzugWxlD2gXhnnBi4j3+/HEMVcGerDdjEf778TnErCMD6do7ruM2ONLWljMLTTwA/3Jo5q3QdpcKAIAAVNjAA5heXUYwt9nrTyJzZRIZVxMcNxLdn7N4HwOOpqWbiIgXA6djYj4N38Mo4wZWX2hFPrFkWbYqDXAbAo7JiLHKu5ppV+3SdYTZrfASJL62IrezUCQDCj6X22Fau4PYPHausUeQvmpF2kWpm0Har0MerpSAHOPib7tKxP36IfXqHMwDI8ig18wPGY3zMPf2I0UEXFwfjhieDqaOZZjbGiVPcBF1MzAPT0HPAwYyDhocRxZRVi1PImDmUYHiHhtqW84Lqd3qPdhxh1iynLXJANyGgGPZCGpH3mBXiUgHWVftgW9y7GuZfGUO5rt3kMDpPHe/SNrGQN9mg7m1wbGZcG139qF6ZBG7y0XX447/De80OPb8CuPxI0LrILEFuZZfoftSx8rAFyHmJRRbniMungeYRO8MwzDeXUWaMYpuy1mjkeRhUmVGausCci/9BF11Pn08uHYRxXbwdFe/0xH7xOo2OHrlHkX623FkXs8VApdMDE9VfQW5K8PQmEPt603raOQeJL2cQl73HuFa0uBohfFZPYJlXJ2MflOgjQtbHxIq+Z42b6hPNUG35pgLbf05cxevoxOuLUfmgcJgPYEAQT+sq3a+GeGcNZ9ag7TFh0i/lCaUASVt6737InLWhpF4gPeAQfcfj4ixBzBOnxHc0zQ4LliQJRjDeuvOuks9Pk/Y78aAI+2qdMJerbwM7dookqqYm5x21y41iRiwzCAZYOhEtAAEGXA0jlSJFoI/MTYG+uQb+Ik3JKocmsXPAY788Qg/SwGZAUd5UpDwXIoFR1lilEcKJOw3u/mtC+Ymv20d9g7bcPA0s1lxNzPzXomSXhsOXWHXJodYTIvYUxEgXSsn8T4aHIcfIEeybrwxuACK0JPTnwccncpaCsg0OA7cQ5bdfcibi6AfFhydMmidnff3/M6Ao5yLsxoprR/sgEZRZUhq+gWFdWd41gY3ZuZYwalTzDHabfoGiQkUqNQO6JpGEVv7Gib63HBEnPoJRRe+daQxCOTH9Sl+9wwciTfJGXvV93wr8t9aEGMi12DctcYfzgkZsPSYnMT7aHCcQm57gfSesM9FHijoeyysBImznwMcxTJ0fJcAMg2OxGtlEj5M2OfjOJcBR3lilHAvYc7ZEuBIWyVuWo705i+wjBzCoSgG3LKamacM2iKVBTEKVMk55Kw+RPIxfn4L61Ztd+U+NCH++ZSsJUZRLHCyliMDwBvjVhUudhDUeVqE1DfQrlKxKzewsQv6tUfIHTqNsHIN44qWUS4y/tCeIRhX7iHjthkhO2OFT6ay5/DlL/e5GEXE4nInNkfH9JxbMDS4dd5EGBlH1UOYR35AgSxFnrlm7fVjgk2Ccas6IdCwc1PVjMM8MgGtHNjQwMlZjgxYb4jlKJKzKiwNYaZjKGh+RcdABdfUNuGLfhsO3x1DYXkZQmhXtNw6UAgoG0LV8DIOfd8D3a4iBAnSpuTPEerZ52vDgCMLZAJ5iMAxthE5nXyw5I9Rg6iz/0RJo4WxUOKbkNtlQ6o+HKrtD2EgQJg/ioLrdxDozbhZDV+VizxS/P7kPjNgI8gNFIyXfw5DeBFbMHYZ0+B2D8kniaXLgK5u6KAM6FPwOf4ddLYexBXz+qfPd0agYdupshE3bUXe7Z0yYCOcCw3WG2I58sZMZKUKhDo7F8Hn6pExPwWT4JqRCLX00vmimXePImRnHO2KtsuML+uAbETdH4PxbT9SW7/ENr2zsBhzfRocl+5Cb/eyicbF79v+mbEcf//IdA63LUfawnPT/eg6FicENwE5xj45VgA0OFqRes5TcBReQ7xIgmvSVq4zFq7rhXA9TwpeWfsQO3ibqSa08hC6uUFkjTVCMzEqG+f01pUi2tLOEm0eQT97Bynt1QiUuF9I7LIK8fy+pzuQ2FgsDZSLZSr7nQEqwYYu244CJSC8SOUjADcaHMeRJ2sFsoDcct5jcIw9/wLmESf9CsbHEnJE1xDrg/z39WKOwYg53IP9LHHm8MAbHLJYsffSOA4Oy8Q5A/OQcpzf/iUONHUhV4a8oworRc75MRygyUbLqO17jopLTdAkiV3eUvlL57LBMcceN8CRBrwPNAmHEHFkXxw4UgRY3yF7bzqIC1VXUwQvAq43JhEV5jgmnacrWbCEHLeqwYjYoOL7QABuDDjmyYRDyPhocFwbQkI5b2yC83m/868TV4HkOSvk+xWOjybkiK/B78vFZ9duVQpeKaWI6bcwxBlCmiH71/1GaB4OicCRzEMNdclBxPLbz7Qj6bt90j1JFQi/qqNIHOthKhXZHiDvcQvizxqg5uegUhRqRn/GH++mUBftRFay86vB6M9/4N1UHaJlj7vXl9vgSNHu0EEklMnHPPiW5WaxHHXdpYKNl7mhhJYj56aUi+HRCk7H/OQtS5fgGFuJlHkrr5qQY0Ho89Z50PCKTsK20+eR+nwCJllikqM/7yQtQq5dQ9bcJIwzF7BNwoR1tJXfVLai5fgY+aJ4JT03geVIwWm8j75pXFmWrsEx9uxzmIffoNxOnOFkLHWrSmSujkKI6QyKWmZxeESemGQ/JzARMbu+Q2nnm3Uq+nDX/3zvn8ZyFI+XsQ511bWIufgWGTsIF6ESyTeXkFx0Azmdcm5ccR/S77SFtdSOqDzpMYriW2Obx3KUTy3hj5W4np3F+5h5urIsXYJj3H5oXk3CMHPVTpzhdFLiVpUAkDe8E7MQcuUKMuZIHzLEJPs5avhkFyC8tQU5i5OSij7pTS/w6x/z6MiQWzcnv9G5kX9gvuPj8lbdB0c2Vief6J+PuGdTyO+vYMDoM8Qcc126VV3EHNmCBRwhh6IY4ox8or8vIkYnYXLi9nUFjoy7Vj7uGtQ+ILQcZS1kduHZGGNOm5aR7ZkWmGSIRrTi0g8wk0g5zbe0nSiQXTmZ43TM0Uk+YMARK8+N+Rlijk7Gwd2clIuYI030sRNyKFA0ccZJor9LF7ErcGRAtfa7E1KXtroeZQLLUd5CZubCxhhvdyKGtq5dAStzTbdc36K1tcvtE//uNjiyMUfj8VqpvGTGRBirhXV9SL/JpXAQ16sN2eZB6L73lKnK6j+dD+gk0Z+21CaRfVNP32MbH3Ncx63KgrWsa5cm+jhijhTFEmdkE/1dA70rcKRB1daLuD1i4ow3Alq7BZajrIXMrisTY3yAtPNMzqErYKWvKU5L2d6J+d88LAdXM4qf3cqN/ER5juQG8yeB6qU2RIrSK5i0jWEkVbEpGp+BreoaHCk4ZatebmdyKXm1Vb2ONEK31o8EQYoJBa+955Ejy6Rlbrj1wVFMJiJpFyVIfElyHvnW6A4kvLTKV+nxr6XzOrkYLRVrRrrNSaWivReRS8rdCWK07oEjxzSVslV1KOiywdzRzMQRqc/AVl0PHClnbNVKlPTw2apk7gxjtra1QZSqwKauyLBuGTBZHxztxCPeBr/tiJXOT+S7qJMaXsMsS8jxg/amDWYuRkvFQHfLGTFqD3bctUEco90o4HOnX/fBkWWrtk0iKlLIVqWCzyKj/VfkHy6zxxFJv4Ut8zB8N4pQNuYa9OVrGK7PY7vHTFVO/0MRcmcQhueXESJIr2DTNt52IaaQAYKNZ6uuB47O2aoEQPQ8tipZJ5oxa+tH4iEhY9a7tA6ZcqxbVl/XBUc78YiTIQVqWyHiZ0Qxx+RqpC7IE3K8TGeQvcbFaCl4l55DtpOSdupTzdIYLbUH3cu/e5SzuL/fhv+zDaB03eLjnxAcKSofsU8nYJy5ai887n+MFOiWFh7f8DxHl5YjWcwMxFjFeY5XkLN8B1lPHXmOzCYQgfDBURjtuYMkpvc10kmO4V8tPJ58lAYx/fgJNmYYBHW5GcnPHyJnph+mtTZE8sgWnLwy27+AP5cTaapA/CTJaeTne3J5oUNIIQm2tAIwfafM/lW3KpEXl+f4FDsqtHSeoyrMgNzGV1J33obnObom5NAbQtmINM/x1gJqOqdRJSo8TmnbcHCIl2tJ8hGvkHzEv1p43A/JV17T5+9iixkQWWWef4xDfS9Q2WtD1cW9Dpc+J68OCzLTmAIBTPsn9Bz4+Z5cXmh182U2h5SCOnofdITo43K8vA2MB9bugNxfbeM+OFKguDzHxgFExIbAi/KFT/xXSLz0TxTfGheCJs1Y/SBgpXoRUk6P8DePxx1XjqTZR9CP17GFx6MRdLkFWpJfJyg8vtF5juuDI6VKRdS4NM8xa34IWaSoCL/wOBVJk/QM9jxDko94BCmvpG5KvsxcgaNXZg1SF6agH/+GKWagCoTvPjOSpu8hb2YA+QIXNSevQaQ0FsOXhHXY9pqZcaFblcsLXbyDhK+ZHFJKHQZ/8xlkzMuPN/fmS3z4+QHMYe7o+H70237Hcu8ueyEJ/pzlPp+YeP6R5eO4G85fg3ALSzIhf1m10IOUS3pZd8nGVshxxVZlheifzauQw4xVcyIeAkIONy8qCNsaHVVnnFeycSyQK8uRLIKXqRbJ9gpBTMWbFPL3XuRJa94qKaoglBdTTSer9wS2iSx1SUUhdh1S2ysR4HG80TEfSp2BdH6FnOFF53/ttMEVcmTLvdnXihnztlJehRwy1rabSDBK/5WDrIUqsQ7F9io9S6hxUsnGcfO4shzJ9TVIPT+FqoFlpkLP0AKq2ixIi/VH/Pnn9G+Cv7sSycvMytawXeMAUXZ+wopCNpiHFlDZYkG2y7/Y4q2jSE6OOX3aNh6BI7kfwqsRf2YBhVyFnNs/Iv9sJ0JDRdYkS+DREzIONxc6d/IDPGeqCufsFWVE9CBLBCF/WfWqEwnHU+1Wq0NWG1whR7bcm3Cs1LZcRPD+Xssw3wPNuQJBhRz7eFWhCLraZK/SY3RWyYaTpxu1Vb0LDyHp8SgMq8TTNYX8uW4kXzXBJ+UAkl9Nif7uSiSvtSkY5vuQ1lmNQIGlToBTVFGIXgcLNI2l8n+xFV2HiX/9B9MN8ZJ7xT5/dl7RF5/g/ftpNHA5mLz5itvS34OrMLj4TLYOqwcxR9HCrXdR5fi6Cym7WIrcFLkpOqDogKIDAh3IvfEC720DKON52yT7p18F+m3vMddR5KbVaMSt2VU8ay0RFB7g+lXAUVFCuxL6+/sjKCjI/p1TEvIeGRkJlUr0hE8sMpWKPsZvq3xWHiQ3qw4oOr5VdZP84fG/8MayWxbIiL5tb5/DuzcW7HYFoB7s9wo4eiCszXrDf4pxaTQaDA4O0q/MzEwBQB44cACjo6Po6OiAn5+jLq6Pjw9u3bpFHzt+/LjgnE8xJqWPrbqRbc5xKzq+OdfF7fs8WAN9doywVKF9//ZDTJYWySGeM/WdXV8BR7twt7jifOQ8KisraZAjIFhbWysAuhs3btiP8YEzPj7e/ntvb6/gHGcKp/z+v61nf+f6Kzqu6J4n+qeA40eCiifC3sxtiduUWIHkFRsrLPptMplAwO/ChQsS1+qZM2foY7t371bAUdGlTa0Dio4r4OjJHqyAo7KhbeoNzRNlVtoqm5+iA4oOfCodUMBRAUcFHBUdUHRA0QFFB0Q6oICjSCCf6qlD6Ud5glV0QNEBRQe2rg78P7vBLFN9zGlfAAAAAElFTkSuQmCC;" parent="WIyWlLk6GJQsqaUBKTNV-1" vertex="1">
          <mxGeometry x="-440" y="381" width="455" height="29" as="geometry" />
        </mxCell>
        <mxCell id="pApWtMFqq5sFdujX7QiP-64" value="RAM" style="text;html=1;strokeColor=none;fillColor=none;align=center;verticalAlign=middle;whiteSpace=wrap;rounded=0;" parent="WIyWlLk6GJQsqaUBKTNV-1" vertex="1">
          <mxGeometry x="50" y="10" width="60" height="30" as="geometry" />
        </mxCell>
        <mxCell id="pApWtMFqq5sFdujX7QiP-65" value="철수" style="shape=umlActor;verticalLabelPosition=bottom;verticalAlign=top;html=1;outlineConnect=0;" parent="WIyWlLk6GJQsqaUBKTNV-1" vertex="1">
          <mxGeometry x="-453" y="740" width="30" height="60" as="geometry" />
        </mxCell>
        <mxCell id="pApWtMFqq5sFdujX7QiP-66" value="나이&lt;br&gt;성별&lt;br&gt;자격증리스트&lt;br&gt;&lt;br&gt;숨쉬기&lt;br&gt;달리기&lt;br&gt;주차권 구매하기" style="rounded=0;whiteSpace=wrap;html=1;" parent="WIyWlLk6GJQsqaUBKTNV-1" vertex="1">
          <mxGeometry x="-520" y="830" width="125.5" height="160" as="geometry" />
        </mxCell>
        <mxCell id="pApWtMFqq5sFdujX7QiP-67" value="영희" style="shape=umlActor;verticalLabelPosition=bottom;verticalAlign=top;html=1;outlineConnect=0;" parent="WIyWlLk6GJQsqaUBKTNV-1" vertex="1">
          <mxGeometry x="-370" y="740" width="30" height="60" as="geometry" />
        </mxCell>
        <mxCell id="pApWtMFqq5sFdujX7QiP-68" value="나이&lt;br&gt;성별&lt;br&gt;&lt;br&gt;&lt;br&gt;숨쉬기&lt;br&gt;달리기&lt;br&gt;피아노치기" style="rounded=0;whiteSpace=wrap;html=1;" parent="WIyWlLk6GJQsqaUBKTNV-1" vertex="1">
          <mxGeometry x="-375.5" y="830" width="125.5" height="160" as="geometry" />
        </mxCell>
        <mxCell id="pApWtMFqq5sFdujX7QiP-70" style="edgeStyle=orthogonalEdgeStyle;rounded=0;orthogonalLoop=1;jettySize=auto;html=1;" parent="WIyWlLk6GJQsqaUBKTNV-1" source="pApWtMFqq5sFdujX7QiP-69" edge="1">
          <mxGeometry relative="1" as="geometry">
            <mxPoint x="-200" y="650" as="targetPoint" />
          </mxGeometry>
        </mxCell>
        <mxCell id="pApWtMFqq5sFdujX7QiP-69" value="객체 선정" style="rounded=0;whiteSpace=wrap;html=1;" parent="WIyWlLk6GJQsqaUBKTNV-1" vertex="1">
          <mxGeometry x="-480" y="620" width="180" height="60" as="geometry" />
        </mxCell>
        <mxCell id="pApWtMFqq5sFdujX7QiP-83" style="edgeStyle=orthogonalEdgeStyle;rounded=0;orthogonalLoop=1;jettySize=auto;html=1;entryX=0;entryY=0.5;entryDx=0;entryDy=0;" parent="WIyWlLk6GJQsqaUBKTNV-1" source="pApWtMFqq5sFdujX7QiP-71" target="pApWtMFqq5sFdujX7QiP-82" edge="1">
          <mxGeometry relative="1" as="geometry" />
        </mxCell>
        <mxCell id="pApWtMFqq5sFdujX7QiP-71" value="추상화" style="rounded=0;whiteSpace=wrap;html=1;" parent="WIyWlLk6GJQsqaUBKTNV-1" vertex="1">
          <mxGeometry x="-200" y="620" width="180" height="60" as="geometry" />
        </mxCell>
        <mxCell id="pApWtMFqq5sFdujX7QiP-72" value="인간" style="shape=umlActor;verticalLabelPosition=bottom;verticalAlign=top;html=1;outlineConnect=0;" parent="WIyWlLk6GJQsqaUBKTNV-1" vertex="1">
          <mxGeometry x="-120" y="700" width="30" height="60" as="geometry" />
        </mxCell>
        <mxCell id="pApWtMFqq5sFdujX7QiP-73" value="나이&lt;br&gt;성별&lt;br&gt;&lt;br&gt;숨쉬기&lt;br&gt;달리기" style="rounded=0;whiteSpace=wrap;html=1;" parent="WIyWlLk6GJQsqaUBKTNV-1" vertex="1">
          <mxGeometry x="-137.75" y="790" width="67.75" height="90" as="geometry" />
        </mxCell>
        <mxCell id="pApWtMFqq5sFdujX7QiP-74" value="철수" style="shape=umlActor;verticalLabelPosition=bottom;verticalAlign=top;html=1;outlineConnect=0;" parent="WIyWlLk6GJQsqaUBKTNV-1" vertex="1">
          <mxGeometry x="-175.5" y="910" width="30" height="60" as="geometry" />
        </mxCell>
        <mxCell id="pApWtMFqq5sFdujX7QiP-75" value="자격증리스트&lt;br&gt;&lt;br&gt;주차권 구매하기" style="rounded=0;whiteSpace=wrap;html=1;" parent="WIyWlLk6GJQsqaUBKTNV-1" vertex="1">
          <mxGeometry x="-225.5" y="1000" width="125.5" height="60" as="geometry" />
        </mxCell>
        <mxCell id="pApWtMFqq5sFdujX7QiP-76" value="Extends" style="endArrow=block;endSize=16;endFill=0;html=1;rounded=0;exitX=0.5;exitY=0;exitDx=0;exitDy=0;exitPerimeter=0;entryX=0.25;entryY=0.1;entryDx=0;entryDy=0;entryPerimeter=0;" parent="WIyWlLk6GJQsqaUBKTNV-1" source="pApWtMFqq5sFdujX7QiP-74" target="pApWtMFqq5sFdujX7QiP-72" edge="1">
          <mxGeometry width="160" relative="1" as="geometry">
            <mxPoint x="-150" y="870" as="sourcePoint" />
            <mxPoint x="10" y="870" as="targetPoint" />
            <Array as="points">
              <mxPoint x="-160" y="730" />
            </Array>
          </mxGeometry>
        </mxCell>
        <mxCell id="pApWtMFqq5sFdujX7QiP-77" value="영희" style="shape=umlActor;verticalLabelPosition=bottom;verticalAlign=top;html=1;outlineConnect=0;" parent="WIyWlLk6GJQsqaUBKTNV-1" vertex="1">
          <mxGeometry x="-40" y="910" width="30" height="60" as="geometry" />
        </mxCell>
        <mxCell id="pApWtMFqq5sFdujX7QiP-78" value="피아노치기" style="rounded=0;whiteSpace=wrap;html=1;" parent="WIyWlLk6GJQsqaUBKTNV-1" vertex="1">
          <mxGeometry x="-90" y="1000" width="125.5" height="60" as="geometry" />
        </mxCell>
        <mxCell id="pApWtMFqq5sFdujX7QiP-79" value="Extends" style="endArrow=block;endSize=16;endFill=0;html=1;rounded=0;exitX=0.5;exitY=0;exitDx=0;exitDy=0;exitPerimeter=0;entryX=0.75;entryY=0.1;entryDx=0;entryDy=0;entryPerimeter=0;" parent="WIyWlLk6GJQsqaUBKTNV-1" source="pApWtMFqq5sFdujX7QiP-77" target="pApWtMFqq5sFdujX7QiP-72" edge="1">
          <mxGeometry width="160" relative="1" as="geometry">
            <mxPoint x="-150" y="920" as="sourcePoint" />
            <mxPoint x="-102" y="716" as="targetPoint" />
            <Array as="points">
              <mxPoint x="-30" y="740" />
            </Array>
          </mxGeometry>
        </mxCell>
        <mxCell id="pApWtMFqq5sFdujX7QiP-80" value="부모, 기반, 상위" style="text;html=1;strokeColor=none;fillColor=none;align=center;verticalAlign=middle;whiteSpace=wrap;rounded=0;" parent="WIyWlLk6GJQsqaUBKTNV-1" vertex="1">
          <mxGeometry x="-20" y="700" width="90" height="50" as="geometry" />
        </mxCell>
        <mxCell id="pApWtMFqq5sFdujX7QiP-81" value="자식, 하위" style="text;html=1;strokeColor=none;fillColor=none;align=center;verticalAlign=middle;whiteSpace=wrap;rounded=0;" parent="WIyWlLk6GJQsqaUBKTNV-1" vertex="1">
          <mxGeometry x="10" y="920" width="90" height="50" as="geometry" />
        </mxCell>
        <mxCell id="pApWtMFqq5sFdujX7QiP-104" style="edgeStyle=orthogonalEdgeStyle;rounded=0;orthogonalLoop=1;jettySize=auto;html=1;entryX=0;entryY=0.5;entryDx=0;entryDy=0;" parent="WIyWlLk6GJQsqaUBKTNV-1" source="pApWtMFqq5sFdujX7QiP-82" target="pApWtMFqq5sFdujX7QiP-103" edge="1">
          <mxGeometry relative="1" as="geometry" />
        </mxCell>
        <mxCell id="pApWtMFqq5sFdujX7QiP-82" value="클래스화" style="rounded=0;whiteSpace=wrap;html=1;" parent="WIyWlLk6GJQsqaUBKTNV-1" vertex="1">
          <mxGeometry x="130" y="620" width="180" height="60" as="geometry" />
        </mxCell>
        <mxCell id="pApWtMFqq5sFdujX7QiP-84" value="인간" style="swimlane;fontStyle=1;align=center;verticalAlign=top;childLayout=stackLayout;horizontal=1;startSize=26;horizontalStack=0;resizeParent=1;resizeParentMax=0;resizeLast=0;collapsible=1;marginBottom=0;whiteSpace=wrap;html=1;" parent="WIyWlLk6GJQsqaUBKTNV-1" vertex="1">
          <mxGeometry x="140" y="704" width="160" height="138" as="geometry" />
        </mxCell>
        <mxCell id="pApWtMFqq5sFdujX7QiP-85" value="나이&lt;br&gt;" style="text;strokeColor=none;fillColor=none;align=left;verticalAlign=top;spacingLeft=4;spacingRight=4;overflow=hidden;rotatable=0;points=[[0,0.5],[1,0.5]];portConstraint=eastwest;whiteSpace=wrap;html=1;" parent="pApWtMFqq5sFdujX7QiP-84" vertex="1">
          <mxGeometry y="26" width="160" height="26" as="geometry" />
        </mxCell>
        <mxCell id="pApWtMFqq5sFdujX7QiP-88" value="성별" style="text;strokeColor=none;fillColor=none;align=left;verticalAlign=top;spacingLeft=4;spacingRight=4;overflow=hidden;rotatable=0;points=[[0,0.5],[1,0.5]];portConstraint=eastwest;whiteSpace=wrap;html=1;" parent="pApWtMFqq5sFdujX7QiP-84" vertex="1">
          <mxGeometry y="52" width="160" height="26" as="geometry" />
        </mxCell>
        <mxCell id="pApWtMFqq5sFdujX7QiP-86" value="" style="line;strokeWidth=1;fillColor=none;align=left;verticalAlign=middle;spacingTop=-1;spacingLeft=3;spacingRight=3;rotatable=0;labelPosition=right;points=[];portConstraint=eastwest;strokeColor=inherit;" parent="pApWtMFqq5sFdujX7QiP-84" vertex="1">
          <mxGeometry y="78" width="160" height="8" as="geometry" />
        </mxCell>
        <mxCell id="pApWtMFqq5sFdujX7QiP-87" value="숨쉬기" style="text;strokeColor=none;fillColor=none;align=left;verticalAlign=top;spacingLeft=4;spacingRight=4;overflow=hidden;rotatable=0;points=[[0,0.5],[1,0.5]];portConstraint=eastwest;whiteSpace=wrap;html=1;" parent="pApWtMFqq5sFdujX7QiP-84" vertex="1">
          <mxGeometry y="86" width="160" height="26" as="geometry" />
        </mxCell>
        <mxCell id="pApWtMFqq5sFdujX7QiP-89" value="달리기" style="text;strokeColor=none;fillColor=none;align=left;verticalAlign=top;spacingLeft=4;spacingRight=4;overflow=hidden;rotatable=0;points=[[0,0.5],[1,0.5]];portConstraint=eastwest;whiteSpace=wrap;html=1;" parent="pApWtMFqq5sFdujX7QiP-84" vertex="1">
          <mxGeometry y="112" width="160" height="26" as="geometry" />
        </mxCell>
        <mxCell id="pApWtMFqq5sFdujX7QiP-90" value="철수" style="swimlane;fontStyle=1;align=center;verticalAlign=top;childLayout=stackLayout;horizontal=1;startSize=26;horizontalStack=0;resizeParent=1;resizeParentMax=0;resizeLast=0;collapsible=1;marginBottom=0;whiteSpace=wrap;html=1;" parent="WIyWlLk6GJQsqaUBKTNV-1" vertex="1">
          <mxGeometry x="110" y="920" width="105" height="86" as="geometry" />
        </mxCell>
        <mxCell id="pApWtMFqq5sFdujX7QiP-92" value="자격증리스트" style="text;strokeColor=none;fillColor=none;align=left;verticalAlign=top;spacingLeft=4;spacingRight=4;overflow=hidden;rotatable=0;points=[[0,0.5],[1,0.5]];portConstraint=eastwest;whiteSpace=wrap;html=1;" parent="pApWtMFqq5sFdujX7QiP-90" vertex="1">
          <mxGeometry y="26" width="105" height="26" as="geometry" />
        </mxCell>
        <mxCell id="pApWtMFqq5sFdujX7QiP-93" value="" style="line;strokeWidth=1;fillColor=none;align=left;verticalAlign=middle;spacingTop=-1;spacingLeft=3;spacingRight=3;rotatable=0;labelPosition=right;points=[];portConstraint=eastwest;strokeColor=inherit;" parent="pApWtMFqq5sFdujX7QiP-90" vertex="1">
          <mxGeometry y="52" width="105" height="8" as="geometry" />
        </mxCell>
        <mxCell id="pApWtMFqq5sFdujX7QiP-96" value="주차권 구매하기" style="text;strokeColor=none;fillColor=none;align=left;verticalAlign=top;spacingLeft=4;spacingRight=4;overflow=hidden;rotatable=0;points=[[0,0.5],[1,0.5]];portConstraint=eastwest;whiteSpace=wrap;html=1;" parent="pApWtMFqq5sFdujX7QiP-90" vertex="1">
          <mxGeometry y="60" width="105" height="26" as="geometry" />
        </mxCell>
        <mxCell id="pApWtMFqq5sFdujX7QiP-97" value="" style="endArrow=block;endSize=16;endFill=0;html=1;rounded=0;exitX=0.5;exitY=0;exitDx=0;exitDy=0;" parent="WIyWlLk6GJQsqaUBKTNV-1" source="pApWtMFqq5sFdujX7QiP-90" target="pApWtMFqq5sFdujX7QiP-84" edge="1">
          <mxGeometry width="160" relative="1" as="geometry">
            <mxPoint x="-70" y="900" as="sourcePoint" />
            <mxPoint x="90" y="900" as="targetPoint" />
          </mxGeometry>
        </mxCell>
        <mxCell id="pApWtMFqq5sFdujX7QiP-98" value="영희" style="swimlane;fontStyle=1;align=center;verticalAlign=top;childLayout=stackLayout;horizontal=1;startSize=26;horizontalStack=0;resizeParent=1;resizeParentMax=0;resizeLast=0;collapsible=1;marginBottom=0;whiteSpace=wrap;html=1;" parent="WIyWlLk6GJQsqaUBKTNV-1" vertex="1">
          <mxGeometry x="255" y="920" width="105" height="60" as="geometry" />
        </mxCell>
        <mxCell id="pApWtMFqq5sFdujX7QiP-100" value="" style="line;strokeWidth=1;fillColor=none;align=left;verticalAlign=middle;spacingTop=-1;spacingLeft=3;spacingRight=3;rotatable=0;labelPosition=right;points=[];portConstraint=eastwest;strokeColor=inherit;" parent="pApWtMFqq5sFdujX7QiP-98" vertex="1">
          <mxGeometry y="26" width="105" height="8" as="geometry" />
        </mxCell>
        <mxCell id="pApWtMFqq5sFdujX7QiP-101" value="피아노치기" style="text;strokeColor=none;fillColor=none;align=left;verticalAlign=top;spacingLeft=4;spacingRight=4;overflow=hidden;rotatable=0;points=[[0,0.5],[1,0.5]];portConstraint=eastwest;whiteSpace=wrap;html=1;" parent="pApWtMFqq5sFdujX7QiP-98" vertex="1">
          <mxGeometry y="34" width="105" height="26" as="geometry" />
        </mxCell>
        <mxCell id="pApWtMFqq5sFdujX7QiP-102" value="" style="endArrow=block;endSize=16;endFill=0;html=1;rounded=0;exitX=0.5;exitY=0;exitDx=0;exitDy=0;" parent="WIyWlLk6GJQsqaUBKTNV-1" source="pApWtMFqq5sFdujX7QiP-98" target="pApWtMFqq5sFdujX7QiP-84" edge="1">
          <mxGeometry width="160" relative="1" as="geometry">
            <mxPoint x="173" y="930" as="sourcePoint" />
            <mxPoint x="203" y="852" as="targetPoint" />
          </mxGeometry>
        </mxCell>
        <mxCell id="pApWtMFqq5sFdujX7QiP-103" value="객체화" style="rounded=0;whiteSpace=wrap;html=1;" parent="WIyWlLk6GJQsqaUBKTNV-1" vertex="1">
          <mxGeometry x="410" y="620" width="180" height="60" as="geometry" />
        </mxCell>
        <mxCell id="pApWtMFqq5sFdujX7QiP-106" value="" style="rounded=0;whiteSpace=wrap;html=1;" parent="WIyWlLk6GJQsqaUBKTNV-1" vertex="1">
          <mxGeometry x="415" y="704" width="170" height="150" as="geometry" />
        </mxCell>
        <mxCell id="pApWtMFqq5sFdujX7QiP-107" value="HEAP" style="text;html=1;strokeColor=none;fillColor=none;align=center;verticalAlign=middle;whiteSpace=wrap;rounded=0;" parent="WIyWlLk6GJQsqaUBKTNV-1" vertex="1">
          <mxGeometry x="470" y="700" width="60" height="30" as="geometry" />
        </mxCell>
        <mxCell id="pApWtMFqq5sFdujX7QiP-108" value="obj&lt;br&gt;철수" style="rounded=0;whiteSpace=wrap;html=1;" parent="WIyWlLk6GJQsqaUBKTNV-1" vertex="1">
          <mxGeometry x="430" y="730" width="50" height="40" as="geometry" />
        </mxCell>
        <mxCell id="pApWtMFqq5sFdujX7QiP-109" value="obj&lt;br&gt;영희" style="rounded=0;whiteSpace=wrap;html=1;" parent="WIyWlLk6GJQsqaUBKTNV-1" vertex="1">
          <mxGeometry x="485" y="730" width="50" height="40" as="geometry" />
        </mxCell>
        <mxCell id="pApWtMFqq5sFdujX7QiP-110" value="new 철수();&lt;br&gt;new 영희();" style="rounded=0;whiteSpace=wrap;html=1;" parent="WIyWlLk6GJQsqaUBKTNV-1" vertex="1">
          <mxGeometry x="420" y="880" width="170" height="80" as="geometry" />
        </mxCell>
        <mxCell id="pApWtMFqq5sFdujX7QiP-111" value="&amp;lt;&amp;lt;abstract&amp;gt;&amp;gt;&lt;br&gt;Character" style="swimlane;fontStyle=1;align=center;verticalAlign=top;childLayout=stackLayout;horizontal=1;startSize=40;horizontalStack=0;resizeParent=1;resizeParentMax=0;resizeLast=0;collapsible=1;marginBottom=0;whiteSpace=wrap;html=1;" parent="WIyWlLk6GJQsqaUBKTNV-1" vertex="1">
          <mxGeometry x="-310" y="1520" width="160" height="152" as="geometry" />
        </mxCell>
        <mxCell id="pApWtMFqq5sFdujX7QiP-141" value="-exp" style="text;strokeColor=none;fillColor=none;align=left;verticalAlign=top;spacingLeft=4;spacingRight=4;overflow=hidden;rotatable=0;points=[[0,0.5],[1,0.5]];portConstraint=eastwest;whiteSpace=wrap;html=1;" parent="pApWtMFqq5sFdujX7QiP-111" vertex="1">
          <mxGeometry y="40" width="160" height="26" as="geometry" />
        </mxCell>
        <mxCell id="pApWtMFqq5sFdujX7QiP-113" value="" style="line;strokeWidth=1;fillColor=none;align=left;verticalAlign=middle;spacingTop=-1;spacingLeft=3;spacingRight=3;rotatable=0;labelPosition=right;points=[];portConstraint=eastwest;strokeColor=inherit;" parent="pApWtMFqq5sFdujX7QiP-111" vertex="1">
          <mxGeometry y="66" width="160" height="8" as="geometry" />
        </mxCell>
        <mxCell id="pApWtMFqq5sFdujX7QiP-166" value="+ GetExp()" style="text;strokeColor=none;fillColor=none;align=left;verticalAlign=top;spacingLeft=4;spacingRight=4;overflow=hidden;rotatable=0;points=[[0,0.5],[1,0.5]];portConstraint=eastwest;whiteSpace=wrap;html=1;" parent="pApWtMFqq5sFdujX7QiP-111" vertex="1">
          <mxGeometry y="74" width="160" height="26" as="geometry" />
        </mxCell>
        <mxCell id="pApWtMFqq5sFdujX7QiP-167" value="+ SetExp()" style="text;strokeColor=none;fillColor=none;align=left;verticalAlign=top;spacingLeft=4;spacingRight=4;overflow=hidden;rotatable=0;points=[[0,0.5],[1,0.5]];portConstraint=eastwest;whiteSpace=wrap;html=1;" parent="pApWtMFqq5sFdujX7QiP-111" vertex="1">
          <mxGeometry y="100" width="160" height="26" as="geometry" />
        </mxCell>
        <mxCell id="pApWtMFqq5sFdujX7QiP-134" value="+ Jump()" style="text;strokeColor=none;fillColor=none;align=left;verticalAlign=top;spacingLeft=4;spacingRight=4;overflow=hidden;rotatable=0;points=[[0,0.5],[1,0.5]];portConstraint=eastwest;whiteSpace=wrap;html=1;" parent="pApWtMFqq5sFdujX7QiP-111" vertex="1">
          <mxGeometry y="126" width="160" height="26" as="geometry" />
        </mxCell>
        <mxCell id="pApWtMFqq5sFdujX7QiP-115" value="&amp;lt;&amp;lt;abstract&amp;gt;&amp;gt;&lt;br&gt;Enemy" style="swimlane;fontStyle=1;align=center;verticalAlign=top;childLayout=stackLayout;horizontal=1;startSize=40;horizontalStack=0;resizeParent=1;resizeParentMax=0;resizeLast=0;collapsible=1;marginBottom=0;whiteSpace=wrap;html=1;" parent="WIyWlLk6GJQsqaUBKTNV-1" vertex="1">
          <mxGeometry x="37" y="1580" width="160" height="48" as="geometry" />
        </mxCell>
        <mxCell id="pApWtMFqq5sFdujX7QiP-117" value="" style="line;strokeWidth=1;fillColor=none;align=left;verticalAlign=middle;spacingTop=-1;spacingLeft=3;spacingRight=3;rotatable=0;labelPosition=right;points=[];portConstraint=eastwest;strokeColor=inherit;" parent="pApWtMFqq5sFdujX7QiP-115" vertex="1">
          <mxGeometry y="40" width="160" height="8" as="geometry" />
        </mxCell>
        <mxCell id="pApWtMFqq5sFdujX7QiP-118" value="Warrior" style="swimlane;fontStyle=1;align=center;verticalAlign=top;childLayout=stackLayout;horizontal=1;startSize=26;horizontalStack=0;resizeParent=1;resizeParentMax=0;resizeLast=0;collapsible=1;marginBottom=0;whiteSpace=wrap;html=1;" parent="WIyWlLk6GJQsqaUBKTNV-1" vertex="1">
          <mxGeometry x="-403" y="1750" width="160" height="60" as="geometry" />
        </mxCell>
        <mxCell id="pApWtMFqq5sFdujX7QiP-120" value="" style="line;strokeWidth=1;fillColor=none;align=left;verticalAlign=middle;spacingTop=-1;spacingLeft=3;spacingRight=3;rotatable=0;labelPosition=right;points=[];portConstraint=eastwest;strokeColor=inherit;" parent="pApWtMFqq5sFdujX7QiP-118" vertex="1">
          <mxGeometry y="26" width="160" height="8" as="geometry" />
        </mxCell>
        <mxCell id="pApWtMFqq5sFdujX7QiP-135" value="+ Slash()" style="text;strokeColor=none;fillColor=none;align=left;verticalAlign=top;spacingLeft=4;spacingRight=4;overflow=hidden;rotatable=0;points=[[0,0.5],[1,0.5]];portConstraint=eastwest;whiteSpace=wrap;html=1;" parent="pApWtMFqq5sFdujX7QiP-118" vertex="1">
          <mxGeometry y="34" width="160" height="26" as="geometry" />
        </mxCell>
        <mxCell id="pApWtMFqq5sFdujX7QiP-121" value="Wizard" style="swimlane;fontStyle=1;align=center;verticalAlign=top;childLayout=stackLayout;horizontal=1;startSize=26;horizontalStack=0;resizeParent=1;resizeParentMax=0;resizeLast=0;collapsible=1;marginBottom=0;whiteSpace=wrap;html=1;" parent="WIyWlLk6GJQsqaUBKTNV-1" vertex="1">
          <mxGeometry x="-210.25" y="1750" width="160" height="60" as="geometry" />
        </mxCell>
        <mxCell id="pApWtMFqq5sFdujX7QiP-123" value="" style="line;strokeWidth=1;fillColor=none;align=left;verticalAlign=middle;spacingTop=-1;spacingLeft=3;spacingRight=3;rotatable=0;labelPosition=right;points=[];portConstraint=eastwest;strokeColor=inherit;" parent="pApWtMFqq5sFdujX7QiP-121" vertex="1">
          <mxGeometry y="26" width="160" height="8" as="geometry" />
        </mxCell>
        <mxCell id="pApWtMFqq5sFdujX7QiP-138" value="+ Fireball()" style="text;strokeColor=none;fillColor=none;align=left;verticalAlign=top;spacingLeft=4;spacingRight=4;overflow=hidden;rotatable=0;points=[[0,0.5],[1,0.5]];portConstraint=eastwest;whiteSpace=wrap;html=1;" parent="pApWtMFqq5sFdujX7QiP-121" vertex="1">
          <mxGeometry y="34" width="160" height="26" as="geometry" />
        </mxCell>
        <mxCell id="pApWtMFqq5sFdujX7QiP-124" value="Slime" style="swimlane;fontStyle=1;align=center;verticalAlign=top;childLayout=stackLayout;horizontal=1;startSize=26;horizontalStack=0;resizeParent=1;resizeParentMax=0;resizeLast=0;collapsible=1;marginBottom=0;whiteSpace=wrap;html=1;" parent="WIyWlLk6GJQsqaUBKTNV-1" vertex="1">
          <mxGeometry x="-33" y="1750" width="160" height="34" as="geometry" />
        </mxCell>
        <mxCell id="pApWtMFqq5sFdujX7QiP-126" value="" style="line;strokeWidth=1;fillColor=none;align=left;verticalAlign=middle;spacingTop=-1;spacingLeft=3;spacingRight=3;rotatable=0;labelPosition=right;points=[];portConstraint=eastwest;strokeColor=inherit;" parent="pApWtMFqq5sFdujX7QiP-124" vertex="1">
          <mxGeometry y="26" width="160" height="8" as="geometry" />
        </mxCell>
        <mxCell id="pApWtMFqq5sFdujX7QiP-127" value="Goblin" style="swimlane;fontStyle=1;align=center;verticalAlign=top;childLayout=stackLayout;horizontal=1;startSize=26;horizontalStack=0;resizeParent=1;resizeParentMax=0;resizeLast=0;collapsible=1;marginBottom=0;whiteSpace=wrap;html=1;" parent="WIyWlLk6GJQsqaUBKTNV-1" vertex="1">
          <mxGeometry x="157" y="1750" width="160" height="34" as="geometry" />
        </mxCell>
        <mxCell id="pApWtMFqq5sFdujX7QiP-129" value="" style="line;strokeWidth=1;fillColor=none;align=left;verticalAlign=middle;spacingTop=-1;spacingLeft=3;spacingRight=3;rotatable=0;labelPosition=right;points=[];portConstraint=eastwest;strokeColor=inherit;" parent="pApWtMFqq5sFdujX7QiP-127" vertex="1">
          <mxGeometry y="26" width="160" height="8" as="geometry" />
        </mxCell>
        <mxCell id="pApWtMFqq5sFdujX7QiP-130" value="Box" style="swimlane;fontStyle=1;align=center;verticalAlign=top;childLayout=stackLayout;horizontal=1;startSize=26;horizontalStack=0;resizeParent=1;resizeParentMax=0;resizeLast=0;collapsible=1;marginBottom=0;whiteSpace=wrap;html=1;" parent="WIyWlLk6GJQsqaUBKTNV-1" vertex="1">
          <mxGeometry x="341" y="1750" width="160" height="60" as="geometry" />
        </mxCell>
        <mxCell id="pApWtMFqq5sFdujX7QiP-145" value="+ rewards : reward[]" style="text;strokeColor=none;fillColor=none;align=left;verticalAlign=top;spacingLeft=4;spacingRight=4;overflow=hidden;rotatable=0;points=[[0,0.5],[1,0.5]];portConstraint=eastwest;whiteSpace=wrap;html=1;" parent="pApWtMFqq5sFdujX7QiP-130" vertex="1">
          <mxGeometry y="26" width="160" height="26" as="geometry" />
        </mxCell>
        <mxCell id="pApWtMFqq5sFdujX7QiP-132" value="" style="line;strokeWidth=1;fillColor=none;align=left;verticalAlign=middle;spacingTop=-1;spacingLeft=3;spacingRight=3;rotatable=0;labelPosition=right;points=[];portConstraint=eastwest;strokeColor=inherit;" parent="pApWtMFqq5sFdujX7QiP-130" vertex="1">
          <mxGeometry y="52" width="160" height="8" as="geometry" />
        </mxCell>
        <mxCell id="pApWtMFqq5sFdujX7QiP-139" value="" style="endArrow=block;endSize=16;endFill=0;html=1;rounded=0;" parent="WIyWlLk6GJQsqaUBKTNV-1" source="pApWtMFqq5sFdujX7QiP-118" target="pApWtMFqq5sFdujX7QiP-111" edge="1">
          <mxGeometry width="160" relative="1" as="geometry">
            <mxPoint x="-23" y="1710" as="sourcePoint" />
            <mxPoint x="137" y="1710" as="targetPoint" />
          </mxGeometry>
        </mxCell>
        <mxCell id="pApWtMFqq5sFdujX7QiP-140" value="" style="endArrow=block;endSize=16;endFill=0;html=1;rounded=0;" parent="WIyWlLk6GJQsqaUBKTNV-1" source="pApWtMFqq5sFdujX7QiP-121" target="pApWtMFqq5sFdujX7QiP-111" edge="1">
          <mxGeometry width="160" relative="1" as="geometry">
            <mxPoint x="-294" y="1760" as="sourcePoint" />
            <mxPoint x="-251" y="1692" as="targetPoint" />
          </mxGeometry>
        </mxCell>
        <mxCell id="pApWtMFqq5sFdujX7QiP-143" value="" style="endArrow=block;endSize=16;endFill=0;html=1;rounded=0;" parent="WIyWlLk6GJQsqaUBKTNV-1" source="pApWtMFqq5sFdujX7QiP-124" target="pApWtMFqq5sFdujX7QiP-115" edge="1">
          <mxGeometry width="160" relative="1" as="geometry">
            <mxPoint x="-242" y="1770" as="sourcePoint" />
            <mxPoint x="-269" y="1732" as="targetPoint" />
          </mxGeometry>
        </mxCell>
        <mxCell id="pApWtMFqq5sFdujX7QiP-144" value="" style="endArrow=block;endSize=16;endFill=0;html=1;rounded=0;" parent="WIyWlLk6GJQsqaUBKTNV-1" source="pApWtMFqq5sFdujX7QiP-127" target="pApWtMFqq5sFdujX7QiP-115" edge="1">
          <mxGeometry width="160" relative="1" as="geometry">
            <mxPoint x="65" y="1760" as="sourcePoint" />
            <mxPoint x="113" y="1660" as="targetPoint" />
          </mxGeometry>
        </mxCell>
        <mxCell id="pApWtMFqq5sFdujX7QiP-151" value="&amp;lt;&amp;lt;interface&amp;gt;&amp;gt;&lt;br&gt;IHp&lt;br&gt;&lt;br&gt;{get} hpValue&lt;br&gt;{get} hpMax&lt;br&gt;{get} hpMin&lt;br&gt;&lt;br&gt;RecoverHP()&lt;br&gt;DepleteHP()&lt;br&gt;&lt;br&gt;OnHpMax&lt;br&gt;OnHpMin&lt;br&gt;OnHpChanged&lt;br&gt;OnHpRecovered&lt;br&gt;OnHpDeplete" style="html=1;whiteSpace=wrap;" parent="WIyWlLk6GJQsqaUBKTNV-1" vertex="1">
          <mxGeometry x="-155" y="1240" width="110" height="240" as="geometry" />
        </mxCell>
        <mxCell id="pApWtMFqq5sFdujX7QiP-155" value="Interface&lt;br&gt;기능에 대해서만 추상화하는 용도의 사용자정의 자료형.&lt;br&gt;얘도 추상화용도기 때문에 객체 생성 불가능" style="text;html=1;strokeColor=none;fillColor=none;align=center;verticalAlign=middle;whiteSpace=wrap;rounded=0;" parent="WIyWlLk6GJQsqaUBKTNV-1" vertex="1">
          <mxGeometry x="-450" y="1290" width="170" height="90" as="geometry" />
        </mxCell>
        <mxCell id="pApWtMFqq5sFdujX7QiP-156" value="abstract class&lt;br&gt;추상적인 개념 (데이터 및 기능)을 표현하기위한 클래스. 객체생성 불가" style="text;html=1;strokeColor=none;fillColor=none;align=center;verticalAlign=middle;whiteSpace=wrap;rounded=0;" parent="WIyWlLk6GJQsqaUBKTNV-1" vertex="1">
          <mxGeometry x="-500" y="1500" width="170" height="90" as="geometry" />
        </mxCell>
        <mxCell id="pApWtMFqq5sFdujX7QiP-157" value="" style="endArrow=block;endSize=16;endFill=0;html=1;rounded=0;fillColor=#dae8fc;strokeColor=#6c8ebf;" parent="WIyWlLk6GJQsqaUBKTNV-1" source="pApWtMFqq5sFdujX7QiP-111" target="pApWtMFqq5sFdujX7QiP-151" edge="1">
          <mxGeometry width="160" relative="1" as="geometry">
            <mxPoint x="-135" y="1760" as="sourcePoint" />
            <mxPoint x="-188" y="1656" as="targetPoint" />
          </mxGeometry>
        </mxCell>
        <mxCell id="pApWtMFqq5sFdujX7QiP-158" value="" style="endArrow=block;endSize=16;endFill=0;html=1;rounded=0;fillColor=#dae8fc;strokeColor=#6c8ebf;" parent="WIyWlLk6GJQsqaUBKTNV-1" source="pApWtMFqq5sFdujX7QiP-115" target="pApWtMFqq5sFdujX7QiP-151" edge="1">
          <mxGeometry width="160" relative="1" as="geometry">
            <mxPoint x="-216" y="1530" as="sourcePoint" />
            <mxPoint x="-213" y="1480" as="targetPoint" />
          </mxGeometry>
        </mxCell>
        <mxCell id="pApWtMFqq5sFdujX7QiP-159" value="" style="endArrow=block;endSize=16;endFill=0;html=1;rounded=0;fillColor=#dae8fc;strokeColor=#6c8ebf;" parent="WIyWlLk6GJQsqaUBKTNV-1" source="pApWtMFqq5sFdujX7QiP-130" target="pApWtMFqq5sFdujX7QiP-151" edge="1">
          <mxGeometry width="160" relative="1" as="geometry">
            <mxPoint x="96" y="1590" as="sourcePoint" />
            <mxPoint x="-150" y="1402" as="targetPoint" />
          </mxGeometry>
        </mxCell>
        <mxCell id="pApWtMFqq5sFdujX7QiP-160" value="&amp;lt;&amp;lt;abstract&amp;gt;&amp;gt;&lt;br&gt;QuestSupportingNPC" style="swimlane;fontStyle=1;align=center;verticalAlign=top;childLayout=stackLayout;horizontal=1;startSize=40;horizontalStack=0;resizeParent=1;resizeParentMax=0;resizeLast=0;collapsible=1;marginBottom=0;whiteSpace=wrap;html=1;" parent="WIyWlLk6GJQsqaUBKTNV-1" vertex="1">
          <mxGeometry x="510" y="1580" width="160" height="48" as="geometry" />
        </mxCell>
        <mxCell id="pApWtMFqq5sFdujX7QiP-161" value="" style="line;strokeWidth=1;fillColor=none;align=left;verticalAlign=middle;spacingTop=-1;spacingLeft=3;spacingRight=3;rotatable=0;labelPosition=right;points=[];portConstraint=eastwest;strokeColor=inherit;" parent="pApWtMFqq5sFdujX7QiP-160" vertex="1">
          <mxGeometry y="40" width="160" height="8" as="geometry" />
        </mxCell>
        <mxCell id="pApWtMFqq5sFdujX7QiP-162" value="&amp;lt;&amp;lt;interface&amp;gt;&amp;gt;&lt;br&gt;IAttacker&lt;br&gt;&lt;br&gt;{get} AttackPower&lt;br&gt;&lt;br&gt;Attack(target)" style="html=1;whiteSpace=wrap;" parent="WIyWlLk6GJQsqaUBKTNV-1" vertex="1">
          <mxGeometry x="240" y="1250" width="110" height="240" as="geometry" />
        </mxCell>
        <mxCell id="pApWtMFqq5sFdujX7QiP-163" value="" style="endArrow=block;endSize=16;endFill=0;html=1;rounded=0;fillColor=#f8cecc;strokeColor=#b85450;" parent="WIyWlLk6GJQsqaUBKTNV-1" source="pApWtMFqq5sFdujX7QiP-111" target="pApWtMFqq5sFdujX7QiP-162" edge="1">
          <mxGeometry width="160" relative="1" as="geometry">
            <mxPoint x="-164" y="1530" as="sourcePoint" />
            <mxPoint x="-85" y="1442" as="targetPoint" />
          </mxGeometry>
        </mxCell>
        <mxCell id="pApWtMFqq5sFdujX7QiP-164" value="" style="endArrow=block;endSize=16;endFill=0;html=1;rounded=0;fillColor=#f8cecc;strokeColor=#b85450;" parent="WIyWlLk6GJQsqaUBKTNV-1" source="pApWtMFqq5sFdujX7QiP-127" target="pApWtMFqq5sFdujX7QiP-162" edge="1">
          <mxGeometry width="160" relative="1" as="geometry">
            <mxPoint x="-140" y="1561" as="sourcePoint" />
            <mxPoint x="250" y="1402" as="targetPoint" />
          </mxGeometry>
        </mxCell>
        <mxCell id="pApWtMFqq5sFdujX7QiP-165" value="" style="endArrow=block;endSize=16;endFill=0;html=1;rounded=0;fillColor=#f8cecc;strokeColor=#b85450;" parent="WIyWlLk6GJQsqaUBKTNV-1" source="pApWtMFqq5sFdujX7QiP-160" target="pApWtMFqq5sFdujX7QiP-162" edge="1">
          <mxGeometry width="160" relative="1" as="geometry">
            <mxPoint x="251" y="1760" as="sourcePoint" />
            <mxPoint x="288" y="1500" as="targetPoint" />
          </mxGeometry>
        </mxCell>
        <mxCell id="FeKkNKLbiG9py3VXbnXW-0" value="" style="rounded=0;whiteSpace=wrap;html=1;" parent="WIyWlLk6GJQsqaUBKTNV-1" vertex="1">
          <mxGeometry x="-327.75" y="1930" width="297.75" height="90" as="geometry" />
        </mxCell>
        <mxCell id="FeKkNKLbiG9py3VXbnXW-1" value="Warrior" style="text;html=1;strokeColor=none;fillColor=none;align=center;verticalAlign=middle;whiteSpace=wrap;rounded=0;" parent="WIyWlLk6GJQsqaUBKTNV-1" vertex="1">
          <mxGeometry x="-315" y="1910" width="60" height="30" as="geometry" />
        </mxCell>
        <mxCell id="FeKkNKLbiG9py3VXbnXW-2" value="string&lt;br&gt;_nickName" style="rounded=0;whiteSpace=wrap;html=1;" parent="WIyWlLk6GJQsqaUBKTNV-1" vertex="1">
          <mxGeometry x="-315" y="1945" width="55" height="55" as="geometry" />
        </mxCell>
        <mxCell id="FeKkNKLbiG9py3VXbnXW-3" value="float&lt;br&gt;_exp" style="rounded=0;whiteSpace=wrap;html=1;" parent="WIyWlLk6GJQsqaUBKTNV-1" vertex="1">
          <mxGeometry x="-247.5" y="1945" width="55" height="55" as="geometry" />
        </mxCell>
        <mxCell id="FeKkNKLbiG9py3VXbnXW-4" value="float&lt;br&gt;_attackPower" style="rounded=0;whiteSpace=wrap;html=1;" parent="WIyWlLk6GJQsqaUBKTNV-1" vertex="1">
          <mxGeometry x="-175.5" y="1945" width="55" height="55" as="geometry" />
        </mxCell>
        <mxCell id="FeKkNKLbiG9py3VXbnXW-5" value="" style="ellipse;whiteSpace=wrap;html=1;aspect=fixed;" parent="WIyWlLk6GJQsqaUBKTNV-1" vertex="1">
          <mxGeometry x="-324.5" y="1930.5" width="14.5" height="14.5" as="geometry" />
        </mxCell>
        <mxCell id="FeKkNKLbiG9py3VXbnXW-6" value="float&lt;br&gt;_anger" style="rounded=0;whiteSpace=wrap;html=1;" parent="WIyWlLk6GJQsqaUBKTNV-1" vertex="1">
          <mxGeometry x="-105.25" y="1945" width="55" height="55" as="geometry" />
        </mxCell>
        <mxCell id="FeKkNKLbiG9py3VXbnXW-7" value="Character" style="text;html=1;strokeColor=none;fillColor=none;align=center;verticalAlign=middle;whiteSpace=wrap;rounded=0;" parent="WIyWlLk6GJQsqaUBKTNV-1" vertex="1">
          <mxGeometry x="-315" y="2030" width="60" height="30" as="geometry" />
        </mxCell>
        <mxCell id="29eIYVTzaHLgqch68Z2--0" value="" style="ellipse;whiteSpace=wrap;html=1;aspect=fixed;fillColor=#fff2cc;strokeColor=#d6b656;" parent="WIyWlLk6GJQsqaUBKTNV-1" vertex="1">
          <mxGeometry x="890" width="280" height="280" as="geometry" />
        </mxCell>
        <mxCell id="29eIYVTzaHLgqch68Z2--1" value="글로벌 변수" style="text;html=1;align=center;verticalAlign=middle;whiteSpace=wrap;rounded=0;fontColor=#000000;" parent="WIyWlLk6GJQsqaUBKTNV-1" vertex="1">
          <mxGeometry x="1040" y="40" width="110" height="30" as="geometry" />
        </mxCell>
        <mxCell id="29eIYVTzaHLgqch68Z2--2" value="" style="ellipse;whiteSpace=wrap;html=1;aspect=fixed;fillColor=#d5e8d4;strokeColor=#82b366;" parent="WIyWlLk6GJQsqaUBKTNV-1" vertex="1">
          <mxGeometry x="930" y="100" width="140" height="140" as="geometry" />
        </mxCell>
        <mxCell id="29eIYVTzaHLgqch68Z2--3" value="멤버변수" style="text;html=1;align=center;verticalAlign=middle;whiteSpace=wrap;rounded=0;fontColor=#000000;" parent="WIyWlLk6GJQsqaUBKTNV-1" vertex="1">
          <mxGeometry x="945" y="135" width="110" height="30" as="geometry" />
        </mxCell>
        <mxCell id="29eIYVTzaHLgqch68Z2--4" value="근데 C# 은 멤버변수가 아닌 글로벌 변수 없음" style="text;html=1;align=center;verticalAlign=middle;whiteSpace=wrap;rounded=0;fillColor=#f8cecc;strokeColor=#b85450;fontColor=#3D3D3D;" parent="WIyWlLk6GJQsqaUBKTNV-1" vertex="1">
          <mxGeometry x="1170" y="30" width="330" height="20" as="geometry" />
        </mxCell>
        <mxCell id="29eIYVTzaHLgqch68Z2--5" value="X" style="text;html=1;align=center;verticalAlign=middle;whiteSpace=wrap;rounded=0;fontColor=#000000;" parent="WIyWlLk6GJQsqaUBKTNV-1" vertex="1">
          <mxGeometry x="1100" y="120" width="60" height="30" as="geometry" />
        </mxCell>
        <mxCell id="29eIYVTzaHLgqch68Z2--6" value="CoordClass._instance" style="rounded=0;whiteSpace=wrap;html=1;" parent="WIyWlLk6GJQsqaUBKTNV-1" vertex="1">
          <mxGeometry x="60" y="125" width="140" height="20" as="geometry" />
        </mxCell>
        <mxCell id="29eIYVTzaHLgqch68Z2--7" value="object&lt;br&gt;CoordClass" style="rounded=0;whiteSpace=wrap;html=1;" parent="WIyWlLk6GJQsqaUBKTNV-1" vertex="1">
          <mxGeometry x="190" y="270" width="60" height="40" as="geometry" />
        </mxCell>
        <mxCell id="29eIYVTzaHLgqch68Z2--8" value="" style="curved=1;endArrow=classic;html=1;rounded=0;entryX=1;entryY=0.5;entryDx=0;entryDy=0;exitX=0.5;exitY=0;exitDx=0;exitDy=0;" parent="WIyWlLk6GJQsqaUBKTNV-1" source="29eIYVTzaHLgqch68Z2--39" target="29eIYVTzaHLgqch68Z2--6" edge="1">
          <mxGeometry width="50" height="50" relative="1" as="geometry">
            <mxPoint x="250" y="280" as="sourcePoint" />
            <mxPoint x="300" y="230" as="targetPoint" />
            <Array as="points">
              <mxPoint x="380" y="180" />
              <mxPoint x="370" y="150" />
              <mxPoint x="330" y="140" />
              <mxPoint x="390" y="60" />
            </Array>
          </mxGeometry>
        </mxCell>
        <mxCell id="29eIYVTzaHLgqch68Z2--10" value="" style="rounded=0;whiteSpace=wrap;html=1;" parent="WIyWlLk6GJQsqaUBKTNV-1" vertex="1">
          <mxGeometry x="330" y="250" width="350" height="60" as="geometry" />
        </mxCell>
        <mxCell id="29eIYVTzaHLgqch68Z2--26" style="edgeStyle=orthogonalEdgeStyle;rounded=0;orthogonalLoop=1;jettySize=auto;html=1;entryX=1;entryY=0.75;entryDx=0;entryDy=0;" parent="WIyWlLk6GJQsqaUBKTNV-1" target="29eIYVTzaHLgqch68Z2--7" edge="1">
          <mxGeometry relative="1" as="geometry">
            <mxPoint x="340" y="279.9999999999999" as="sourcePoint" />
          </mxGeometry>
        </mxCell>
        <mxCell id="29eIYVTzaHLgqch68Z2--16" value="" style="rounded=0;whiteSpace=wrap;html=1;" parent="WIyWlLk6GJQsqaUBKTNV-1" vertex="1">
          <mxGeometry x="340" y="260" width="40" height="40" as="geometry" />
        </mxCell>
        <mxCell id="29eIYVTzaHLgqch68Z2--17" value="" style="rounded=0;whiteSpace=wrap;html=1;" parent="WIyWlLk6GJQsqaUBKTNV-1" vertex="1">
          <mxGeometry x="380" y="260" width="40" height="40" as="geometry" />
        </mxCell>
        <mxCell id="29eIYVTzaHLgqch68Z2--18" value="" style="rounded=0;whiteSpace=wrap;html=1;" parent="WIyWlLk6GJQsqaUBKTNV-1" vertex="1">
          <mxGeometry x="420" y="260" width="40" height="40" as="geometry" />
        </mxCell>
        <mxCell id="29eIYVTzaHLgqch68Z2--19" value="2" style="rounded=0;whiteSpace=wrap;html=1;" parent="WIyWlLk6GJQsqaUBKTNV-1" vertex="1">
          <mxGeometry x="460" y="260" width="40" height="40" as="geometry" />
        </mxCell>
        <mxCell id="29eIYVTzaHLgqch68Z2--20" value="y" style="text;html=1;strokeColor=none;fillColor=none;align=center;verticalAlign=middle;whiteSpace=wrap;rounded=0;" parent="WIyWlLk6GJQsqaUBKTNV-1" vertex="1">
          <mxGeometry x="390" y="230" width="60" height="30" as="geometry" />
        </mxCell>
        <mxCell id="29eIYVTzaHLgqch68Z2--21" value="" style="rounded=0;whiteSpace=wrap;html=1;" parent="WIyWlLk6GJQsqaUBKTNV-1" vertex="1">
          <mxGeometry x="510" y="260" width="40" height="40" as="geometry" />
        </mxCell>
        <mxCell id="29eIYVTzaHLgqch68Z2--22" value="" style="rounded=0;whiteSpace=wrap;html=1;" parent="WIyWlLk6GJQsqaUBKTNV-1" vertex="1">
          <mxGeometry x="550" y="260" width="40" height="40" as="geometry" />
        </mxCell>
        <mxCell id="29eIYVTzaHLgqch68Z2--23" value="" style="rounded=0;whiteSpace=wrap;html=1;" parent="WIyWlLk6GJQsqaUBKTNV-1" vertex="1">
          <mxGeometry x="590" y="260" width="40" height="40" as="geometry" />
        </mxCell>
        <mxCell id="29eIYVTzaHLgqch68Z2--24" value="" style="rounded=0;whiteSpace=wrap;html=1;" parent="WIyWlLk6GJQsqaUBKTNV-1" vertex="1">
          <mxGeometry x="630" y="260" width="40" height="40" as="geometry" />
        </mxCell>
        <mxCell id="29eIYVTzaHLgqch68Z2--25" value="z" style="text;html=1;strokeColor=none;fillColor=none;align=center;verticalAlign=middle;whiteSpace=wrap;rounded=0;" parent="WIyWlLk6GJQsqaUBKTNV-1" vertex="1">
          <mxGeometry x="560" y="230" width="60" height="30" as="geometry" />
        </mxCell>
        <mxCell id="29eIYVTzaHLgqch68Z2--27" value="CoordClass.x = 1.0f" style="rounded=0;whiteSpace=wrap;html=1;" parent="WIyWlLk6GJQsqaUBKTNV-1" vertex="1">
          <mxGeometry x="60" y="190" width="140" height="20" as="geometry" />
        </mxCell>
        <mxCell id="29eIYVTzaHLgqch68Z2--28" value="CoordClass.y = 2.0f" style="rounded=0;whiteSpace=wrap;html=1;" parent="WIyWlLk6GJQsqaUBKTNV-1" vertex="1">
          <mxGeometry x="60" y="210" width="140" height="20" as="geometry" />
        </mxCell>
        <mxCell id="29eIYVTzaHLgqch68Z2--29" value="CoordClass.z" style="rounded=0;whiteSpace=wrap;html=1;" parent="WIyWlLk6GJQsqaUBKTNV-1" vertex="1">
          <mxGeometry x="60" y="145" width="140" height="20" as="geometry" />
        </mxCell>
        <mxCell id="29eIYVTzaHLgqch68Z2--30" value="Data" style="text;html=1;strokeColor=none;fillColor=none;align=center;verticalAlign=middle;whiteSpace=wrap;rounded=0;" parent="WIyWlLk6GJQsqaUBKTNV-1" vertex="1">
          <mxGeometry x="-33" y="170" width="60" height="30" as="geometry" />
        </mxCell>
        <mxCell id="29eIYVTzaHLgqch68Z2--32" value="" style="ellipse;whiteSpace=wrap;html=1;aspect=fixed;fillColor=#fff2cc;strokeColor=#d6b656;" parent="WIyWlLk6GJQsqaUBKTNV-1" vertex="1">
          <mxGeometry x="900" y="310" width="280" height="280" as="geometry" />
        </mxCell>
        <mxCell id="29eIYVTzaHLgqch68Z2--33" value="객체" style="text;html=1;align=center;verticalAlign=middle;whiteSpace=wrap;rounded=0;fontColor=#000000;" parent="WIyWlLk6GJQsqaUBKTNV-1" vertex="1">
          <mxGeometry x="1050" y="350" width="110" height="30" as="geometry" />
        </mxCell>
        <mxCell id="29eIYVTzaHLgqch68Z2--34" value="" style="ellipse;whiteSpace=wrap;html=1;aspect=fixed;fillColor=#d5e8d4;strokeColor=#82b366;" parent="WIyWlLk6GJQsqaUBKTNV-1" vertex="1">
          <mxGeometry x="940" y="410" width="140" height="140" as="geometry" />
        </mxCell>
        <mxCell id="29eIYVTzaHLgqch68Z2--35" value="인스턴스" style="text;html=1;align=center;verticalAlign=middle;whiteSpace=wrap;rounded=0;fontColor=#000000;" parent="WIyWlLk6GJQsqaUBKTNV-1" vertex="1">
          <mxGeometry x="955" y="445" width="110" height="30" as="geometry" />
        </mxCell>
        <mxCell id="29eIYVTzaHLgqch68Z2--36" value="근데 C# 은 인스턴스가 아닌 객체가 없음&lt;br&gt;왜냐하면&lt;br&gt;클래스생성자가 하는역할은&amp;nbsp;&lt;br&gt;1. 비어있는 힙 영역에 인스턴스멤버변수크기만큼 공간확보 (객체화)&lt;br&gt;2. 생성된 객체의 데이터 초기화&lt;br&gt;// 1-2 합쳐서 인스턴스화 라고 함&lt;br&gt;3. 해당 인스턴스의 주소 반환" style="text;html=1;align=left;verticalAlign=middle;whiteSpace=wrap;rounded=0;fillColor=#f8cecc;strokeColor=#b85450;fontColor=#3D3D3D;" parent="WIyWlLk6GJQsqaUBKTNV-1" vertex="1">
          <mxGeometry x="1200" y="340" width="380" height="100" as="geometry" />
        </mxCell>
        <mxCell id="29eIYVTzaHLgqch68Z2--37" value="X" style="text;html=1;align=center;verticalAlign=middle;whiteSpace=wrap;rounded=0;fontColor=#000000;" parent="WIyWlLk6GJQsqaUBKTNV-1" vertex="1">
          <mxGeometry x="1110" y="430" width="60" height="30" as="geometry" />
        </mxCell>
        <mxCell id="29eIYVTzaHLgqch68Z2--39" value="0x3C1324AC" style="text;html=1;strokeColor=#A50040;fillColor=#d80073;align=center;verticalAlign=middle;whiteSpace=wrap;rounded=0;fontColor=#ffffff;" parent="WIyWlLk6GJQsqaUBKTNV-1" vertex="1">
          <mxGeometry x="295" y="225" width="90" height="20" as="geometry" />
        </mxCell>
        <mxCell id="29eIYVTzaHLgqch68Z2--40" value="" style="rounded=0;whiteSpace=wrap;html=1;" parent="WIyWlLk6GJQsqaUBKTNV-1" vertex="1">
          <mxGeometry x="-367.5" y="2170" width="197.5" height="120" as="geometry" />
        </mxCell>
        <mxCell id="29eIYVTzaHLgqch68Z2--41" value="가상함수테이블" style="text;html=1;strokeColor=none;fillColor=none;align=center;verticalAlign=middle;whiteSpace=wrap;rounded=0;" parent="WIyWlLk6GJQsqaUBKTNV-1" vertex="1">
          <mxGeometry x="-370" y="2140" width="190" height="30" as="geometry" />
        </mxCell>
        <mxCell id="29eIYVTzaHLgqch68Z2--43" value="Warrior" style="rounded=0;whiteSpace=wrap;html=1;" parent="WIyWlLk6GJQsqaUBKTNV-1" vertex="1">
          <mxGeometry x="-367.5" y="2170" width="53" height="30" as="geometry" />
        </mxCell>
        <mxCell id="29eIYVTzaHLgqch68Z2--44" value="Breath()" style="rounded=0;whiteSpace=wrap;html=1;" parent="WIyWlLk6GJQsqaUBKTNV-1" vertex="1">
          <mxGeometry x="-314" y="2170" width="144" height="30" as="geometry" />
        </mxCell>
        <mxCell id="29eIYVTzaHLgqch68Z2--45" value="Wizard" style="rounded=0;whiteSpace=wrap;html=1;" parent="WIyWlLk6GJQsqaUBKTNV-1" vertex="1">
          <mxGeometry x="-367.5" y="2200" width="53" height="30" as="geometry" />
        </mxCell>
        <mxCell id="29eIYVTzaHLgqch68Z2--46" value="Breath()" style="rounded=0;whiteSpace=wrap;html=1;" parent="WIyWlLk6GJQsqaUBKTNV-1" vertex="1">
          <mxGeometry x="-314" y="2200" width="144" height="30" as="geometry" />
        </mxCell>
        <mxCell id="29eIYVTzaHLgqch68Z2--47" value="Character.Breath()" style="rounded=0;whiteSpace=wrap;html=1;" parent="WIyWlLk6GJQsqaUBKTNV-1" vertex="1">
          <mxGeometry x="-347" y="2110" width="144" height="30" as="geometry" />
        </mxCell>
        <mxCell id="29eIYVTzaHLgqch68Z2--48" value="" style="ellipse;whiteSpace=wrap;html=1;aspect=fixed;" parent="WIyWlLk6GJQsqaUBKTNV-1" vertex="1">
          <mxGeometry x="-433" y="2200" width="30" height="30" as="geometry" />
        </mxCell>
        <mxCell id="29eIYVTzaHLgqch68Z2--49" value="" style="rounded=0;whiteSpace=wrap;html=1;" parent="WIyWlLk6GJQsqaUBKTNV-1" vertex="1">
          <mxGeometry x="-50.5" y="2170" width="197.5" height="120" as="geometry" />
        </mxCell>
        <mxCell id="29eIYVTzaHLgqch68Z2--50" value="가상함수테이블" style="text;html=1;strokeColor=none;fillColor=none;align=center;verticalAlign=middle;whiteSpace=wrap;rounded=0;" parent="WIyWlLk6GJQsqaUBKTNV-1" vertex="1">
          <mxGeometry x="-53" y="2140" width="190" height="30" as="geometry" />
        </mxCell>
        <mxCell id="29eIYVTzaHLgqch68Z2--51" value="Character" style="rounded=0;whiteSpace=wrap;html=1;" parent="WIyWlLk6GJQsqaUBKTNV-1" vertex="1">
          <mxGeometry x="-50.5" y="2170" width="53" height="30" as="geometry" />
        </mxCell>
        <mxCell id="29eIYVTzaHLgqch68Z2--52" value="Character.Jump()" style="rounded=0;whiteSpace=wrap;html=1;" parent="WIyWlLk6GJQsqaUBKTNV-1" vertex="1">
          <mxGeometry x="196" y="2070" width="144" height="30" as="geometry" />
        </mxCell>
        <mxCell id="29eIYVTzaHLgqch68Z2--55" value="Character.Jump()" style="rounded=0;whiteSpace=wrap;html=1;" parent="WIyWlLk6GJQsqaUBKTNV-1" vertex="1">
          <mxGeometry x="-27" y="2110" width="144" height="30" as="geometry" />
        </mxCell>
        <mxCell id="29eIYVTzaHLgqch68Z2--56" value="Wizard" style="rounded=0;whiteSpace=wrap;html=1;" parent="WIyWlLk6GJQsqaUBKTNV-1" vertex="1">
          <mxGeometry x="-50.5" y="2230" width="53" height="30" as="geometry" />
        </mxCell>
        <mxCell id="_SRn7nIJ6d1ASNSA74_f-3" style="edgeStyle=orthogonalEdgeStyle;rounded=0;orthogonalLoop=1;jettySize=auto;html=1;entryX=0;entryY=0.75;entryDx=0;entryDy=0;" parent="WIyWlLk6GJQsqaUBKTNV-1" source="29eIYVTzaHLgqch68Z2--57" target="29eIYVTzaHLgqch68Z2--52" edge="1">
          <mxGeometry relative="1" as="geometry" />
        </mxCell>
        <mxCell id="29eIYVTzaHLgqch68Z2--57" value="p* jumpMethod" style="rounded=0;whiteSpace=wrap;html=1;" parent="WIyWlLk6GJQsqaUBKTNV-1" vertex="1">
          <mxGeometry x="3" y="2230" width="144" height="30" as="geometry" />
        </mxCell>
        <mxCell id="29eIYVTzaHLgqch68Z2--58" value="Warrior" style="rounded=0;whiteSpace=wrap;html=1;" parent="WIyWlLk6GJQsqaUBKTNV-1" vertex="1">
          <mxGeometry x="-50.25" y="2200" width="53" height="30" as="geometry" />
        </mxCell>
        <mxCell id="_SRn7nIJ6d1ASNSA74_f-2" style="edgeStyle=orthogonalEdgeStyle;rounded=0;orthogonalLoop=1;jettySize=auto;html=1;entryX=0;entryY=0.5;entryDx=0;entryDy=0;" parent="WIyWlLk6GJQsqaUBKTNV-1" source="29eIYVTzaHLgqch68Z2--59" target="_SRn7nIJ6d1ASNSA74_f-1" edge="1">
          <mxGeometry relative="1" as="geometry" />
        </mxCell>
        <mxCell id="29eIYVTzaHLgqch68Z2--59" value="p* jumpMethod" style="rounded=0;whiteSpace=wrap;html=1;" parent="WIyWlLk6GJQsqaUBKTNV-1" vertex="1">
          <mxGeometry x="3.25" y="2200" width="144" height="30" as="geometry" />
        </mxCell>
        <mxCell id="_SRn7nIJ6d1ASNSA74_f-0" style="edgeStyle=orthogonalEdgeStyle;rounded=0;orthogonalLoop=1;jettySize=auto;html=1;entryX=0;entryY=0.5;entryDx=0;entryDy=0;" parent="WIyWlLk6GJQsqaUBKTNV-1" source="29eIYVTzaHLgqch68Z2--60" target="29eIYVTzaHLgqch68Z2--52" edge="1">
          <mxGeometry relative="1" as="geometry" />
        </mxCell>
        <mxCell id="29eIYVTzaHLgqch68Z2--60" value="p* jumpMethod" style="rounded=0;whiteSpace=wrap;html=1;" parent="WIyWlLk6GJQsqaUBKTNV-1" vertex="1">
          <mxGeometry x="2.5" y="2170" width="144" height="30" as="geometry" />
        </mxCell>
        <mxCell id="_SRn7nIJ6d1ASNSA74_f-1" value="Warrior.Jump()" style="rounded=0;whiteSpace=wrap;html=1;" parent="WIyWlLk6GJQsqaUBKTNV-1" vertex="1">
          <mxGeometry x="260" y="2130" width="144" height="30" as="geometry" />
        </mxCell>
        <mxCell id="_SRn7nIJ6d1ASNSA74_f-5" value="Static" style="rounded=0;whiteSpace=wrap;html=1;" parent="WIyWlLk6GJQsqaUBKTNV-1" vertex="1">
          <mxGeometry x="860" y="680" width="120" height="60" as="geometry" />
        </mxCell>
        <mxCell id="_SRn7nIJ6d1ASNSA74_f-6" value="런타임중에 동적으로 할당할수 없음을 명시하는 키워드" style="text;html=1;strokeColor=#666666;fillColor=#f5f5f5;align=center;verticalAlign=middle;whiteSpace=wrap;rounded=0;fontColor=#333333;" parent="WIyWlLk6GJQsqaUBKTNV-1" vertex="1">
          <mxGeometry x="1010" y="680" width="200" height="60" as="geometry" />
        </mxCell>
        <mxCell id="_SRn7nIJ6d1ASNSA74_f-8" value="Static&amp;nbsp; 멤버변수는 Data 영역에 데이터를 읽고 씀.&lt;br&gt;instance 멤버변수는 동적으로 할당된 (Heap/Stack) 인스턴스의 데이터를 읽고 씀&lt;br&gt;&lt;br&gt;Static 멤버함수는 Code 영역의 원본 함수를 복제해서 Stack 에 쌓음.&lt;br&gt;instance 멤버함수는 Code 영역의 원본 함수를 복제해서 Stack 에 쌓으면서 인스턴스 참조를 받음 (this 키워드)&lt;br&gt;&lt;br&gt;Static 클래스는 동적할당 불가능&lt;br&gt;Non-Static 클래스는 동적할당 가능" style="text;html=1;strokeColor=none;fillColor=none;align=left;verticalAlign=middle;whiteSpace=wrap;rounded=0;" parent="WIyWlLk6GJQsqaUBKTNV-1" vertex="1">
          <mxGeometry x="910" y="760" width="620" height="140" as="geometry" />
        </mxCell>
        <mxCell id="_SRn7nIJ6d1ASNSA74_f-9" value="int[] arr = new int[3]&lt;br&gt;arr[1]" style="text;html=1;strokeColor=none;fillColor=none;align=center;verticalAlign=middle;whiteSpace=wrap;rounded=0;" parent="WIyWlLk6GJQsqaUBKTNV-1" vertex="1">
          <mxGeometry x="850" y="980" width="160" height="40" as="geometry" />
        </mxCell>
        <mxCell id="_SRn7nIJ6d1ASNSA74_f-10" value="int" style="rounded=0;whiteSpace=wrap;html=1;" parent="WIyWlLk6GJQsqaUBKTNV-1" vertex="1">
          <mxGeometry x="1055" y="970" width="45" height="44" as="geometry" />
        </mxCell>
        <mxCell id="_SRn7nIJ6d1ASNSA74_f-11" value="int" style="rounded=0;whiteSpace=wrap;html=1;" parent="WIyWlLk6GJQsqaUBKTNV-1" vertex="1">
          <mxGeometry x="1100" y="970" width="45" height="44" as="geometry" />
        </mxCell>
        <mxCell id="_SRn7nIJ6d1ASNSA74_f-12" value="int" style="rounded=0;whiteSpace=wrap;html=1;" parent="WIyWlLk6GJQsqaUBKTNV-1" vertex="1">
          <mxGeometry x="1145" y="970" width="45" height="44" as="geometry" />
        </mxCell>
        <mxCell id="_SRn7nIJ6d1ASNSA74_f-13" value="자료구조&lt;br&gt;(Collections)" style="rounded=0;whiteSpace=wrap;html=1;" parent="WIyWlLk6GJQsqaUBKTNV-1" vertex="1">
          <mxGeometry x="850" y="1060" width="120" height="60" as="geometry" />
        </mxCell>
        <mxCell id="_SRn7nIJ6d1ASNSA74_f-14" value="Dynamic Array&lt;br&gt;(동적 배열)" style="rounded=0;whiteSpace=wrap;html=1;fillColor=#d5e8d4;strokeColor=#82b366;" parent="WIyWlLk6GJQsqaUBKTNV-1" vertex="1">
          <mxGeometry x="870" y="1140" width="120" height="60" as="geometry" />
        </mxCell>
        <mxCell id="_SRn7nIJ6d1ASNSA74_f-15" value="Linked List&lt;br&gt;(연결 리스트)" style="rounded=0;whiteSpace=wrap;html=1;fillColor=#d5e8d4;strokeColor=#82b366;" parent="WIyWlLk6GJQsqaUBKTNV-1" vertex="1">
          <mxGeometry x="1116" y="1060" width="120" height="60" as="geometry" />
        </mxCell>
        <mxCell id="_SRn7nIJ6d1ASNSA74_f-16" value="Queue" style="rounded=0;whiteSpace=wrap;html=1;fillColor=#d5e8d4;strokeColor=#82b366;" parent="WIyWlLk6GJQsqaUBKTNV-1" vertex="1">
          <mxGeometry x="1246" y="1060" width="120" height="60" as="geometry" />
        </mxCell>
        <mxCell id="_SRn7nIJ6d1ASNSA74_f-17" value="Stack" style="rounded=0;whiteSpace=wrap;html=1;fillColor=#d5e8d4;strokeColor=#82b366;" parent="WIyWlLk6GJQsqaUBKTNV-1" vertex="1">
          <mxGeometry x="1376" y="1060" width="120" height="60" as="geometry" />
        </mxCell>
        <mxCell id="_SRn7nIJ6d1ASNSA74_f-18" value="Hashtable" style="rounded=0;whiteSpace=wrap;html=1;fillColor=#d5e8d4;strokeColor=#82b366;" parent="WIyWlLk6GJQsqaUBKTNV-1" vertex="1">
          <mxGeometry x="1510" y="1060" width="120" height="60" as="geometry" />
        </mxCell>
        <mxCell id="_SRn7nIJ6d1ASNSA74_f-19" value="HashSet" style="rounded=0;whiteSpace=wrap;html=1;fillColor=#d5e8d4;strokeColor=#82b366;" parent="WIyWlLk6GJQsqaUBKTNV-1" vertex="1">
          <mxGeometry x="1640" y="1060" width="120" height="60" as="geometry" />
        </mxCell>
        <mxCell id="_SRn7nIJ6d1ASNSA74_f-20" value="BinaryTree&lt;br&gt;(이진트리)" style="rounded=0;whiteSpace=wrap;html=1;fillColor=#d5e8d4;strokeColor=#82b366;" parent="WIyWlLk6GJQsqaUBKTNV-1" vertex="1">
          <mxGeometry x="1770" y="1060" width="120" height="60" as="geometry" />
        </mxCell>
        <mxCell id="_SRn7nIJ6d1ASNSA74_f-21" value="Heap" style="rounded=0;whiteSpace=wrap;html=1;fillColor=#d5e8d4;strokeColor=#82b366;" parent="WIyWlLk6GJQsqaUBKTNV-1" vertex="1">
          <mxGeometry x="1900" y="1060" width="120" height="60" as="geometry" />
        </mxCell>
        <mxCell id="_SRn7nIJ6d1ASNSA74_f-22" value="삽입 :&amp;nbsp;&lt;br&gt;1. 만약 아이템을 삽입할 공간이 부족하다면, 두배짜리 더 큰 배열 생성&lt;br&gt;2. 생성된 배열에 기존 아이템들 복제&amp;nbsp;&lt;br&gt;3. 배열 참조를 새로 만들어진 배열로 바꿈&lt;br&gt;4. 가장 마지막에 삽입하려는 아이템 추가" style="text;html=1;strokeColor=none;fillColor=none;align=left;verticalAlign=middle;whiteSpace=wrap;rounded=0;" parent="WIyWlLk6GJQsqaUBKTNV-1" vertex="1">
          <mxGeometry x="890" y="1210" width="410" height="100" as="geometry" />
        </mxCell>
        <mxCell id="_SRn7nIJ6d1ASNSA74_f-23" value="탐색 :&lt;br&gt;1. 인덱스 접근 탐색&lt;br&gt;2. 매치조건 탐색 -&amp;gt; 처음부터 끝까지 순회하면서 조건에 맞는걸 찾음" style="text;html=1;strokeColor=none;fillColor=none;align=left;verticalAlign=middle;whiteSpace=wrap;rounded=0;" parent="WIyWlLk6GJQsqaUBKTNV-1" vertex="1">
          <mxGeometry x="890" y="1320" width="410" height="60" as="geometry" />
        </mxCell>
        <mxCell id="_SRn7nIJ6d1ASNSA74_f-24" value="삭제 :&lt;br&gt;지우려고하는 인덱스 뒤부터 끝까지를 한칸씩 다 당김" style="text;html=1;strokeColor=none;fillColor=none;align=left;verticalAlign=middle;whiteSpace=wrap;rounded=0;" parent="WIyWlLk6GJQsqaUBKTNV-1" vertex="1">
          <mxGeometry x="890" y="1390" width="410" height="60" as="geometry" />
        </mxCell>
        <mxCell id="_SRn7nIJ6d1ASNSA74_f-25" value="" style="ellipse;whiteSpace=wrap;html=1;aspect=fixed;" parent="WIyWlLk6GJQsqaUBKTNV-1" vertex="1">
          <mxGeometry x="-560" y="-550" width="340" height="340" as="geometry" />
        </mxCell>
        <mxCell id="_SRn7nIJ6d1ASNSA74_f-26" value="HDD" style="text;html=1;strokeColor=none;fillColor=none;align=center;verticalAlign=middle;whiteSpace=wrap;rounded=0;" parent="WIyWlLk6GJQsqaUBKTNV-1" vertex="1">
          <mxGeometry x="-420" y="-570" width="60" height="30" as="geometry" />
        </mxCell>
        <mxCell id="_SRn7nIJ6d1ASNSA74_f-27" value="LOL" style="rounded=0;whiteSpace=wrap;html=1;" parent="WIyWlLk6GJQsqaUBKTNV-1" vertex="1">
          <mxGeometry x="-504.49" y="-500" width="67.25" height="40" as="geometry" />
        </mxCell>
        <mxCell id="_SRn7nIJ6d1ASNSA74_f-28" value="BG3" style="rounded=0;whiteSpace=wrap;html=1;" parent="WIyWlLk6GJQsqaUBKTNV-1" vertex="1">
          <mxGeometry x="-423.62" y="-500" width="67.25" height="40" as="geometry" />
        </mxCell>
        <mxCell id="_SRn7nIJ6d1ASNSA74_f-29" value="리니지" style="rounded=0;whiteSpace=wrap;html=1;" parent="WIyWlLk6GJQsqaUBKTNV-1" vertex="1">
          <mxGeometry x="-347.25" y="-500" width="67.25" height="40" as="geometry" />
        </mxCell>
        <mxCell id="_SRn7nIJ6d1ASNSA74_f-30" value="CPU" style="whiteSpace=wrap;html=1;aspect=fixed;" parent="WIyWlLk6GJQsqaUBKTNV-1" vertex="1">
          <mxGeometry x="324" y="-380" width="80" height="80" as="geometry" />
        </mxCell>
        <mxCell id="_SRn7nIJ6d1ASNSA74_f-31" value="" style="rounded=0;whiteSpace=wrap;html=1;" parent="WIyWlLk6GJQsqaUBKTNV-1" vertex="1">
          <mxGeometry x="-119.75" y="-490" width="149.75" height="300" as="geometry" />
        </mxCell>
        <mxCell id="_SRn7nIJ6d1ASNSA74_f-32" value="RAM" style="text;html=1;strokeColor=none;fillColor=none;align=center;verticalAlign=middle;whiteSpace=wrap;rounded=0;" parent="WIyWlLk6GJQsqaUBKTNV-1" vertex="1">
          <mxGeometry x="-87" y="-530" width="60" height="30" as="geometry" />
        </mxCell>
        <mxCell id="_SRn7nIJ6d1ASNSA74_f-33" value="" style="rounded=0;whiteSpace=wrap;html=1;" parent="WIyWlLk6GJQsqaUBKTNV-1" vertex="1">
          <mxGeometry x="-110" y="-480" width="120" height="120" as="geometry" />
        </mxCell>
        <mxCell id="_SRn7nIJ6d1ASNSA74_f-34" value="LOL" style="text;html=1;strokeColor=none;fillColor=none;align=center;verticalAlign=middle;whiteSpace=wrap;rounded=0;" parent="WIyWlLk6GJQsqaUBKTNV-1" vertex="1">
          <mxGeometry x="-80" y="-490" width="60" height="30" as="geometry" />
        </mxCell>
        <mxCell id="_SRn7nIJ6d1ASNSA74_f-35" value="" style="rounded=0;whiteSpace=wrap;html=1;" parent="WIyWlLk6GJQsqaUBKTNV-1" vertex="1">
          <mxGeometry x="-110" y="-330" width="120" height="120" as="geometry" />
        </mxCell>
        <mxCell id="_SRn7nIJ6d1ASNSA74_f-36" value="리니지" style="text;html=1;strokeColor=none;fillColor=none;align=center;verticalAlign=middle;whiteSpace=wrap;rounded=0;" parent="WIyWlLk6GJQsqaUBKTNV-1" vertex="1">
          <mxGeometry x="-80" y="-330" width="60" height="30" as="geometry" />
        </mxCell>
        <mxCell id="_SRn7nIJ6d1ASNSA74_f-37" value="RAM 이 HDD 와 CPU 사이의 병목현상을 완충할 수 있는 이유&lt;br&gt;&lt;br&gt;1. HDD 보다 RAM 의 데이터전송속도가 빠르다&lt;br&gt;&lt;br&gt;2. 현재 실행중인 프로그램 인스턴스들 내에서만 데이터를 검색하므로 검색 범위가 훨씬 줄어든다." style="text;html=1;strokeColor=none;fillColor=none;align=center;verticalAlign=middle;whiteSpace=wrap;rounded=0;" parent="WIyWlLk6GJQsqaUBKTNV-1" vertex="1">
          <mxGeometry x="-230" y="-710" width="360" height="160" as="geometry" />
        </mxCell>
        <mxCell id="_SRn7nIJ6d1ASNSA74_f-39" value="L2" style="rounded=0;whiteSpace=wrap;html=1;" parent="WIyWlLk6GJQsqaUBKTNV-1" vertex="1">
          <mxGeometry x="114" y="-400" width="120" height="120" as="geometry" />
        </mxCell>
        <mxCell id="_SRn7nIJ6d1ASNSA74_f-40" value="L1" style="rounded=0;whiteSpace=wrap;html=1;" parent="WIyWlLk6GJQsqaUBKTNV-1" vertex="1">
          <mxGeometry x="294" y="-380" width="30" height="80" as="geometry" />
        </mxCell>
        <mxCell id="_SRn7nIJ6d1ASNSA74_f-41" value="L3" style="rounded=0;whiteSpace=wrap;html=1;" parent="WIyWlLk6GJQsqaUBKTNV-1" vertex="1">
          <mxGeometry x="30" y="-490" width="30" height="300" as="geometry" />
        </mxCell>
        <mxCell id="_SRn7nIJ6d1ASNSA74_f-42" value="Register" style="rounded=0;whiteSpace=wrap;html=1;" parent="WIyWlLk6GJQsqaUBKTNV-1" vertex="1">
          <mxGeometry x="307" y="-370" width="53" height="10" as="geometry" />
        </mxCell>
        <mxCell id="_SRn7nIJ6d1ASNSA74_f-43" value="Register" style="rounded=0;whiteSpace=wrap;html=1;" parent="WIyWlLk6GJQsqaUBKTNV-1" vertex="1">
          <mxGeometry x="305.5" y="-320" width="53" height="10" as="geometry" />
        </mxCell>
        <mxCell id="_SRn7nIJ6d1ASNSA74_f-44" value="캐시라인 : 캐시메모리에 데이터를 복제하는 단위&lt;br&gt;&lt;br&gt;왜 읽음 ?&amp;nbsp;&lt;br&gt;공간 지역성 :&amp;nbsp;&lt;br&gt;접근 했던 데이터 근처의 다른 데이터에 또 접근할 확률이 상대적으로높음&lt;br&gt;&lt;br&gt;시간 지역성:&lt;br&gt;최근에 접근 했던 데이터일수록 또 접근할 확률이 상대적으로 높음" style="text;html=1;strokeColor=none;fillColor=none;align=center;verticalAlign=middle;whiteSpace=wrap;rounded=0;" parent="WIyWlLk6GJQsqaUBKTNV-1" vertex="1">
          <mxGeometry x="97.25" y="-584" width="292.75" height="140" as="geometry" />
        </mxCell>
        <mxCell id="_SRn7nIJ6d1ASNSA74_f-46" value="Cache 가 RAM 과 CPU 사이의 병목현상을 완충할 수 있는 이유&lt;br&gt;1. 공간지역성을 활용하기위해 캐시라인단위로 데이터들을 복제해놓음.&amp;nbsp;&lt;br&gt;&lt;br&gt;2. 다음 필요한 데이터가 복제된 데이터들 사이에 있으면 아주빠른속도로 전달가능" style="text;html=1;strokeColor=none;fillColor=none;align=center;verticalAlign=middle;whiteSpace=wrap;rounded=0;" parent="WIyWlLk6GJQsqaUBKTNV-1" vertex="1">
          <mxGeometry x="114" y="-280" width="360" height="160" as="geometry" />
        </mxCell>
        <mxCell id="_SRn7nIJ6d1ASNSA74_f-47" value="캐시히트 : 캐시메모리 검색했는데 필요한 데이터 있음&lt;br&gt;&lt;br&gt;캐시미스 : 캐시메모리 검색했는데 필요한 데이터 없음" style="text;html=1;strokeColor=none;fillColor=none;align=center;verticalAlign=middle;whiteSpace=wrap;rounded=0;" parent="WIyWlLk6GJQsqaUBKTNV-1" vertex="1">
          <mxGeometry x="485" y="-420" width="185" height="120" as="geometry" />
        </mxCell>
        <mxCell id="_SRn7nIJ6d1ASNSA74_f-48" value="Delegate&lt;br&gt;(대리자)" style="rounded=0;whiteSpace=wrap;html=1;fillColor=#dae8fc;strokeColor=#6c8ebf;" parent="WIyWlLk6GJQsqaUBKTNV-1" vertex="1">
          <mxGeometry x="-790" y="2370" width="120" height="60" as="geometry" />
        </mxCell>
        <mxCell id="_SRn7nIJ6d1ASNSA74_f-49" value="함수의 주소를 담아놓고 호출할 수 있도록 하는 사용자 정의 자료형.&lt;br&gt;함수 체이닝이 가능하다 (여러 함수를 등록할 수 있고, 등록된 순서대로 다 호출가능)" style="text;html=1;strokeColor=none;fillColor=none;align=left;verticalAlign=middle;whiteSpace=wrap;rounded=0;" parent="WIyWlLk6GJQsqaUBKTNV-1" vertex="1">
          <mxGeometry x="-650" y="2370" width="510" height="60" as="geometry" />
        </mxCell>
        <mxCell id="_SRn7nIJ6d1ASNSA74_f-50" value="유튜버" style="swimlane;fontStyle=1;align=center;verticalAlign=top;childLayout=stackLayout;horizontal=1;startSize=26;horizontalStack=0;resizeParent=1;resizeParentMax=0;resizeLast=0;collapsible=1;marginBottom=0;whiteSpace=wrap;html=1;" parent="WIyWlLk6GJQsqaUBKTNV-1" vertex="1">
          <mxGeometry x="-450" y="2470" width="285.5" height="86" as="geometry" />
        </mxCell>
        <mxCell id="_SRn7nIJ6d1ASNSA74_f-51" value="&amp;lt;&amp;lt;event&amp;gt;&amp;gt;+ 컨텐츠 업로드 되었을 때의 대리자" style="text;strokeColor=none;fillColor=none;align=left;verticalAlign=top;spacingLeft=4;spacingRight=4;overflow=hidden;rotatable=0;points=[[0,0.5],[1,0.5]];portConstraint=eastwest;whiteSpace=wrap;html=1;" parent="_SRn7nIJ6d1ASNSA74_f-50" vertex="1">
          <mxGeometry y="26" width="285.5" height="26" as="geometry" />
        </mxCell>
        <mxCell id="_SRn7nIJ6d1ASNSA74_f-52" value="" style="line;strokeWidth=1;fillColor=none;align=left;verticalAlign=middle;spacingTop=-1;spacingLeft=3;spacingRight=3;rotatable=0;labelPosition=right;points=[];portConstraint=eastwest;strokeColor=inherit;" parent="_SRn7nIJ6d1ASNSA74_f-50" vertex="1">
          <mxGeometry y="52" width="285.5" height="8" as="geometry" />
        </mxCell>
        <mxCell id="_SRn7nIJ6d1ASNSA74_f-53" value="+ 컨텐츠 업로드 ( 컨텐츠 )" style="text;strokeColor=none;fillColor=none;align=left;verticalAlign=top;spacingLeft=4;spacingRight=4;overflow=hidden;rotatable=0;points=[[0,0.5],[1,0.5]];portConstraint=eastwest;whiteSpace=wrap;html=1;" parent="_SRn7nIJ6d1ASNSA74_f-50" vertex="1">
          <mxGeometry y="60" width="285.5" height="26" as="geometry" />
        </mxCell>
        <mxCell id="_SRn7nIJ6d1ASNSA74_f-54" value="구독자1" style="swimlane;fontStyle=1;align=center;verticalAlign=top;childLayout=stackLayout;horizontal=1;startSize=26;horizontalStack=0;resizeParent=1;resizeParentMax=0;resizeLast=0;collapsible=1;marginBottom=0;whiteSpace=wrap;html=1;" parent="WIyWlLk6GJQsqaUBKTNV-1" vertex="1">
          <mxGeometry x="-720" y="2459" width="160" height="112" as="geometry" />
        </mxCell>
        <mxCell id="_SRn7nIJ6d1ASNSA74_f-55" value="+ name :&amp;nbsp;" style="text;strokeColor=none;fillColor=none;align=left;verticalAlign=top;spacingLeft=4;spacingRight=4;overflow=hidden;rotatable=0;points=[[0,0.5],[1,0.5]];portConstraint=eastwest;whiteSpace=wrap;html=1;" parent="_SRn7nIJ6d1ASNSA74_f-54" vertex="1">
          <mxGeometry y="26" width="160" height="26" as="geometry" />
        </mxCell>
        <mxCell id="lBe2rJOazFU3IIZSdX-1-2" value="유튜버" style="text;strokeColor=none;fillColor=none;align=left;verticalAlign=top;spacingLeft=4;spacingRight=4;overflow=hidden;rotatable=0;points=[[0,0.5],[1,0.5]];portConstraint=eastwest;whiteSpace=wrap;html=1;" vertex="1" parent="_SRn7nIJ6d1ASNSA74_f-54">
          <mxGeometry y="52" width="160" height="26" as="geometry" />
        </mxCell>
        <mxCell id="_SRn7nIJ6d1ASNSA74_f-56" value="" style="line;strokeWidth=1;fillColor=none;align=left;verticalAlign=middle;spacingTop=-1;spacingLeft=3;spacingRight=3;rotatable=0;labelPosition=right;points=[];portConstraint=eastwest;strokeColor=inherit;" parent="_SRn7nIJ6d1ASNSA74_f-54" vertex="1">
          <mxGeometry y="78" width="160" height="8" as="geometry" />
        </mxCell>
        <mxCell id="_SRn7nIJ6d1ASNSA74_f-57" value="+ 알림 ( 컨텐츠 )" style="text;strokeColor=none;fillColor=none;align=left;verticalAlign=top;spacingLeft=4;spacingRight=4;overflow=hidden;rotatable=0;points=[[0,0.5],[1,0.5]];portConstraint=eastwest;whiteSpace=wrap;html=1;" parent="_SRn7nIJ6d1ASNSA74_f-54" vertex="1">
          <mxGeometry y="86" width="160" height="26" as="geometry" />
        </mxCell>
        <mxCell id="_SRn7nIJ6d1ASNSA74_f-58" value="구독자2" style="swimlane;fontStyle=1;align=center;verticalAlign=top;childLayout=stackLayout;horizontal=1;startSize=26;horizontalStack=0;resizeParent=1;resizeParentMax=0;resizeLast=0;collapsible=1;marginBottom=0;whiteSpace=wrap;html=1;" parent="WIyWlLk6GJQsqaUBKTNV-1" vertex="1">
          <mxGeometry x="-720" y="2580" width="160" height="112" as="geometry" />
        </mxCell>
        <mxCell id="_SRn7nIJ6d1ASNSA74_f-59" value="+ field: type" style="text;strokeColor=none;fillColor=none;align=left;verticalAlign=top;spacingLeft=4;spacingRight=4;overflow=hidden;rotatable=0;points=[[0,0.5],[1,0.5]];portConstraint=eastwest;whiteSpace=wrap;html=1;" parent="_SRn7nIJ6d1ASNSA74_f-58" vertex="1">
          <mxGeometry y="26" width="160" height="26" as="geometry" />
        </mxCell>
        <mxCell id="lBe2rJOazFU3IIZSdX-1-3" value="유튜버" style="text;strokeColor=none;fillColor=none;align=left;verticalAlign=top;spacingLeft=4;spacingRight=4;overflow=hidden;rotatable=0;points=[[0,0.5],[1,0.5]];portConstraint=eastwest;whiteSpace=wrap;html=1;" vertex="1" parent="_SRn7nIJ6d1ASNSA74_f-58">
          <mxGeometry y="52" width="160" height="26" as="geometry" />
        </mxCell>
        <mxCell id="_SRn7nIJ6d1ASNSA74_f-60" value="" style="line;strokeWidth=1;fillColor=none;align=left;verticalAlign=middle;spacingTop=-1;spacingLeft=3;spacingRight=3;rotatable=0;labelPosition=right;points=[];portConstraint=eastwest;strokeColor=inherit;" parent="_SRn7nIJ6d1ASNSA74_f-58" vertex="1">
          <mxGeometry y="78" width="160" height="8" as="geometry" />
        </mxCell>
        <mxCell id="_SRn7nIJ6d1ASNSA74_f-61" value="+ 알림 ( 컨텐츠 )" style="text;strokeColor=none;fillColor=none;align=left;verticalAlign=top;spacingLeft=4;spacingRight=4;overflow=hidden;rotatable=0;points=[[0,0.5],[1,0.5]];portConstraint=eastwest;whiteSpace=wrap;html=1;" parent="_SRn7nIJ6d1ASNSA74_f-58" vertex="1">
          <mxGeometry y="86" width="160" height="26" as="geometry" />
        </mxCell>
        <mxCell id="_SRn7nIJ6d1ASNSA74_f-63" value="관리자1" style="swimlane;fontStyle=1;align=center;verticalAlign=top;childLayout=stackLayout;horizontal=1;startSize=26;horizontalStack=0;resizeParent=1;resizeParentMax=0;resizeLast=0;collapsible=1;marginBottom=0;whiteSpace=wrap;html=1;" parent="WIyWlLk6GJQsqaUBKTNV-1" vertex="1">
          <mxGeometry x="-720" y="2720" width="160" height="112" as="geometry" />
        </mxCell>
        <mxCell id="_SRn7nIJ6d1ASNSA74_f-64" value="+ field: type" style="text;strokeColor=none;fillColor=none;align=left;verticalAlign=top;spacingLeft=4;spacingRight=4;overflow=hidden;rotatable=0;points=[[0,0.5],[1,0.5]];portConstraint=eastwest;whiteSpace=wrap;html=1;" parent="_SRn7nIJ6d1ASNSA74_f-63" vertex="1">
          <mxGeometry y="26" width="160" height="26" as="geometry" />
        </mxCell>
        <mxCell id="lBe2rJOazFU3IIZSdX-1-4" value="유튜버" style="text;strokeColor=none;fillColor=none;align=left;verticalAlign=top;spacingLeft=4;spacingRight=4;overflow=hidden;rotatable=0;points=[[0,0.5],[1,0.5]];portConstraint=eastwest;whiteSpace=wrap;html=1;" vertex="1" parent="_SRn7nIJ6d1ASNSA74_f-63">
          <mxGeometry y="52" width="160" height="26" as="geometry" />
        </mxCell>
        <mxCell id="_SRn7nIJ6d1ASNSA74_f-65" value="" style="line;strokeWidth=1;fillColor=none;align=left;verticalAlign=middle;spacingTop=-1;spacingLeft=3;spacingRight=3;rotatable=0;labelPosition=right;points=[];portConstraint=eastwest;strokeColor=inherit;" parent="_SRn7nIJ6d1ASNSA74_f-63" vertex="1">
          <mxGeometry y="78" width="160" height="8" as="geometry" />
        </mxCell>
        <mxCell id="_SRn7nIJ6d1ASNSA74_f-66" value="+ 알림 ( 컨텐츠 )" style="text;strokeColor=none;fillColor=none;align=left;verticalAlign=top;spacingLeft=4;spacingRight=4;overflow=hidden;rotatable=0;points=[[0,0.5],[1,0.5]];portConstraint=eastwest;whiteSpace=wrap;html=1;" parent="_SRn7nIJ6d1ASNSA74_f-63" vertex="1">
          <mxGeometry y="86" width="160" height="26" as="geometry" />
        </mxCell>
        <mxCell id="_SRn7nIJ6d1ASNSA74_f-67" value="Notification" style="endArrow=open;endSize=12;dashed=1;html=1;rounded=0;exitX=0;exitY=0.5;exitDx=0;exitDy=0;entryX=1;entryY=0.5;entryDx=0;entryDy=0;" parent="WIyWlLk6GJQsqaUBKTNV-1" source="_SRn7nIJ6d1ASNSA74_f-51" target="_SRn7nIJ6d1ASNSA74_f-57" edge="1">
          <mxGeometry width="160" relative="1" as="geometry">
            <mxPoint x="-430" y="2640" as="sourcePoint" />
            <mxPoint x="-270" y="2640" as="targetPoint" />
          </mxGeometry>
        </mxCell>
        <mxCell id="_SRn7nIJ6d1ASNSA74_f-68" value="+ 컨텐츠 업로드 되었을 때의 대리자" style="html=1;whiteSpace=wrap;" parent="WIyWlLk6GJQsqaUBKTNV-1" vertex="1">
          <mxGeometry x="-137.75" y="2470" width="235" height="30" as="geometry" />
        </mxCell>
        <mxCell id="_SRn7nIJ6d1ASNSA74_f-69" value="구독자1.알림(콘텐츠)" style="html=1;whiteSpace=wrap;" parent="WIyWlLk6GJQsqaUBKTNV-1" vertex="1">
          <mxGeometry x="-137.75" y="2500" width="235" height="30" as="geometry" />
        </mxCell>
        <mxCell id="_SRn7nIJ6d1ASNSA74_f-70" value="구독자2.알림(콘텐츠)" style="html=1;whiteSpace=wrap;" parent="WIyWlLk6GJQsqaUBKTNV-1" vertex="1">
          <mxGeometry x="-137.75" y="2530" width="235" height="30" as="geometry" />
        </mxCell>
        <mxCell id="_SRn7nIJ6d1ASNSA74_f-71" value="관리자1.알림(콘텐츠)" style="html=1;whiteSpace=wrap;" parent="WIyWlLk6GJQsqaUBKTNV-1" vertex="1">
          <mxGeometry x="-137.75" y="2560" width="235" height="30" as="geometry" />
        </mxCell>
        <mxCell id="_SRn7nIJ6d1ASNSA74_f-72" value="&lt;div style=&quot;text-align: left;&quot;&gt;&lt;span style=&quot;background-color: initial;&quot;&gt;void 알림 ( 컨텐츠)&lt;/span&gt;&lt;/div&gt;&lt;div style=&quot;text-align: left;&quot;&gt;&lt;span style=&quot;background-color: initial;&quot;&gt;{&lt;/span&gt;&lt;/div&gt;&lt;div style=&quot;text-align: left;&quot;&gt;&lt;span style=&quot;background-color: initial;&quot;&gt;&amp;nbsp; &amp;nbsp;Console.WriteLine(this.name +컨텐츠.이름)&lt;/span&gt;&lt;/div&gt;&lt;div style=&quot;text-align: left;&quot;&gt;&lt;span style=&quot;background-color: initial;&quot;&gt;}&lt;/span&gt;&lt;/div&gt;" style="text;html=1;strokeColor=none;fillColor=none;align=center;verticalAlign=middle;whiteSpace=wrap;rounded=0;" parent="WIyWlLk6GJQsqaUBKTNV-1" vertex="1">
          <mxGeometry x="-528" y="2590" width="268" height="90" as="geometry" />
        </mxCell>
        <mxCell id="lBe2rJOazFU3IIZSdX-1-5" value="object&lt;br&gt;type" style="rounded=0;whiteSpace=wrap;html=1;fillColor=#dae8fc;strokeColor=#6c8ebf;" vertex="1" parent="WIyWlLk6GJQsqaUBKTNV-1">
          <mxGeometry x="-790" y="2900" width="120" height="60" as="geometry" />
        </mxCell>
        <mxCell id="lBe2rJOazFU3IIZSdX-1-6" value="" style="rounded=0;whiteSpace=wrap;html=1;" vertex="1" parent="WIyWlLk6GJQsqaUBKTNV-1">
          <mxGeometry x="-770" y="3000" width="250" height="340" as="geometry" />
        </mxCell>
        <mxCell id="lBe2rJOazFU3IIZSdX-1-7" value="1" style="rounded=0;whiteSpace=wrap;html=1;" vertex="1" parent="WIyWlLk6GJQsqaUBKTNV-1">
          <mxGeometry x="-730" y="3020" width="60" height="60" as="geometry" />
        </mxCell>
        <mxCell id="lBe2rJOazFU3IIZSdX-1-9" value="1" style="rounded=0;whiteSpace=wrap;html=1;" vertex="1" parent="WIyWlLk6GJQsqaUBKTNV-1">
          <mxGeometry x="-760" y="3020" width="30" height="60" as="geometry" />
        </mxCell>
        <mxCell id="lBe2rJOazFU3IIZSdX-1-10" value="" style="rounded=0;whiteSpace=wrap;html=1;" vertex="1" parent="WIyWlLk6GJQsqaUBKTNV-1">
          <mxGeometry x="-745" y="3230" width="200" height="100" as="geometry" />
        </mxCell>
        <mxCell id="lBe2rJOazFU3IIZSdX-1-11" value="Main" style="text;html=1;strokeColor=none;fillColor=none;align=center;verticalAlign=middle;whiteSpace=wrap;rounded=0;" vertex="1" parent="WIyWlLk6GJQsqaUBKTNV-1">
          <mxGeometry x="-675" y="3210" width="60" height="30" as="geometry" />
        </mxCell>
        <mxCell id="lBe2rJOazFU3IIZSdX-1-12" value="int a" style="rounded=0;whiteSpace=wrap;html=1;" vertex="1" parent="WIyWlLk6GJQsqaUBKTNV-1">
          <mxGeometry x="-735" y="3240" width="95" height="20" as="geometry" />
        </mxCell>
        <mxCell id="lBe2rJOazFU3IIZSdX-1-13" value="Type info table" style="rounded=0;whiteSpace=wrap;html=1;" vertex="1" parent="WIyWlLk6GJQsqaUBKTNV-1">
          <mxGeometry x="-950" y="3000" width="120" height="40" as="geometry" />
        </mxCell>
        <mxCell id="lBe2rJOazFU3IIZSdX-1-14" value="0" style="rounded=0;whiteSpace=wrap;html=1;" vertex="1" parent="WIyWlLk6GJQsqaUBKTNV-1">
          <mxGeometry x="-950" y="3040" width="60" height="50" as="geometry" />
        </mxCell>
        <mxCell id="lBe2rJOazFU3IIZSdX-1-15" value="object" style="rounded=0;whiteSpace=wrap;html=1;" vertex="1" parent="WIyWlLk6GJQsqaUBKTNV-1">
          <mxGeometry x="-890" y="3040" width="60" height="50" as="geometry" />
        </mxCell>
        <mxCell id="lBe2rJOazFU3IIZSdX-1-16" value="1" style="rounded=0;whiteSpace=wrap;html=1;" vertex="1" parent="WIyWlLk6GJQsqaUBKTNV-1">
          <mxGeometry x="-950" y="3090" width="60" height="50" as="geometry" />
        </mxCell>
        <mxCell id="lBe2rJOazFU3IIZSdX-1-17" value="int" style="rounded=0;whiteSpace=wrap;html=1;" vertex="1" parent="WIyWlLk6GJQsqaUBKTNV-1">
          <mxGeometry x="-890" y="3090" width="60" height="50" as="geometry" />
        </mxCell>
        <mxCell id="lBe2rJOazFU3IIZSdX-1-18" value="2" style="rounded=0;whiteSpace=wrap;html=1;" vertex="1" parent="WIyWlLk6GJQsqaUBKTNV-1">
          <mxGeometry x="-950" y="3140" width="60" height="50" as="geometry" />
        </mxCell>
        <mxCell id="lBe2rJOazFU3IIZSdX-1-19" value="float" style="rounded=0;whiteSpace=wrap;html=1;" vertex="1" parent="WIyWlLk6GJQsqaUBKTNV-1">
          <mxGeometry x="-890" y="3140" width="60" height="50" as="geometry" />
        </mxCell>
        <mxCell id="lBe2rJOazFU3IIZSdX-1-20" value="3" style="rounded=0;whiteSpace=wrap;html=1;" vertex="1" parent="WIyWlLk6GJQsqaUBKTNV-1">
          <mxGeometry x="-950" y="3190" width="60" height="50" as="geometry" />
        </mxCell>
        <mxCell id="lBe2rJOazFU3IIZSdX-1-21" value="string" style="rounded=0;whiteSpace=wrap;html=1;" vertex="1" parent="WIyWlLk6GJQsqaUBKTNV-1">
          <mxGeometry x="-890" y="3190" width="60" height="50" as="geometry" />
        </mxCell>
        <mxCell id="lBe2rJOazFU3IIZSdX-1-22" value="4" style="rounded=0;whiteSpace=wrap;html=1;" vertex="1" parent="WIyWlLk6GJQsqaUBKTNV-1">
          <mxGeometry x="-950" y="3240" width="60" height="50" as="geometry" />
        </mxCell>
        <mxCell id="lBe2rJOazFU3IIZSdX-1-23" value="Dummy" style="rounded=0;whiteSpace=wrap;html=1;" vertex="1" parent="WIyWlLk6GJQsqaUBKTNV-1">
          <mxGeometry x="-890" y="3240" width="60" height="50" as="geometry" />
        </mxCell>
        <mxCell id="lBe2rJOazFU3IIZSdX-1-24" value="5" style="rounded=0;whiteSpace=wrap;html=1;" vertex="1" parent="WIyWlLk6GJQsqaUBKTNV-1">
          <mxGeometry x="-950" y="3290" width="60" height="50" as="geometry" />
        </mxCell>
        <mxCell id="lBe2rJOazFU3IIZSdX-1-25" value="State" style="rounded=0;whiteSpace=wrap;html=1;" vertex="1" parent="WIyWlLk6GJQsqaUBKTNV-1">
          <mxGeometry x="-890" y="3290" width="60" height="50" as="geometry" />
        </mxCell>
        <mxCell id="lBe2rJOazFU3IIZSdX-1-26" value="Boxing : 하위타입 값을 Object 타입으로 변환&lt;br&gt;(힙 영역에 object 객체 생성 후 타입 인덱스 및 값 할당)&lt;br&gt;Unboxing : object 객체에서부터 원래 값을 읽는 과정" style="rounded=0;whiteSpace=wrap;html=1;" vertex="1" parent="WIyWlLk6GJQsqaUBKTNV-1">
          <mxGeometry x="-670" y="2900" width="320" height="60" as="geometry" />
        </mxCell>
        <mxCell id="lBe2rJOazFU3IIZSdX-1-27" value="object obj1" style="rounded=0;whiteSpace=wrap;html=1;" vertex="1" parent="WIyWlLk6GJQsqaUBKTNV-1">
          <mxGeometry x="-735" y="3260" width="95" height="20" as="geometry" />
        </mxCell>
        <mxCell id="lBe2rJOazFU3IIZSdX-1-29" value="object obj2" style="rounded=0;whiteSpace=wrap;html=1;" vertex="1" parent="WIyWlLk6GJQsqaUBKTNV-1">
          <mxGeometry x="-735" y="3280" width="95" height="20" as="geometry" />
        </mxCell>
        <mxCell id="lBe2rJOazFU3IIZSdX-1-30" value="object obj3" style="rounded=0;whiteSpace=wrap;html=1;" vertex="1" parent="WIyWlLk6GJQsqaUBKTNV-1">
          <mxGeometry x="-735" y="3300" width="95" height="20" as="geometry" />
        </mxCell>
        <mxCell id="lBe2rJOazFU3IIZSdX-1-31" value="object obj4" style="rounded=0;whiteSpace=wrap;html=1;" vertex="1" parent="WIyWlLk6GJQsqaUBKTNV-1">
          <mxGeometry x="-640" y="3240" width="95" height="20" as="geometry" />
        </mxCell>
        <mxCell id="lBe2rJOazFU3IIZSdX-1-32" value="object obj5" style="rounded=0;whiteSpace=wrap;html=1;" vertex="1" parent="WIyWlLk6GJQsqaUBKTNV-1">
          <mxGeometry x="-640" y="3260" width="95" height="20" as="geometry" />
        </mxCell>
        <mxCell id="lBe2rJOazFU3IIZSdX-1-37" style="edgeStyle=orthogonalEdgeStyle;rounded=0;orthogonalLoop=1;jettySize=auto;html=1;entryX=0;entryY=0.5;entryDx=0;entryDy=0;" edge="1" parent="WIyWlLk6GJQsqaUBKTNV-1" source="lBe2rJOazFU3IIZSdX-1-33" target="lBe2rJOazFU3IIZSdX-1-35">
          <mxGeometry relative="1" as="geometry">
            <Array as="points">
              <mxPoint x="-593" y="3380" />
              <mxPoint x="-800" y="3380" />
              <mxPoint x="-800" y="3095" />
            </Array>
          </mxGeometry>
        </mxCell>
        <mxCell id="lBe2rJOazFU3IIZSdX-1-33" value="object obj6" style="rounded=0;whiteSpace=wrap;html=1;" vertex="1" parent="WIyWlLk6GJQsqaUBKTNV-1">
          <mxGeometry x="-640" y="3280" width="95" height="20" as="geometry" />
        </mxCell>
        <mxCell id="lBe2rJOazFU3IIZSdX-1-34" value="8" style="rounded=0;whiteSpace=wrap;html=1;" vertex="1" parent="WIyWlLk6GJQsqaUBKTNV-1">
          <mxGeometry x="-730" y="3100" width="60" height="60" as="geometry" />
        </mxCell>
        <mxCell id="lBe2rJOazFU3IIZSdX-1-36" value="1" style="rounded=0;whiteSpace=wrap;html=1;" vertex="1" parent="WIyWlLk6GJQsqaUBKTNV-1">
          <mxGeometry x="-760" y="3100" width="30" height="60" as="geometry" />
        </mxCell>
        <mxCell id="lBe2rJOazFU3IIZSdX-1-8" value="object" style="text;html=1;strokeColor=#666666;fillColor=#f5f5f5;align=center;verticalAlign=middle;whiteSpace=wrap;rounded=0;fontColor=#333333;" vertex="1" parent="WIyWlLk6GJQsqaUBKTNV-1">
          <mxGeometry x="-760" y="3000" width="60" height="30" as="geometry" />
        </mxCell>
        <mxCell id="lBe2rJOazFU3IIZSdX-1-35" value="object" style="text;html=1;strokeColor=#666666;fillColor=#f5f5f5;align=center;verticalAlign=middle;whiteSpace=wrap;rounded=0;fontColor=#333333;" vertex="1" parent="WIyWlLk6GJQsqaUBKTNV-1">
          <mxGeometry x="-760" y="3080" width="60" height="30" as="geometry" />
        </mxCell>
        <mxCell id="lBe2rJOazFU3IIZSdX-1-38" value="3" style="rounded=0;whiteSpace=wrap;html=1;" vertex="1" parent="WIyWlLk6GJQsqaUBKTNV-1">
          <mxGeometry x="-600" y="3020" width="60" height="60" as="geometry" />
        </mxCell>
        <mxCell id="lBe2rJOazFU3IIZSdX-1-39" value="1" style="rounded=0;whiteSpace=wrap;html=1;" vertex="1" parent="WIyWlLk6GJQsqaUBKTNV-1">
          <mxGeometry x="-630" y="3020" width="30" height="60" as="geometry" />
        </mxCell>
        <mxCell id="lBe2rJOazFU3IIZSdX-1-40" value="object" style="text;html=1;strokeColor=#666666;fillColor=#f5f5f5;align=center;verticalAlign=middle;whiteSpace=wrap;rounded=0;fontColor=#333333;" vertex="1" parent="WIyWlLk6GJQsqaUBKTNV-1">
          <mxGeometry x="-630" y="3000" width="60" height="30" as="geometry" />
        </mxCell>
        <mxCell id="lBe2rJOazFU3IIZSdX-1-41" value="3" style="rounded=0;whiteSpace=wrap;html=1;" vertex="1" parent="WIyWlLk6GJQsqaUBKTNV-1">
          <mxGeometry x="-600" y="3110" width="60" height="60" as="geometry" />
        </mxCell>
        <mxCell id="lBe2rJOazFU3IIZSdX-1-42" value="1" style="rounded=0;whiteSpace=wrap;html=1;" vertex="1" parent="WIyWlLk6GJQsqaUBKTNV-1">
          <mxGeometry x="-630" y="3110" width="30" height="60" as="geometry" />
        </mxCell>
        <mxCell id="lBe2rJOazFU3IIZSdX-1-43" value="object" style="text;html=1;strokeColor=#666666;fillColor=#f5f5f5;align=center;verticalAlign=middle;whiteSpace=wrap;rounded=0;fontColor=#333333;" vertex="1" parent="WIyWlLk6GJQsqaUBKTNV-1">
          <mxGeometry x="-630" y="3090" width="60" height="30" as="geometry" />
        </mxCell>
        <mxCell id="lBe2rJOazFU3IIZSdX-1-44" value="" style="endArrow=classic;html=1;rounded=0;entryX=0;entryY=0.5;entryDx=0;entryDy=0;" edge="1" parent="WIyWlLk6GJQsqaUBKTNV-1" target="lBe2rJOazFU3IIZSdX-1-14">
          <mxGeometry width="50" height="50" relative="1" as="geometry">
            <mxPoint x="-1030" y="2990" as="sourcePoint" />
            <mxPoint x="-560" y="3140" as="targetPoint" />
          </mxGeometry>
        </mxCell>
        <mxCell id="lBe2rJOazFU3IIZSdX-1-45" value="실제론 TypeInfo 객체를 가리키는 포인터가 들어감" style="text;html=1;strokeColor=none;fillColor=none;align=center;verticalAlign=middle;whiteSpace=wrap;rounded=0;" vertex="1" parent="WIyWlLk6GJQsqaUBKTNV-1">
          <mxGeometry x="-1050" y="2960" width="160" height="30" as="geometry" />
        </mxCell>
        <mxCell id="lBe2rJOazFU3IIZSdX-1-47" value="Garbage&lt;br&gt;Collection" style="rounded=0;whiteSpace=wrap;html=1;fillColor=#dae8fc;strokeColor=#6c8ebf;" vertex="1" parent="WIyWlLk6GJQsqaUBKTNV-1">
          <mxGeometry x="2520" y="10" width="120" height="60" as="geometry" />
        </mxCell>
        <mxCell id="lBe2rJOazFU3IIZSdX-1-48" value="더이상 참조되지 않는 Managed Heap 영역에 있는 객체를 메모리에서 해제해주는 기능" style="text;html=1;strokeColor=#666666;fillColor=#f5f5f5;align=center;verticalAlign=middle;whiteSpace=wrap;rounded=0;fontColor=#333333;" vertex="1" parent="WIyWlLk6GJQsqaUBKTNV-1">
          <mxGeometry x="2650" y="10" width="280" height="60" as="geometry" />
        </mxCell>
        <mxCell id="lBe2rJOazFU3IIZSdX-1-49" value="" style="shape=flexArrow;endArrow=classic;startArrow=classic;html=1;rounded=0;" edge="1" parent="WIyWlLk6GJQsqaUBKTNV-1">
          <mxGeometry width="100" height="100" relative="1" as="geometry">
            <mxPoint x="2560" y="440" as="sourcePoint" />
            <mxPoint x="2560" y="130" as="targetPoint" />
          </mxGeometry>
        </mxCell>
        <mxCell id="lBe2rJOazFU3IIZSdX-1-51" value="High" style="text;html=1;strokeColor=none;fillColor=none;align=center;verticalAlign=middle;whiteSpace=wrap;rounded=0;" vertex="1" parent="WIyWlLk6GJQsqaUBKTNV-1">
          <mxGeometry x="2481" y="125" width="60" height="30" as="geometry" />
        </mxCell>
        <mxCell id="lBe2rJOazFU3IIZSdX-1-52" value="Low" style="text;html=1;strokeColor=none;fillColor=none;align=center;verticalAlign=middle;whiteSpace=wrap;rounded=0;" vertex="1" parent="WIyWlLk6GJQsqaUBKTNV-1">
          <mxGeometry x="2481" y="415" width="60" height="30" as="geometry" />
        </mxCell>
        <mxCell id="lBe2rJOazFU3IIZSdX-1-53" value="Processor" style="rounded=0;whiteSpace=wrap;html=1;fillColor=#e1d5e7;strokeColor=#9673a6;" vertex="1" parent="WIyWlLk6GJQsqaUBKTNV-1">
          <mxGeometry x="2590" y="460" width="80" height="30" as="geometry" />
        </mxCell>
        <mxCell id="lBe2rJOazFU3IIZSdX-1-54" value="Human" style="shape=umlActor;verticalLabelPosition=bottom;verticalAlign=top;html=1;outlineConnect=0;" vertex="1" parent="WIyWlLk6GJQsqaUBKTNV-1">
          <mxGeometry x="2610" y="80" width="30" height="45" as="geometry" />
        </mxCell>
        <mxCell id="lBe2rJOazFU3IIZSdX-1-55" value="C, C++" style="rounded=0;whiteSpace=wrap;html=1;" vertex="1" parent="WIyWlLk6GJQsqaUBKTNV-1">
          <mxGeometry x="2600" y="222.5" width="80" height="45" as="geometry" />
        </mxCell>
        <mxCell id="lBe2rJOazFU3IIZSdX-1-56" value="기계어" style="rounded=0;whiteSpace=wrap;html=1;" vertex="1" parent="WIyWlLk6GJQsqaUBKTNV-1">
          <mxGeometry x="2600" y="395" width="80" height="45" as="geometry" />
        </mxCell>
        <mxCell id="lBe2rJOazFU3IIZSdX-1-57" value="어셈블리어" style="rounded=0;whiteSpace=wrap;html=1;" vertex="1" parent="WIyWlLk6GJQsqaUBKTNV-1">
          <mxGeometry x="2600" y="325" width="80" height="45" as="geometry" />
        </mxCell>
        <mxCell id="lBe2rJOazFU3IIZSdX-1-58" value="OS" style="text;html=1;strokeColor=none;fillColor=none;align=center;verticalAlign=middle;whiteSpace=wrap;rounded=0;" vertex="1" parent="WIyWlLk6GJQsqaUBKTNV-1">
          <mxGeometry x="2670" y="365" width="60" height="30" as="geometry" />
        </mxCell>
        <mxCell id="lBe2rJOazFU3IIZSdX-1-59" value="Virtual Machine&lt;br&gt;(CLR)" style="rounded=0;whiteSpace=wrap;html=1;" vertex="1" parent="WIyWlLk6GJQsqaUBKTNV-1">
          <mxGeometry x="2760" y="222.5" width="80" height="45" as="geometry" />
        </mxCell>
        <mxCell id="lBe2rJOazFU3IIZSdX-1-60" value="C#" style="rounded=0;whiteSpace=wrap;html=1;" vertex="1" parent="WIyWlLk6GJQsqaUBKTNV-1">
          <mxGeometry x="2760" y="110" width="80" height="45" as="geometry" />
        </mxCell>
        <mxCell id="lBe2rJOazFU3IIZSdX-1-61" value="IL&lt;br&gt;(Intermidiate Language)" style="rounded=0;whiteSpace=wrap;html=1;" vertex="1" parent="WIyWlLk6GJQsqaUBKTNV-1">
          <mxGeometry x="2760" y="165" width="80" height="45" as="geometry" />
        </mxCell>
        <mxCell id="lBe2rJOazFU3IIZSdX-1-62" value="" style="rounded=0;whiteSpace=wrap;html=1;" vertex="1" parent="WIyWlLk6GJQsqaUBKTNV-1">
          <mxGeometry x="2920" y="110" width="180" height="340" as="geometry" />
        </mxCell>
        <mxCell id="lBe2rJOazFU3IIZSdX-1-63" value="Heap" style="text;html=1;strokeColor=none;fillColor=none;align=center;verticalAlign=middle;whiteSpace=wrap;rounded=0;" vertex="1" parent="WIyWlLk6GJQsqaUBKTNV-1">
          <mxGeometry x="2980" y="87.5" width="60" height="30" as="geometry" />
        </mxCell>
        <mxCell id="lBe2rJOazFU3IIZSdX-1-64" value="" style="rounded=0;whiteSpace=wrap;html=1;" vertex="1" parent="WIyWlLk6GJQsqaUBKTNV-1">
          <mxGeometry x="2930" y="380" width="150" height="57.5" as="geometry" />
        </mxCell>
        <mxCell id="lBe2rJOazFU3IIZSdX-1-66" value="Main" style="text;html=1;strokeColor=none;fillColor=none;align=center;verticalAlign=middle;whiteSpace=wrap;rounded=0;" vertex="1" parent="WIyWlLk6GJQsqaUBKTNV-1">
          <mxGeometry x="2975" y="360" width="60" height="30" as="geometry" />
        </mxCell>
        <mxCell id="lBe2rJOazFU3IIZSdX-1-69" value="3" style="rounded=0;whiteSpace=wrap;html=1;" vertex="1" parent="WIyWlLk6GJQsqaUBKTNV-1">
          <mxGeometry x="2960" y="140" width="90" height="60" as="geometry" />
        </mxCell>
        <mxCell id="lBe2rJOazFU3IIZSdX-1-70" value="obj" style="rounded=0;whiteSpace=wrap;html=1;fillColor=#f5f5f5;fontColor=#333333;strokeColor=#666666;" vertex="1" parent="WIyWlLk6GJQsqaUBKTNV-1">
          <mxGeometry x="2930" y="120" width="50" height="20" as="geometry" />
        </mxCell>
        <mxCell id="lBe2rJOazFU3IIZSdX-1-71" value="*int&lt;br&gt;Info" style="rounded=0;whiteSpace=wrap;html=1;" vertex="1" parent="WIyWlLk6GJQsqaUBKTNV-1">
          <mxGeometry x="2930" y="140" width="30" height="60" as="geometry" />
        </mxCell>
        <mxCell id="lBe2rJOazFU3IIZSdX-1-72" value="3" style="rounded=0;whiteSpace=wrap;html=1;" vertex="1" parent="WIyWlLk6GJQsqaUBKTNV-1">
          <mxGeometry x="2960" y="220" width="90" height="60" as="geometry" />
        </mxCell>
        <mxCell id="lBe2rJOazFU3IIZSdX-1-73" value="obj" style="rounded=0;whiteSpace=wrap;html=1;fillColor=#f5f5f5;fontColor=#333333;strokeColor=#666666;" vertex="1" parent="WIyWlLk6GJQsqaUBKTNV-1">
          <mxGeometry x="2930" y="200" width="50" height="20" as="geometry" />
        </mxCell>
        <mxCell id="lBe2rJOazFU3IIZSdX-1-74" value="*int&lt;br&gt;Info" style="rounded=0;whiteSpace=wrap;html=1;" vertex="1" parent="WIyWlLk6GJQsqaUBKTNV-1">
          <mxGeometry x="2930" y="220" width="30" height="60" as="geometry" />
        </mxCell>
        <mxCell id="lBe2rJOazFU3IIZSdX-1-77" style="edgeStyle=orthogonalEdgeStyle;rounded=0;orthogonalLoop=1;jettySize=auto;html=1;entryX=0;entryY=0.5;entryDx=0;entryDy=0;" edge="1" parent="WIyWlLk6GJQsqaUBKTNV-1" target="lBe2rJOazFU3IIZSdX-1-71">
          <mxGeometry relative="1" as="geometry">
            <mxPoint x="2940" y="325" as="sourcePoint" />
            <Array as="points">
              <mxPoint x="2910" y="325" />
              <mxPoint x="2910" y="170" />
            </Array>
          </mxGeometry>
        </mxCell>
        <mxCell id="lBe2rJOazFU3IIZSdX-1-78" style="edgeStyle=orthogonalEdgeStyle;rounded=0;orthogonalLoop=1;jettySize=auto;html=1;entryX=0;entryY=0.5;entryDx=0;entryDy=0;" edge="1" parent="WIyWlLk6GJQsqaUBKTNV-1" target="lBe2rJOazFU3IIZSdX-1-74">
          <mxGeometry relative="1" as="geometry">
            <mxPoint x="2940" y="352.5" as="sourcePoint" />
            <Array as="points">
              <mxPoint x="2880" y="353" />
              <mxPoint x="2880" y="250" />
            </Array>
          </mxGeometry>
        </mxCell>
        <mxCell id="lBe2rJOazFU3IIZSdX-1-79" value="" style="endArrow=none;html=1;rounded=0;" edge="1" parent="WIyWlLk6GJQsqaUBKTNV-1">
          <mxGeometry width="50" height="50" relative="1" as="geometry">
            <mxPoint x="3565" y="335" as="sourcePoint" />
            <mxPoint x="3525" y="295" as="targetPoint" />
          </mxGeometry>
        </mxCell>
        <mxCell id="lBe2rJOazFU3IIZSdX-1-80" value="" style="endArrow=none;html=1;rounded=0;" edge="1" parent="WIyWlLk6GJQsqaUBKTNV-1">
          <mxGeometry width="50" height="50" relative="1" as="geometry">
            <mxPoint x="3605" y="315" as="sourcePoint" />
            <mxPoint x="3525" y="295" as="targetPoint" />
          </mxGeometry>
        </mxCell>
        <mxCell id="lBe2rJOazFU3IIZSdX-1-81" value="" style="endArrow=none;html=1;rounded=0;" edge="1" parent="WIyWlLk6GJQsqaUBKTNV-1">
          <mxGeometry width="50" height="50" relative="1" as="geometry">
            <mxPoint x="3535" y="415" as="sourcePoint" />
            <mxPoint x="3565" y="335" as="targetPoint" />
          </mxGeometry>
        </mxCell>
        <mxCell id="lBe2rJOazFU3IIZSdX-1-82" value="" style="endArrow=none;html=1;rounded=0;" edge="1" parent="WIyWlLk6GJQsqaUBKTNV-1">
          <mxGeometry width="50" height="50" relative="1" as="geometry">
            <mxPoint x="3605" y="315" as="sourcePoint" />
            <mxPoint x="3585" y="385" as="targetPoint" />
          </mxGeometry>
        </mxCell>
        <mxCell id="lBe2rJOazFU3IIZSdX-1-83" value="" style="endArrow=none;html=1;rounded=0;" edge="1" parent="WIyWlLk6GJQsqaUBKTNV-1">
          <mxGeometry width="50" height="50" relative="1" as="geometry">
            <mxPoint x="3585" y="385" as="sourcePoint" />
            <mxPoint x="3535" y="415" as="targetPoint" />
          </mxGeometry>
        </mxCell>
        <mxCell id="lBe2rJOazFU3IIZSdX-1-84" value="스칼라&lt;br&gt;&lt;br&gt;크기 성질" style="text;html=1;strokeColor=#666666;fillColor=#f5f5f5;align=center;verticalAlign=middle;whiteSpace=wrap;rounded=0;fontColor=#333333;" vertex="1" parent="WIyWlLk6GJQsqaUBKTNV-1">
          <mxGeometry x="3500" y="135" width="110" height="65" as="geometry" />
        </mxCell>
        <mxCell id="lBe2rJOazFU3IIZSdX-1-86" value="벡터&lt;br&gt;&lt;br&gt;크기 성질 +&amp;nbsp;&lt;br&gt;방향 성질" style="text;html=1;strokeColor=#666666;fillColor=#f5f5f5;align=center;verticalAlign=middle;whiteSpace=wrap;rounded=0;fontColor=#333333;" vertex="1" parent="WIyWlLk6GJQsqaUBKTNV-1">
          <mxGeometry x="3690" y="135" width="110" height="65" as="geometry" />
        </mxCell>
        <mxCell id="lBe2rJOazFU3IIZSdX-1-87" value="16km/h" style="text;html=1;strokeColor=none;fillColor=none;align=center;verticalAlign=middle;whiteSpace=wrap;rounded=0;" vertex="1" parent="WIyWlLk6GJQsqaUBKTNV-1">
          <mxGeometry x="3505" y="225" width="100" height="50" as="geometry" />
        </mxCell>
        <mxCell id="lBe2rJOazFU3IIZSdX-1-88" value="동쪽으로&lt;br&gt;16km/h" style="text;html=1;strokeColor=none;fillColor=none;align=center;verticalAlign=middle;whiteSpace=wrap;rounded=0;" vertex="1" parent="WIyWlLk6GJQsqaUBKTNV-1">
          <mxGeometry x="3695" y="222.5" width="100" height="50" as="geometry" />
        </mxCell>
        <mxCell id="lBe2rJOazFU3IIZSdX-1-89" value="" style="endArrow=classic;html=1;rounded=0;" edge="1" parent="WIyWlLk6GJQsqaUBKTNV-1">
          <mxGeometry width="50" height="50" relative="1" as="geometry">
            <mxPoint x="3690" y="356" as="sourcePoint" />
            <mxPoint x="3855" y="435.5" as="targetPoint" />
          </mxGeometry>
        </mxCell>
        <mxCell id="lBe2rJOazFU3IIZSdX-1-90" value="" style="endArrow=classic;html=1;rounded=0;" edge="1" parent="WIyWlLk6GJQsqaUBKTNV-1">
          <mxGeometry width="50" height="50" relative="1" as="geometry">
            <mxPoint x="3700" y="380" as="sourcePoint" />
            <mxPoint x="3840" y="320" as="targetPoint" />
          </mxGeometry>
        </mxCell>
        <mxCell id="lBe2rJOazFU3IIZSdX-1-91" value="" style="endArrow=classic;html=1;rounded=0;" edge="1" parent="WIyWlLk6GJQsqaUBKTNV-1">
          <mxGeometry width="50" height="50" relative="1" as="geometry">
            <mxPoint x="3720" y="446" as="sourcePoint" />
            <mxPoint x="3720" y="290" as="targetPoint" />
          </mxGeometry>
        </mxCell>
        <mxCell id="lBe2rJOazFU3IIZSdX-1-92" value="x" style="text;html=1;strokeColor=none;fillColor=none;align=center;verticalAlign=middle;whiteSpace=wrap;rounded=0;" vertex="1" parent="WIyWlLk6GJQsqaUBKTNV-1">
          <mxGeometry x="3850" y="420" width="60" height="30" as="geometry" />
        </mxCell>
        <mxCell id="lBe2rJOazFU3IIZSdX-1-93" value="z" style="text;html=1;strokeColor=none;fillColor=none;align=center;verticalAlign=middle;whiteSpace=wrap;rounded=0;" vertex="1" parent="WIyWlLk6GJQsqaUBKTNV-1">
          <mxGeometry x="3840" y="310" width="60" height="30" as="geometry" />
        </mxCell>
        <mxCell id="lBe2rJOazFU3IIZSdX-1-94" value="y" style="text;html=1;strokeColor=none;fillColor=none;align=center;verticalAlign=middle;whiteSpace=wrap;rounded=0;" vertex="1" parent="WIyWlLk6GJQsqaUBKTNV-1">
          <mxGeometry x="3662" y="275" width="60" height="30" as="geometry" />
        </mxCell>
        <mxCell id="lBe2rJOazFU3IIZSdX-1-95" value="" style="endArrow=classic;html=1;rounded=0;fillColor=#f8cecc;strokeColor=#b85450;" edge="1" parent="WIyWlLk6GJQsqaUBKTNV-1">
          <mxGeometry width="50" height="50" relative="1" as="geometry">
            <mxPoint x="3720" y="370" as="sourcePoint" />
            <mxPoint x="3820" y="360" as="targetPoint" />
          </mxGeometry>
        </mxCell>
        <mxCell id="lBe2rJOazFU3IIZSdX-1-96" value="" style="endArrow=classic;html=1;rounded=0;" edge="1" parent="WIyWlLk6GJQsqaUBKTNV-1">
          <mxGeometry width="50" height="50" relative="1" as="geometry">
            <mxPoint x="3920" y="230" as="sourcePoint" />
            <mxPoint x="4090" y="230" as="targetPoint" />
          </mxGeometry>
        </mxCell>
        <mxCell id="lBe2rJOazFU3IIZSdX-1-97" value="" style="endArrow=classic;html=1;rounded=0;" edge="1" parent="WIyWlLk6GJQsqaUBKTNV-1">
          <mxGeometry width="50" height="50" relative="1" as="geometry">
            <mxPoint x="3930" y="240" as="sourcePoint" />
            <mxPoint x="3930" y="120" as="targetPoint" />
          </mxGeometry>
        </mxCell>
        <mxCell id="lBe2rJOazFU3IIZSdX-1-98" value="x" style="text;html=1;strokeColor=none;fillColor=none;align=center;verticalAlign=middle;whiteSpace=wrap;rounded=0;" vertex="1" parent="WIyWlLk6GJQsqaUBKTNV-1">
          <mxGeometry x="4100" y="222.5" width="60" height="30" as="geometry" />
        </mxCell>
        <mxCell id="lBe2rJOazFU3IIZSdX-1-99" value="y" style="text;html=1;strokeColor=none;fillColor=none;align=center;verticalAlign=middle;whiteSpace=wrap;rounded=0;" vertex="1" parent="WIyWlLk6GJQsqaUBKTNV-1">
          <mxGeometry x="3860" y="95" width="60" height="30" as="geometry" />
        </mxCell>
        <mxCell id="lBe2rJOazFU3IIZSdX-1-100" value="" style="endArrow=classic;html=1;rounded=0;fillColor=#f8cecc;strokeColor=#b85450;strokeWidth=2;" edge="1" parent="WIyWlLk6GJQsqaUBKTNV-1">
          <mxGeometry width="50" height="50" relative="1" as="geometry">
            <mxPoint x="3930" y="230" as="sourcePoint" />
            <mxPoint x="4050" y="140" as="targetPoint" />
          </mxGeometry>
        </mxCell>
        <mxCell id="lBe2rJOazFU3IIZSdX-1-101" value="" style="endArrow=none;dashed=1;html=1;dashPattern=1 3;strokeWidth=2;rounded=0;" edge="1" parent="WIyWlLk6GJQsqaUBKTNV-1">
          <mxGeometry width="50" height="50" relative="1" as="geometry">
            <mxPoint x="4050" y="230" as="sourcePoint" />
            <mxPoint x="4050" y="142.5" as="targetPoint" />
          </mxGeometry>
        </mxCell>
        <mxCell id="lBe2rJOazFU3IIZSdX-1-102" value="" style="endArrow=none;dashed=1;html=1;dashPattern=1 3;strokeWidth=2;rounded=0;" edge="1" parent="WIyWlLk6GJQsqaUBKTNV-1">
          <mxGeometry width="50" height="50" relative="1" as="geometry">
            <mxPoint x="3930" y="140" as="sourcePoint" />
            <mxPoint x="4050" y="140" as="targetPoint" />
          </mxGeometry>
        </mxCell>
        <mxCell id="lBe2rJOazFU3IIZSdX-1-103" value="3" style="text;html=1;strokeColor=none;fillColor=none;align=center;verticalAlign=middle;whiteSpace=wrap;rounded=0;" vertex="1" parent="WIyWlLk6GJQsqaUBKTNV-1">
          <mxGeometry x="4020" y="235" width="60" height="30" as="geometry" />
        </mxCell>
        <mxCell id="lBe2rJOazFU3IIZSdX-1-104" value="0,0" style="text;html=1;strokeColor=none;fillColor=none;align=center;verticalAlign=middle;whiteSpace=wrap;rounded=0;" vertex="1" parent="WIyWlLk6GJQsqaUBKTNV-1">
          <mxGeometry x="3890" y="267.5" width="60" height="30" as="geometry" />
        </mxCell>
        <mxCell id="lBe2rJOazFU3IIZSdX-1-105" value="2" style="text;html=1;strokeColor=none;fillColor=none;align=center;verticalAlign=middle;whiteSpace=wrap;rounded=0;" vertex="1" parent="WIyWlLk6GJQsqaUBKTNV-1">
          <mxGeometry x="3870" y="135" width="60" height="30" as="geometry" />
        </mxCell>
        <mxCell id="lBe2rJOazFU3IIZSdX-1-107" value="v2 = 3i + 2j" style="text;html=1;strokeColor=none;fillColor=none;align=center;verticalAlign=middle;whiteSpace=wrap;rounded=0;" vertex="1" parent="WIyWlLk6GJQsqaUBKTNV-1">
          <mxGeometry x="4050" y="100" width="110" height="30" as="geometry" />
        </mxCell>
        <mxCell id="lBe2rJOazFU3IIZSdX-1-108" value="" style="endArrow=classic;html=1;rounded=0;fillColor=#d5e8d4;strokeColor=#82b366;strokeWidth=2;" edge="1" parent="WIyWlLk6GJQsqaUBKTNV-1">
          <mxGeometry width="50" height="50" relative="1" as="geometry">
            <mxPoint x="3930" y="230" as="sourcePoint" />
            <mxPoint x="4050" y="230" as="targetPoint" />
          </mxGeometry>
        </mxCell>
        <mxCell id="lBe2rJOazFU3IIZSdX-1-109" value="v1 = 3i&amp;nbsp;" style="text;html=1;strokeColor=none;fillColor=none;align=center;verticalAlign=middle;whiteSpace=wrap;rounded=0;" vertex="1" parent="WIyWlLk6GJQsqaUBKTNV-1">
          <mxGeometry x="4060" y="265" width="60" height="30" as="geometry" />
        </mxCell>
        <mxCell id="lBe2rJOazFU3IIZSdX-1-111" value="&lt;font style=&quot;font-size: 17px;&quot;&gt;&lt;b&gt;dot production&lt;br&gt;v1&amp;nbsp;∙&amp;nbsp;v2&lt;/b&gt;&lt;/font&gt;" style="text;html=1;strokeColor=#d6b656;fillColor=#fff2cc;align=center;verticalAlign=middle;whiteSpace=wrap;rounded=0;" vertex="1" parent="WIyWlLk6GJQsqaUBKTNV-1">
          <mxGeometry x="4000" y="351" width="180" height="59" as="geometry" />
        </mxCell>
        <mxCell id="lBe2rJOazFU3IIZSdX-1-113" value="&lt;font style=&quot;font-size: 17px;&quot;&gt;&lt;b&gt;cross production&lt;br&gt;v1 x v2&lt;/b&gt;&lt;/font&gt;" style="text;html=1;strokeColor=#d6b656;fillColor=#fff2cc;align=center;verticalAlign=middle;whiteSpace=wrap;rounded=0;" vertex="1" parent="WIyWlLk6GJQsqaUBKTNV-1">
          <mxGeometry x="4005" y="430" width="175" height="59" as="geometry" />
        </mxCell>
        <mxCell id="lBe2rJOazFU3IIZSdX-1-114" value="v1 축 기준으로 v1,v2의 크기(스칼라) 를 곱하는 곱셈연산" style="text;html=1;strokeColor=none;fillColor=none;align=center;verticalAlign=middle;whiteSpace=wrap;rounded=0;" vertex="1" parent="WIyWlLk6GJQsqaUBKTNV-1">
          <mxGeometry x="4200" y="350.5" width="130" height="60" as="geometry" />
        </mxCell>
        <mxCell id="lBe2rJOazFU3IIZSdX-1-116" value="" style="endArrow=classic;html=1;rounded=0;" edge="1" parent="WIyWlLk6GJQsqaUBKTNV-1">
          <mxGeometry width="50" height="50" relative="1" as="geometry">
            <mxPoint x="4240" y="227.5" as="sourcePoint" />
            <mxPoint x="4410" y="227.5" as="targetPoint" />
          </mxGeometry>
        </mxCell>
        <mxCell id="lBe2rJOazFU3IIZSdX-1-117" value="" style="endArrow=classic;html=1;rounded=0;" edge="1" parent="WIyWlLk6GJQsqaUBKTNV-1">
          <mxGeometry width="50" height="50" relative="1" as="geometry">
            <mxPoint x="4250" y="237.5" as="sourcePoint" />
            <mxPoint x="4250" y="117.5" as="targetPoint" />
          </mxGeometry>
        </mxCell>
        <mxCell id="lBe2rJOazFU3IIZSdX-1-118" value="x" style="text;html=1;strokeColor=none;fillColor=none;align=center;verticalAlign=middle;whiteSpace=wrap;rounded=0;" vertex="1" parent="WIyWlLk6GJQsqaUBKTNV-1">
          <mxGeometry x="4420" y="220" width="60" height="30" as="geometry" />
        </mxCell>
        <mxCell id="lBe2rJOazFU3IIZSdX-1-119" value="y" style="text;html=1;strokeColor=none;fillColor=none;align=center;verticalAlign=middle;whiteSpace=wrap;rounded=0;" vertex="1" parent="WIyWlLk6GJQsqaUBKTNV-1">
          <mxGeometry x="4180" y="92.5" width="60" height="30" as="geometry" />
        </mxCell>
        <mxCell id="lBe2rJOazFU3IIZSdX-1-120" value="" style="endArrow=classic;html=1;rounded=0;fillColor=#f8cecc;strokeColor=#b85450;strokeWidth=2;" edge="1" parent="WIyWlLk6GJQsqaUBKTNV-1">
          <mxGeometry width="50" height="50" relative="1" as="geometry">
            <mxPoint x="4250" y="227.5" as="sourcePoint" />
            <mxPoint x="4370" y="137.5" as="targetPoint" />
          </mxGeometry>
        </mxCell>
        <mxCell id="lBe2rJOazFU3IIZSdX-1-126" value="v2&amp;nbsp;" style="text;html=1;strokeColor=none;fillColor=none;align=center;verticalAlign=middle;whiteSpace=wrap;rounded=0;" vertex="1" parent="WIyWlLk6GJQsqaUBKTNV-1">
          <mxGeometry x="4370" y="97.5" width="70" height="30" as="geometry" />
        </mxCell>
        <mxCell id="lBe2rJOazFU3IIZSdX-1-127" value="" style="endArrow=classic;html=1;rounded=0;fillColor=#d5e8d4;strokeColor=#82b366;strokeWidth=2;" edge="1" parent="WIyWlLk6GJQsqaUBKTNV-1">
          <mxGeometry width="50" height="50" relative="1" as="geometry">
            <mxPoint x="4250" y="227.5" as="sourcePoint" />
            <mxPoint x="4350" y="200" as="targetPoint" />
          </mxGeometry>
        </mxCell>
        <mxCell id="lBe2rJOazFU3IIZSdX-1-128" value="v1&amp;nbsp;" style="text;html=1;strokeColor=none;fillColor=none;align=center;verticalAlign=middle;whiteSpace=wrap;rounded=0;" vertex="1" parent="WIyWlLk6GJQsqaUBKTNV-1">
          <mxGeometry x="4340" y="200" width="60" height="30" as="geometry" />
        </mxCell>
        <mxCell id="lBe2rJOazFU3IIZSdX-1-129" value="|v1|" style="text;html=1;strokeColor=none;fillColor=none;align=center;verticalAlign=middle;whiteSpace=wrap;rounded=0;" vertex="1" parent="WIyWlLk6GJQsqaUBKTNV-1">
          <mxGeometry x="4280" y="205" width="60" height="30" as="geometry" />
        </mxCell>
        <mxCell id="lBe2rJOazFU3IIZSdX-1-130" value="|v2|" style="text;html=1;strokeColor=none;fillColor=none;align=center;verticalAlign=middle;whiteSpace=wrap;rounded=0;" vertex="1" parent="WIyWlLk6GJQsqaUBKTNV-1">
          <mxGeometry x="4270" y="145" width="60" height="30" as="geometry" />
        </mxCell>
        <mxCell id="lBe2rJOazFU3IIZSdX-1-133" value="" style="endArrow=none;dashed=1;html=1;rounded=0;" edge="1" parent="WIyWlLk6GJQsqaUBKTNV-1">
          <mxGeometry width="50" height="50" relative="1" as="geometry">
            <mxPoint x="4350" y="200" as="sourcePoint" />
            <mxPoint x="4500" y="160" as="targetPoint" />
          </mxGeometry>
        </mxCell>
        <mxCell id="lBe2rJOazFU3IIZSdX-1-134" value="" style="endArrow=openAsync;dashed=1;html=1;rounded=0;endFill=0;" edge="1" parent="WIyWlLk6GJQsqaUBKTNV-1">
          <mxGeometry width="50" height="50" relative="1" as="geometry">
            <mxPoint x="4370" y="140" as="sourcePoint" />
            <mxPoint x="4390" y="190" as="targetPoint" />
          </mxGeometry>
        </mxCell>
        <mxCell id="lBe2rJOazFU3IIZSdX-1-135" value="" style="curved=1;endArrow=none;html=1;rounded=0;endFill=0;" edge="1" parent="WIyWlLk6GJQsqaUBKTNV-1">
          <mxGeometry width="50" height="50" relative="1" as="geometry">
            <mxPoint x="4310" y="210" as="sourcePoint" />
            <mxPoint x="4300" y="190" as="targetPoint" />
            <Array as="points">
              <mxPoint x="4310" y="190" />
            </Array>
          </mxGeometry>
        </mxCell>
        <mxCell id="lBe2rJOazFU3IIZSdX-1-136" value="θ" style="text;html=1;strokeColor=none;fillColor=none;align=center;verticalAlign=middle;whiteSpace=wrap;rounded=0;" vertex="1" parent="WIyWlLk6GJQsqaUBKTNV-1">
          <mxGeometry x="4290" y="180" width="60" height="30" as="geometry" />
        </mxCell>
        <mxCell id="lBe2rJOazFU3IIZSdX-1-137" value="(3i) * (3i + 2j) = 6 ij = = 6 k" style="text;html=1;strokeColor=none;fillColor=none;align=center;verticalAlign=middle;whiteSpace=wrap;rounded=0;" vertex="1" parent="WIyWlLk6GJQsqaUBKTNV-1">
          <mxGeometry x="4360" y="440" width="170" height="30" as="geometry" />
        </mxCell>
        <mxCell id="lBe2rJOazFU3IIZSdX-1-140" value="" style="ellipse;whiteSpace=wrap;html=1;aspect=fixed;" vertex="1" parent="WIyWlLk6GJQsqaUBKTNV-1">
          <mxGeometry x="4580" y="125" width="80" height="80" as="geometry" />
        </mxCell>
        <mxCell id="lBe2rJOazFU3IIZSdX-1-141" value="i" style="text;html=1;strokeColor=none;fillColor=none;align=center;verticalAlign=middle;whiteSpace=wrap;rounded=0;" vertex="1" parent="WIyWlLk6GJQsqaUBKTNV-1">
          <mxGeometry x="4590" y="80" width="60" height="30" as="geometry" />
        </mxCell>
        <mxCell id="lBe2rJOazFU3IIZSdX-1-142" value="j" style="text;html=1;strokeColor=none;fillColor=none;align=center;verticalAlign=middle;whiteSpace=wrap;rounded=0;" vertex="1" parent="WIyWlLk6GJQsqaUBKTNV-1">
          <mxGeometry x="4660" y="210" width="60" height="20" as="geometry" />
        </mxCell>
        <mxCell id="lBe2rJOazFU3IIZSdX-1-143" value="k" style="text;html=1;strokeColor=none;fillColor=none;align=center;verticalAlign=middle;whiteSpace=wrap;rounded=0;" vertex="1" parent="WIyWlLk6GJQsqaUBKTNV-1">
          <mxGeometry x="4549" y="205" width="60" height="30" as="geometry" />
        </mxCell>
        <mxCell id="lBe2rJOazFU3IIZSdX-1-144" value="" style="endArrow=classic;html=1;rounded=0;" edge="1" parent="WIyWlLk6GJQsqaUBKTNV-1">
          <mxGeometry width="50" height="50" relative="1" as="geometry">
            <mxPoint x="4660" y="120" as="sourcePoint" />
            <mxPoint x="4700" y="180" as="targetPoint" />
          </mxGeometry>
        </mxCell>
        <mxCell id="lBe2rJOazFU3IIZSdX-1-145" value="" style="endArrow=classic;html=1;rounded=0;" edge="1" parent="WIyWlLk6GJQsqaUBKTNV-1">
          <mxGeometry width="50" height="50" relative="1" as="geometry">
            <mxPoint x="4670" y="240" as="sourcePoint" />
            <mxPoint x="4600" y="240" as="targetPoint" />
          </mxGeometry>
        </mxCell>
        <mxCell id="lBe2rJOazFU3IIZSdX-1-146" value="" style="endArrow=classic;html=1;rounded=0;entryX=0;entryY=1;entryDx=0;entryDy=0;" edge="1" parent="WIyWlLk6GJQsqaUBKTNV-1" target="lBe2rJOazFU3IIZSdX-1-141">
          <mxGeometry width="50" height="50" relative="1" as="geometry">
            <mxPoint x="4550" y="170" as="sourcePoint" />
            <mxPoint x="4610" y="250" as="targetPoint" />
          </mxGeometry>
        </mxCell>
        <mxCell id="lBe2rJOazFU3IIZSdX-1-147" value="v1 의 모든 축 성분과&lt;br&gt;v2 의 모든 축 성분을&lt;br&gt;곱하는 곱셈연산" style="text;html=1;strokeColor=none;fillColor=none;align=center;verticalAlign=middle;whiteSpace=wrap;rounded=0;" vertex="1" parent="WIyWlLk6GJQsqaUBKTNV-1">
          <mxGeometry x="4200" y="429" width="130" height="60" as="geometry" />
        </mxCell>
        <mxCell id="lBe2rJOazFU3IIZSdX-1-148" value="&amp;nbsp;|v1| * |v2|cosθ&amp;nbsp;" style="text;html=1;strokeColor=none;fillColor=none;align=center;verticalAlign=middle;whiteSpace=wrap;rounded=0;" vertex="1" parent="WIyWlLk6GJQsqaUBKTNV-1">
          <mxGeometry x="4360" y="370" width="170" height="30" as="geometry" />
        </mxCell>
        <mxCell id="lBe2rJOazFU3IIZSdX-1-149" value="3&amp;nbsp; * 3" style="text;html=1;strokeColor=none;fillColor=none;align=center;verticalAlign=middle;whiteSpace=wrap;rounded=0;" vertex="1" parent="WIyWlLk6GJQsqaUBKTNV-1">
          <mxGeometry x="4360" y="340" width="170" height="30" as="geometry" />
        </mxCell>
        <mxCell id="lBe2rJOazFU3IIZSdX-1-150" value="(x1i + y1j + z1k) x (x2i + y2j + z2k)&lt;br&gt;=&lt;br&gt;x1y2k - x1z2j&lt;br&gt;-x2y1k + y1z2i&lt;br&gt;x2z1j - y2z1i&lt;br&gt;=(y1z2 - y2z1)i + (x2z1 - x1z2)j + (x1y2 - x2y1)k" style="text;html=1;strokeColor=none;fillColor=none;align=center;verticalAlign=middle;whiteSpace=wrap;rounded=0;" vertex="1" parent="WIyWlLk6GJQsqaUBKTNV-1">
          <mxGeometry x="4365" y="475" width="315" height="85" as="geometry" />
        </mxCell>
        <mxCell id="lBe2rJOazFU3IIZSdX-1-151" value="(A, B, C)" style="text;html=1;strokeColor=none;fillColor=none;align=center;verticalAlign=middle;whiteSpace=wrap;rounded=0;" vertex="1" parent="WIyWlLk6GJQsqaUBKTNV-1">
          <mxGeometry x="4250" y="740" width="60" height="30" as="geometry" />
        </mxCell>
        <mxCell id="lBe2rJOazFU3IIZSdX-1-152" value="" style="endArrow=none;html=1;rounded=0;" edge="1" parent="WIyWlLk6GJQsqaUBKTNV-1">
          <mxGeometry width="50" height="50" relative="1" as="geometry">
            <mxPoint x="4010" y="750" as="sourcePoint" />
            <mxPoint x="4060" y="700" as="targetPoint" />
          </mxGeometry>
        </mxCell>
        <mxCell id="lBe2rJOazFU3IIZSdX-1-153" value="" style="endArrow=none;html=1;rounded=0;" edge="1" parent="WIyWlLk6GJQsqaUBKTNV-1">
          <mxGeometry width="50" height="50" relative="1" as="geometry">
            <mxPoint x="4010" y="750" as="sourcePoint" />
            <mxPoint x="4070" y="780" as="targetPoint" />
          </mxGeometry>
        </mxCell>
        <mxCell id="lBe2rJOazFU3IIZSdX-1-154" value="" style="endArrow=none;html=1;rounded=0;" edge="1" parent="WIyWlLk6GJQsqaUBKTNV-1">
          <mxGeometry width="50" height="50" relative="1" as="geometry">
            <mxPoint x="4070" y="780" as="sourcePoint" />
            <mxPoint x="4060" y="700" as="targetPoint" />
          </mxGeometry>
        </mxCell>
        <mxCell id="lBe2rJOazFU3IIZSdX-1-156" value="A" style="text;html=1;strokeColor=none;fillColor=none;align=center;verticalAlign=middle;whiteSpace=wrap;rounded=0;" vertex="1" parent="WIyWlLk6GJQsqaUBKTNV-1">
          <mxGeometry x="4020" y="674" width="60" height="30" as="geometry" />
        </mxCell>
        <mxCell id="lBe2rJOazFU3IIZSdX-1-157" value="B" style="text;html=1;strokeColor=none;fillColor=none;align=center;verticalAlign=middle;whiteSpace=wrap;rounded=0;" vertex="1" parent="WIyWlLk6GJQsqaUBKTNV-1">
          <mxGeometry x="3960" y="755" width="60" height="30" as="geometry" />
        </mxCell>
        <mxCell id="lBe2rJOazFU3IIZSdX-1-158" value="C" style="text;html=1;strokeColor=none;fillColor=none;align=center;verticalAlign=middle;whiteSpace=wrap;rounded=0;" vertex="1" parent="WIyWlLk6GJQsqaUBKTNV-1">
          <mxGeometry x="4060" y="770" width="60" height="30" as="geometry" />
        </mxCell>
        <mxCell id="lBe2rJOazFU3IIZSdX-1-159" value="(A, C, B)" style="text;html=1;strokeColor=none;fillColor=none;align=center;verticalAlign=middle;whiteSpace=wrap;rounded=0;" vertex="1" parent="WIyWlLk6GJQsqaUBKTNV-1">
          <mxGeometry x="4250" y="780" width="60" height="30" as="geometry" />
        </mxCell>
        <mxCell id="lBe2rJOazFU3IIZSdX-1-160" value="&lt;font style=&quot;font-size: 16px;&quot;&gt;Generation&lt;/font&gt;" style="rounded=0;whiteSpace=wrap;html=1;" vertex="1" parent="WIyWlLk6GJQsqaUBKTNV-1">
          <mxGeometry x="2860" y="642" width="135" height="50" as="geometry" />
        </mxCell>
        <mxCell id="lBe2rJOazFU3IIZSdX-1-161" value="&lt;font style=&quot;font-size: 16px;&quot;&gt;0&lt;/font&gt;" style="rounded=0;whiteSpace=wrap;html=1;" vertex="1" parent="WIyWlLk6GJQsqaUBKTNV-1">
          <mxGeometry x="2860" y="692" width="135" height="50" as="geometry" />
        </mxCell>
        <mxCell id="lBe2rJOazFU3IIZSdX-1-162" value="&lt;font style=&quot;font-size: 16px;&quot;&gt;1&lt;/font&gt;" style="rounded=0;whiteSpace=wrap;html=1;" vertex="1" parent="WIyWlLk6GJQsqaUBKTNV-1">
          <mxGeometry x="2860" y="742" width="135" height="50" as="geometry" />
        </mxCell>
        <mxCell id="lBe2rJOazFU3IIZSdX-1-163" value="&lt;font style=&quot;font-size: 16px;&quot;&gt;2&lt;/font&gt;" style="rounded=0;whiteSpace=wrap;html=1;" vertex="1" parent="WIyWlLk6GJQsqaUBKTNV-1">
          <mxGeometry x="2860" y="792" width="135" height="50" as="geometry" />
        </mxCell>
        <mxCell id="lBe2rJOazFU3IIZSdX-1-164" value="가비지 컬렉션을 할때는, 세대를 나누어서 진행." style="text;html=1;strokeColor=none;fillColor=none;align=center;verticalAlign=middle;whiteSpace=wrap;rounded=0;" vertex="1" parent="WIyWlLk6GJQsqaUBKTNV-1">
          <mxGeometry x="2895" y="570" width="465" height="60" as="geometry" />
        </mxCell>
        <mxCell id="lBe2rJOazFU3IIZSdX-1-165" value="&lt;span style=&quot;font-size: 16px;&quot;&gt;한번도 GC 시도가 일어나지 않은, 갓 만들어진 객체&lt;/span&gt;" style="rounded=0;whiteSpace=wrap;html=1;" vertex="1" parent="WIyWlLk6GJQsqaUBKTNV-1">
          <mxGeometry x="2600" y="692" width="260" height="50" as="geometry" />
        </mxCell>
        <mxCell id="lBe2rJOazFU3IIZSdX-1-166" value="&lt;span style=&quot;font-size: 16px;&quot;&gt;0세대에서 한번 GC 시도가 일어난 객체&lt;/span&gt;" style="rounded=0;whiteSpace=wrap;html=1;" vertex="1" parent="WIyWlLk6GJQsqaUBKTNV-1">
          <mxGeometry x="2600" y="742" width="260" height="50" as="geometry" />
        </mxCell>
        <mxCell id="lBe2rJOazFU3IIZSdX-1-167" value="&lt;span style=&quot;font-size: 16px;&quot;&gt;1세대에서 한번 GC 시도가 일어난 객체&lt;/span&gt;" style="rounded=0;whiteSpace=wrap;html=1;" vertex="1" parent="WIyWlLk6GJQsqaUBKTNV-1">
          <mxGeometry x="2600" y="792" width="260" height="50" as="geometry" />
        </mxCell>
        <mxCell id="lBe2rJOazFU3IIZSdX-1-171" style="edgeStyle=orthogonalEdgeStyle;rounded=0;orthogonalLoop=1;jettySize=auto;html=1;entryX=0.5;entryY=0;entryDx=0;entryDy=0;" edge="1" parent="WIyWlLk6GJQsqaUBKTNV-1" source="lBe2rJOazFU3IIZSdX-1-168" target="lBe2rJOazFU3IIZSdX-1-170">
          <mxGeometry relative="1" as="geometry" />
        </mxCell>
        <mxCell id="lBe2rJOazFU3IIZSdX-1-168" value="CLR 이 힙 영역을 순회하면서 GC Root 생성" style="rounded=0;whiteSpace=wrap;html=1;fontSize=15;" vertex="1" parent="WIyWlLk6GJQsqaUBKTNV-1">
          <mxGeometry x="3188" y="130" width="162" height="60" as="geometry" />
        </mxCell>
        <mxCell id="lBe2rJOazFU3IIZSdX-1-169" value="*GC Root : 가비지 컬렉션 대상 목록" style="text;html=1;strokeColor=none;fillColor=none;align=center;verticalAlign=middle;whiteSpace=wrap;rounded=0;" vertex="1" parent="WIyWlLk6GJQsqaUBKTNV-1">
          <mxGeometry x="3240" y="90" width="200" height="30" as="geometry" />
        </mxCell>
        <mxCell id="lBe2rJOazFU3IIZSdX-1-170" value="세대별 GC 시도" style="rounded=0;whiteSpace=wrap;html=1;fontSize=15;" vertex="1" parent="WIyWlLk6GJQsqaUBKTNV-1">
          <mxGeometry x="3188" y="297.5" width="162" height="60" as="geometry" />
        </mxCell>
        <mxCell id="lBe2rJOazFU3IIZSdX-1-173" value="&lt;div style=&quot;text-align: left; font-size: 16px;&quot;&gt;&lt;span style=&quot;background-color: initial; font-size: 16px;&quot;&gt;class Test&lt;/span&gt;&lt;/div&gt;&lt;div style=&quot;text-align: left; font-size: 16px;&quot;&gt;&lt;span style=&quot;background-color: initial; font-size: 16px;&quot;&gt;{&lt;/span&gt;&lt;/div&gt;&lt;div style=&quot;text-align: left; font-size: 16px;&quot;&gt;&lt;span style=&quot;white-space: pre; font-size: 16px;&quot;&gt;&#x9;&lt;/span&gt;string a = &quot;A&quot;;&lt;br style=&quot;font-size: 16px;&quot;&gt;&lt;/div&gt;&lt;div style=&quot;text-align: left; font-size: 16px;&quot;&gt;&lt;span style=&quot;white-space: pre; font-size: 16px;&quot;&gt;&#x9;&lt;/span&gt;string b = &quot;B&quot;;&lt;br style=&quot;font-size: 16px;&quot;&gt;&lt;/div&gt;&lt;div style=&quot;text-align: left; font-size: 16px;&quot;&gt;&lt;span style=&quot;white-space: pre; font-size: 16px;&quot;&gt;&#x9;&lt;/span&gt;string c = &quot;C&quot;;&lt;br style=&quot;font-size: 16px;&quot;&gt;&lt;/div&gt;&lt;div style=&quot;text-align: left; font-size: 16px;&quot;&gt;&lt;br style=&quot;font-size: 16px;&quot;&gt;&lt;/div&gt;&lt;div style=&quot;text-align: left; font-size: 16px;&quot;&gt;&lt;span style=&quot;white-space: pre; font-size: 16px;&quot;&gt;&#x9;&lt;/span&gt;string GetABC(){&lt;br style=&quot;font-size: 16px;&quot;&gt;&lt;/div&gt;&lt;div style=&quot;text-align: left; font-size: 16px;&quot;&gt;&lt;span style=&quot;background-color: initial; white-space: pre;&quot;&gt;&#x9;&lt;/span&gt;&lt;span style=&quot;background-color: initial; white-space: pre;&quot;&gt;&#x9;&lt;/span&gt;&lt;span style=&quot;background-color: initial;&quot;&gt;return a + b + c;&lt;/span&gt;&lt;br&gt;&lt;/div&gt;&lt;div style=&quot;text-align: left; font-size: 16px;&quot;&gt;&lt;span style=&quot;background-color: initial; white-space: pre;&quot;&gt;&#x9;&lt;/span&gt;&lt;span style=&quot;background-color: initial;&quot;&gt;}&lt;/span&gt;&lt;/div&gt;&lt;div style=&quot;text-align: left; font-size: 16px;&quot;&gt;&lt;span style=&quot;background-color: initial; font-size: 16px;&quot;&gt;}&lt;/span&gt;&lt;/div&gt;&lt;div style=&quot;text-align: left; font-size: 16px;&quot;&gt;&lt;span style=&quot;background-color: initial; font-size: 16px;&quot;&gt;&lt;br&gt;&lt;/span&gt;&lt;/div&gt;&lt;div style=&quot;text-align: left; font-size: 16px;&quot;&gt;&lt;span style=&quot;background-color: initial; font-size: 16px;&quot;&gt;class Program&lt;/span&gt;&lt;/div&gt;&lt;div style=&quot;text-align: left; font-size: 16px;&quot;&gt;&lt;span style=&quot;background-color: initial; font-size: 16px;&quot;&gt;{&lt;/span&gt;&lt;/div&gt;&lt;div style=&quot;text-align: left; font-size: 16px;&quot;&gt;&lt;span style=&quot;background-color: initial; font-size: 16px;&quot;&gt;&lt;span style=&quot;white-space: pre;&quot;&gt;&#x9;&lt;/span&gt;static void Main()&lt;br&gt;&lt;/span&gt;&lt;/div&gt;&lt;div style=&quot;text-align: left; font-size: 16px;&quot;&gt;&lt;span style=&quot;background-color: initial; font-size: 16px;&quot;&gt;&lt;span style=&quot;white-space: pre;&quot;&gt;&#x9;&lt;/span&gt;{&lt;br&gt;&lt;/span&gt;&lt;/div&gt;&lt;div style=&quot;text-align: left; font-size: 16px;&quot;&gt;&lt;span style=&quot;background-color: initial; font-size: 16px;&quot;&gt;&lt;span style=&quot;white-space: pre;&quot;&gt;&#x9;&lt;/span&gt;&lt;span style=&quot;white-space: pre;&quot;&gt;&#x9;&lt;/span&gt;Test test = new Test();&lt;br&gt;&lt;/span&gt;&lt;/div&gt;&lt;div style=&quot;text-align: left; font-size: 16px;&quot;&gt;&lt;span style=&quot;background-color: initial; font-size: 16px;&quot;&gt;&lt;br&gt;&lt;/span&gt;&lt;/div&gt;&lt;div style=&quot;text-align: left; font-size: 16px;&quot;&gt;&lt;span style=&quot;background-color: initial; font-size: 16px;&quot;&gt;&lt;span style=&quot;white-space: pre;&quot;&gt;&#x9;&lt;/span&gt;&lt;span style=&quot;white-space: pre;&quot;&gt;&#x9;&lt;/span&gt;string abc = test.GetABC();&lt;br&gt;&lt;/span&gt;&lt;/div&gt;&lt;div style=&quot;text-align: left; font-size: 16px;&quot;&gt;&lt;span style=&quot;background-color: initial; font-size: 16px;&quot;&gt;&lt;span style=&quot;white-space: pre;&quot;&gt;&#x9;&lt;/span&gt;}&lt;br&gt;&lt;/span&gt;&lt;/div&gt;&lt;div style=&quot;text-align: left; font-size: 16px;&quot;&gt;&lt;span style=&quot;background-color: initial; font-size: 16px;&quot;&gt;}&lt;/span&gt;&lt;/div&gt;" style="rounded=0;whiteSpace=wrap;html=1;fontSize=16;" vertex="1" parent="WIyWlLk6GJQsqaUBKTNV-1">
          <mxGeometry x="3308" y="502" width="330" height="430" as="geometry" />
        </mxCell>
        <mxCell id="lBe2rJOazFU3IIZSdX-1-174" value="" style="rounded=0;whiteSpace=wrap;html=1;" vertex="1" parent="WIyWlLk6GJQsqaUBKTNV-1">
          <mxGeometry x="3655" y="502" width="285" height="428" as="geometry" />
        </mxCell>
        <mxCell id="lBe2rJOazFU3IIZSdX-1-175" value="" style="rounded=0;whiteSpace=wrap;html=1;" vertex="1" parent="WIyWlLk6GJQsqaUBKTNV-1">
          <mxGeometry x="3680" y="840" width="150" height="80" as="geometry" />
        </mxCell>
        <mxCell id="lBe2rJOazFU3IIZSdX-1-176" value="Main" style="text;html=1;strokeColor=none;fillColor=none;align=center;verticalAlign=middle;whiteSpace=wrap;rounded=0;" vertex="1" parent="WIyWlLk6GJQsqaUBKTNV-1">
          <mxGeometry x="3722" y="830" width="60" height="30" as="geometry" />
        </mxCell>
        <mxCell id="lBe2rJOazFU3IIZSdX-1-177" value="Test test" style="text;html=1;strokeColor=#666666;fillColor=#f5f5f5;align=center;verticalAlign=middle;whiteSpace=wrap;rounded=0;fontColor=#333333;" vertex="1" parent="WIyWlLk6GJQsqaUBKTNV-1">
          <mxGeometry x="3690" y="850" width="120" height="30" as="geometry" />
        </mxCell>
        <mxCell id="lBe2rJOazFU3IIZSdX-1-178" value="string abc" style="text;html=1;strokeColor=#666666;fillColor=#f5f5f5;align=center;verticalAlign=middle;whiteSpace=wrap;rounded=0;fontColor=#333333;" vertex="1" parent="WIyWlLk6GJQsqaUBKTNV-1">
          <mxGeometry x="3690" y="880" width="120" height="30" as="geometry" />
        </mxCell>
        <mxCell id="lBe2rJOazFU3IIZSdX-1-179" value="object&lt;br&gt;Test" style="text;html=1;strokeColor=#666666;fillColor=#f5f5f5;align=center;verticalAlign=middle;whiteSpace=wrap;rounded=0;fontColor=#333333;" vertex="1" parent="WIyWlLk6GJQsqaUBKTNV-1">
          <mxGeometry x="3670" y="510" width="90" height="30" as="geometry" />
        </mxCell>
        <mxCell id="lBe2rJOazFU3IIZSdX-1-180" value="" style="rounded=0;whiteSpace=wrap;html=1;" vertex="1" parent="WIyWlLk6GJQsqaUBKTNV-1">
          <mxGeometry x="3670" y="540" width="120" height="60" as="geometry" />
        </mxCell>
        <mxCell id="lBe2rJOazFU3IIZSdX-1-181" value="string a" style="text;html=1;strokeColor=#666666;fillColor=#f5f5f5;align=center;verticalAlign=middle;whiteSpace=wrap;rounded=0;fontColor=#333333;" vertex="1" parent="WIyWlLk6GJQsqaUBKTNV-1">
          <mxGeometry x="3680" y="540" width="90" height="20" as="geometry" />
        </mxCell>
        <mxCell id="lBe2rJOazFU3IIZSdX-1-182" value="string b" style="text;html=1;strokeColor=#666666;fillColor=#f5f5f5;align=center;verticalAlign=middle;whiteSpace=wrap;rounded=0;fontColor=#333333;" vertex="1" parent="WIyWlLk6GJQsqaUBKTNV-1">
          <mxGeometry x="3680" y="560" width="90" height="20" as="geometry" />
        </mxCell>
        <mxCell id="lBe2rJOazFU3IIZSdX-1-183" value="string c" style="text;html=1;strokeColor=#666666;fillColor=#f5f5f5;align=center;verticalAlign=middle;whiteSpace=wrap;rounded=0;fontColor=#333333;" vertex="1" parent="WIyWlLk6GJQsqaUBKTNV-1">
          <mxGeometry x="3680" y="580" width="90" height="20" as="geometry" />
        </mxCell>
        <mxCell id="lBe2rJOazFU3IIZSdX-1-184" value="object&lt;br&gt;String" style="text;html=1;strokeColor=#666666;fillColor=#f5f5f5;align=center;verticalAlign=middle;whiteSpace=wrap;rounded=0;fontColor=#333333;" vertex="1" parent="WIyWlLk6GJQsqaUBKTNV-1">
          <mxGeometry x="3810" y="510" width="90" height="30" as="geometry" />
        </mxCell>
        <mxCell id="lBe2rJOazFU3IIZSdX-1-185" value="" style="rounded=0;whiteSpace=wrap;html=1;" vertex="1" parent="WIyWlLk6GJQsqaUBKTNV-1">
          <mxGeometry x="3810" y="540" width="110" height="40" as="geometry" />
        </mxCell>
        <mxCell id="lBe2rJOazFU3IIZSdX-1-186" value="&quot;A&quot;" style="text;html=1;strokeColor=#666666;fillColor=#f5f5f5;align=center;verticalAlign=middle;whiteSpace=wrap;rounded=0;fontColor=#333333;" vertex="1" parent="WIyWlLk6GJQsqaUBKTNV-1">
          <mxGeometry x="3820" y="550" width="90" height="20" as="geometry" />
        </mxCell>
        <mxCell id="lBe2rJOazFU3IIZSdX-1-187" value="object&lt;br&gt;String" style="text;html=1;strokeColor=#666666;fillColor=#f5f5f5;align=center;verticalAlign=middle;whiteSpace=wrap;rounded=0;fontColor=#333333;" vertex="1" parent="WIyWlLk6GJQsqaUBKTNV-1">
          <mxGeometry x="3810" y="585" width="90" height="30" as="geometry" />
        </mxCell>
        <mxCell id="lBe2rJOazFU3IIZSdX-1-188" value="" style="rounded=0;whiteSpace=wrap;html=1;" vertex="1" parent="WIyWlLk6GJQsqaUBKTNV-1">
          <mxGeometry x="3810" y="615" width="110" height="40" as="geometry" />
        </mxCell>
        <mxCell id="lBe2rJOazFU3IIZSdX-1-189" value="&quot;B&quot;" style="text;html=1;strokeColor=#666666;fillColor=#f5f5f5;align=center;verticalAlign=middle;whiteSpace=wrap;rounded=0;fontColor=#333333;" vertex="1" parent="WIyWlLk6GJQsqaUBKTNV-1">
          <mxGeometry x="3820" y="625" width="90" height="20" as="geometry" />
        </mxCell>
        <mxCell id="lBe2rJOazFU3IIZSdX-1-190" value="object&lt;br&gt;String" style="text;html=1;strokeColor=#666666;fillColor=#f5f5f5;align=center;verticalAlign=middle;whiteSpace=wrap;rounded=0;fontColor=#333333;" vertex="1" parent="WIyWlLk6GJQsqaUBKTNV-1">
          <mxGeometry x="3810" y="660" width="90" height="30" as="geometry" />
        </mxCell>
        <mxCell id="lBe2rJOazFU3IIZSdX-1-191" value="" style="rounded=0;whiteSpace=wrap;html=1;" vertex="1" parent="WIyWlLk6GJQsqaUBKTNV-1">
          <mxGeometry x="3810" y="690" width="110" height="40" as="geometry" />
        </mxCell>
        <mxCell id="lBe2rJOazFU3IIZSdX-1-192" value="&quot;C&quot;" style="text;html=1;strokeColor=#666666;fillColor=#f5f5f5;align=center;verticalAlign=middle;whiteSpace=wrap;rounded=0;fontColor=#333333;" vertex="1" parent="WIyWlLk6GJQsqaUBKTNV-1">
          <mxGeometry x="3820" y="700" width="90" height="20" as="geometry" />
        </mxCell>
        <mxCell id="lBe2rJOazFU3IIZSdX-1-193" value="" style="rounded=0;whiteSpace=wrap;html=1;" vertex="1" parent="WIyWlLk6GJQsqaUBKTNV-1">
          <mxGeometry x="3677" y="800" width="150" height="32" as="geometry" />
        </mxCell>
        <mxCell id="lBe2rJOazFU3IIZSdX-1-194" value="test.GetABC()" style="text;html=1;strokeColor=none;fillColor=none;align=center;verticalAlign=middle;whiteSpace=wrap;rounded=0;" vertex="1" parent="WIyWlLk6GJQsqaUBKTNV-1">
          <mxGeometry x="3722" y="792" width="60" height="30" as="geometry" />
        </mxCell>
        <mxCell id="lBe2rJOazFU3IIZSdX-1-195" value="&quot;AB&quot;" style="text;html=1;strokeColor=none;fillColor=none;align=center;verticalAlign=middle;whiteSpace=wrap;rounded=0;" vertex="1" parent="WIyWlLk6GJQsqaUBKTNV-1">
          <mxGeometry x="3545" y="444" width="60" height="30" as="geometry" />
        </mxCell>
        <mxCell id="lBe2rJOazFU3IIZSdX-1-196" value="object&lt;br&gt;String" style="text;html=1;strokeColor=#666666;fillColor=#f5f5f5;align=center;verticalAlign=middle;whiteSpace=wrap;rounded=0;fontColor=#333333;" vertex="1" parent="WIyWlLk6GJQsqaUBKTNV-1">
          <mxGeometry x="3672" y="610" width="90" height="30" as="geometry" />
        </mxCell>
        <mxCell id="lBe2rJOazFU3IIZSdX-1-197" value="" style="rounded=0;whiteSpace=wrap;html=1;" vertex="1" parent="WIyWlLk6GJQsqaUBKTNV-1">
          <mxGeometry x="3672" y="640" width="110" height="40" as="geometry" />
        </mxCell>
        <mxCell id="lBe2rJOazFU3IIZSdX-1-198" value="&quot;AB&quot;" style="text;html=1;strokeColor=#666666;fillColor=#f5f5f5;align=center;verticalAlign=middle;whiteSpace=wrap;rounded=0;fontColor=#333333;" vertex="1" parent="WIyWlLk6GJQsqaUBKTNV-1">
          <mxGeometry x="3682" y="650" width="90" height="20" as="geometry" />
        </mxCell>
        <mxCell id="lBe2rJOazFU3IIZSdX-1-199" value="object&lt;br&gt;String" style="text;html=1;strokeColor=#666666;fillColor=#f5f5f5;align=center;verticalAlign=middle;whiteSpace=wrap;rounded=0;fontColor=#333333;" vertex="1" parent="WIyWlLk6GJQsqaUBKTNV-1">
          <mxGeometry x="3677" y="690" width="90" height="30" as="geometry" />
        </mxCell>
        <mxCell id="lBe2rJOazFU3IIZSdX-1-200" value="" style="rounded=0;whiteSpace=wrap;html=1;" vertex="1" parent="WIyWlLk6GJQsqaUBKTNV-1">
          <mxGeometry x="3677" y="720" width="110" height="40" as="geometry" />
        </mxCell>
        <mxCell id="lBe2rJOazFU3IIZSdX-1-201" value="&quot;ABC&quot;" style="text;html=1;strokeColor=#666666;fillColor=#f5f5f5;align=center;verticalAlign=middle;whiteSpace=wrap;rounded=0;fontColor=#333333;" vertex="1" parent="WIyWlLk6GJQsqaUBKTNV-1">
          <mxGeometry x="3687" y="730" width="90" height="20" as="geometry" />
        </mxCell>
        <mxCell id="lBe2rJOazFU3IIZSdX-1-202" value="&quot;A&quot;" style="rounded=0;whiteSpace=wrap;html=1;" vertex="1" parent="WIyWlLk6GJQsqaUBKTNV-1">
          <mxGeometry x="3010" y="790" width="40" height="48" as="geometry" />
        </mxCell>
        <mxCell id="lBe2rJOazFU3IIZSdX-1-203" value="&quot;B&quot;" style="rounded=0;whiteSpace=wrap;html=1;" vertex="1" parent="WIyWlLk6GJQsqaUBKTNV-1">
          <mxGeometry x="3060" y="789" width="40" height="48" as="geometry" />
        </mxCell>
        <mxCell id="lBe2rJOazFU3IIZSdX-1-204" value="&quot;C&quot;" style="rounded=0;whiteSpace=wrap;html=1;" vertex="1" parent="WIyWlLk6GJQsqaUBKTNV-1">
          <mxGeometry x="3107.5" y="790" width="40" height="48" as="geometry" />
        </mxCell>
        <mxCell id="lBe2rJOazFU3IIZSdX-1-205" value="object&lt;br&gt;Test" style="rounded=0;whiteSpace=wrap;html=1;" vertex="1" parent="WIyWlLk6GJQsqaUBKTNV-1">
          <mxGeometry x="3160" y="792" width="40" height="48" as="geometry" />
        </mxCell>
        <mxCell id="lBe2rJOazFU3IIZSdX-1-207" value="&quot;AB&quot;" style="rounded=0;whiteSpace=wrap;html=1;fillColor=#f8cecc;strokeColor=#b85450;" vertex="1" parent="WIyWlLk6GJQsqaUBKTNV-1">
          <mxGeometry x="3010" y="686" width="40" height="48" as="geometry" />
        </mxCell>
        <mxCell id="lBe2rJOazFU3IIZSdX-1-208" value="&quot;ABC&quot;" style="rounded=0;whiteSpace=wrap;html=1;" vertex="1" parent="WIyWlLk6GJQsqaUBKTNV-1">
          <mxGeometry x="3210" y="744" width="40" height="48" as="geometry" />
        </mxCell>
        <mxCell id="lBe2rJOazFU3IIZSdX-1-209" value="시간 지역성&lt;br&gt;&lt;br&gt;참조가 되어 왔던 것들은 그다음에 또 참조가 될 가능성이 높기 때문에,&amp;nbsp;&lt;br&gt;세대를 높혀주고,&amp;nbsp;&lt;br&gt;높은 세대 일수록 가비지컬렉션을 시도해야할 확률이 줄어드므로 가비지컬렉션 시도 빈도를 세대가 높아질수록 줄여준다." style="text;html=1;strokeColor=none;fillColor=none;align=center;verticalAlign=middle;whiteSpace=wrap;rounded=0;" vertex="1" parent="WIyWlLk6GJQsqaUBKTNV-1">
          <mxGeometry x="2935" y="860" width="295" height="130" as="geometry" />
        </mxCell>
        <mxCell id="lBe2rJOazFU3IIZSdX-1-228" value="Garbage&lt;br&gt;Collection" style="rounded=0;whiteSpace=wrap;html=1;fillColor=#dae8fc;strokeColor=#6c8ebf;" vertex="1" parent="WIyWlLk6GJQsqaUBKTNV-1">
          <mxGeometry x="2541" y="1150" width="120" height="60" as="geometry" />
        </mxCell>
        <mxCell id="lBe2rJOazFU3IIZSdX-1-229" value="" style="rounded=0;whiteSpace=wrap;html=1;" vertex="1" parent="WIyWlLk6GJQsqaUBKTNV-1">
          <mxGeometry x="2610" y="1250" width="300" height="430" as="geometry" />
        </mxCell>
        <mxCell id="lBe2rJOazFU3IIZSdX-1-230" value="Code" style="rounded=0;whiteSpace=wrap;html=1;" vertex="1" parent="WIyWlLk6GJQsqaUBKTNV-1">
          <mxGeometry x="2630" y="1270" width="250" height="60" as="geometry" />
        </mxCell>
        <mxCell id="lBe2rJOazFU3IIZSdX-1-231" value="Data" style="rounded=0;whiteSpace=wrap;html=1;" vertex="1" parent="WIyWlLk6GJQsqaUBKTNV-1">
          <mxGeometry x="2630" y="1340" width="250" height="60" as="geometry" />
        </mxCell>
        <mxCell id="lBe2rJOazFU3IIZSdX-1-232" value="" style="rounded=0;whiteSpace=wrap;html=1;" vertex="1" parent="WIyWlLk6GJQsqaUBKTNV-1">
          <mxGeometry x="2630" y="1410" width="250" height="250" as="geometry" />
        </mxCell>
        <mxCell id="lBe2rJOazFU3IIZSdX-1-233" value="Heap" style="text;html=1;strokeColor=none;fillColor=none;align=center;verticalAlign=middle;whiteSpace=wrap;rounded=0;" vertex="1" parent="WIyWlLk6GJQsqaUBKTNV-1">
          <mxGeometry x="2730" y="1420" width="60" height="30" as="geometry" />
        </mxCell>
        <mxCell id="lBe2rJOazFU3IIZSdX-1-234" value="Stack" style="text;html=1;strokeColor=none;fillColor=none;align=center;verticalAlign=middle;whiteSpace=wrap;rounded=0;" vertex="1" parent="WIyWlLk6GJQsqaUBKTNV-1">
          <mxGeometry x="2730" y="1660" width="60" height="30" as="geometry" />
        </mxCell>
        <mxCell id="lBe2rJOazFU3IIZSdX-1-235" value="" style="rounded=0;whiteSpace=wrap;html=1;" vertex="1" parent="WIyWlLk6GJQsqaUBKTNV-1">
          <mxGeometry x="2640" y="1530" width="70" height="120" as="geometry" />
        </mxCell>
        <mxCell id="lBe2rJOazFU3IIZSdX-1-236" value="" style="rounded=0;whiteSpace=wrap;html=1;" vertex="1" parent="WIyWlLk6GJQsqaUBKTNV-1">
          <mxGeometry x="2720" y="1530" width="70" height="120" as="geometry" />
        </mxCell>
        <mxCell id="lBe2rJOazFU3IIZSdX-1-237" value="" style="rounded=0;whiteSpace=wrap;html=1;" vertex="1" parent="WIyWlLk6GJQsqaUBKTNV-1">
          <mxGeometry x="2800" y="1530" width="70" height="120" as="geometry" />
        </mxCell>
        <mxCell id="lBe2rJOazFU3IIZSdX-1-238" value="Thread" style="text;html=1;strokeColor=none;fillColor=none;align=center;verticalAlign=middle;whiteSpace=wrap;rounded=0;" vertex="1" parent="WIyWlLk6GJQsqaUBKTNV-1">
          <mxGeometry x="2645" y="1628" width="60" height="30" as="geometry" />
        </mxCell>
        <mxCell id="lBe2rJOazFU3IIZSdX-1-239" value="Thread" style="text;html=1;strokeColor=none;fillColor=none;align=center;verticalAlign=middle;whiteSpace=wrap;rounded=0;" vertex="1" parent="WIyWlLk6GJQsqaUBKTNV-1">
          <mxGeometry x="2725" y="1628" width="60" height="30" as="geometry" />
        </mxCell>
        <mxCell id="lBe2rJOazFU3IIZSdX-1-240" value="Thread" style="text;html=1;strokeColor=none;fillColor=none;align=center;verticalAlign=middle;whiteSpace=wrap;rounded=0;" vertex="1" parent="WIyWlLk6GJQsqaUBKTNV-1">
          <mxGeometry x="2805" y="1628" width="60" height="30" as="geometry" />
        </mxCell>
      </root>
    </mxGraphModel>
  </diagram>
</mxfile>
